G04 ================== begin FILE IDENTIFICATION RECORD ==================*
G04 Layout Name:  BRD30-00034-01.brd*
G04 Film Name:    GBR30-00034-01-SST*
G04 File Format:  Gerber RS274X*
G04 File Origin:  Cadence Allegro 17.2-P019*
G04 Origin Date:  Mon Aug 15 13:53:33 2022*
G04 *
G04 Layer:  REF DES/SILKSCREEN_TOP*
G04 Layer:  PACKAGE GEOMETRY/SILKSCREEN_TOP*
G04 Layer:  BOARD GEOMETRY/SILKSCREEN_TOP*
G04 Layer:  BOARD GEOMETRY/OUTLINE*
G04 *
G04 Offset:    (0.000 0.000)*
G04 Mirror:    No*
G04 Mode:      Positive*
G04 Rotation:  0*
G04 FullContactRelief:  No*
G04 UndefLineWidth:     6.000*
G04 ================== end FILE IDENTIFICATION RECORD ====================*
%FSLAX25Y25*MOIN*%
%IR0*IPPOS*OFA0.00000B0.00000*MIA0B0*SFA1.00000B1.00000*%
%ADD10C,.006*%
%ADD11C,.008*%
G75*
%LPD*%
G75*
G36*
G01X-10650Y61450D02*
Y62550D01*
X-10050Y61450D01*
X-9750D01*
Y62950D01*
X-10050D01*
Y61950D01*
X-10550Y62950D01*
X-11050D01*
Y61450D01*
X-10650D01*
G37*
G36*
G01X-14150Y63050D02*
G03Y61450I-71J-800D01*
G03Y63050I-71J800D01*
G37*
G36*
G01X-13650Y64550D02*
Y68550D01*
X-14850D01*
Y68549D01*
G03X-14950Y68450I8J-108D01*
G01X-14950Y64550D01*
X-13650D01*
G37*
G36*
G01X-12250Y65950D02*
G03Y69950I-105J2000D01*
G01X-13650D01*
Y68550D01*
X-12350D01*
G02Y67250I111J-650D01*
G01X-13650D01*
Y65950D01*
X-12250D01*
G37*
G36*
G01X3250Y62150D02*
G02X3450Y61849I-141J-310D01*
G01X3650Y61450D01*
X3250D01*
X3050Y61750D01*
G03X2950Y62050I-329J57D01*
G01X2750D01*
Y61450D01*
X2350D01*
Y62950D01*
G02X3250I450J-2790D01*
G02X3250Y62150I-133J-400D01*
G37*
G36*
G01X6754Y63050D02*
G02X7250Y62950I18J-1192D01*
G01X7150Y62650D01*
G03X6750Y62750I-389J-706D01*
G03X6950Y61750I14J-517D01*
G01Y62050D01*
X6650D01*
Y62350D01*
X7250D01*
Y61550D01*
G02X6950Y61450I-531J1093D01*
G01X6545D01*
G02X5850Y62250I55J750D01*
G02X6754Y63050I850J-50D01*
G37*
G36*
G01X13050Y62650D02*
X13450D01*
Y61450D01*
X13850D01*
Y62650D01*
X14350D01*
Y62950D01*
X13050D01*
Y62650D01*
G37*
G36*
G01X10750Y61650D02*
X10050D01*
Y62050D01*
X10650D01*
Y62350D01*
X10050D01*
Y62750D01*
X10750D01*
Y62950D01*
X9750D01*
Y61450D01*
X10750D01*
Y61650D01*
G37*
G36*
G01X-750Y62950D02*
Y62750D01*
X-850Y62050D01*
X-550D01*
Y61850D01*
X-950D01*
X-1050Y61450D01*
X-1450D01*
X-950Y62950D01*
X-750D01*
G37*
G36*
G01Y62750D02*
X-550Y62050D01*
Y61850D01*
X-450Y61450D01*
X-50D01*
X-450Y62950D01*
X-750D01*
Y62750D01*
G37*
G36*
G01X-3550Y62950D02*
Y62650D01*
X-3950D01*
Y61450D01*
X-4350D01*
Y62650D01*
X-4750D01*
Y62950D01*
X-3550D01*
G37*
G36*
G01X13250Y67850D02*
Y66550D01*
G02X12550Y65950I-639J38D01*
G01X11250D01*
Y64550D01*
X12650D01*
G03X14550Y66550I-70J1969D01*
G03X13450Y67850I-1349J-26D01*
G01X13250D01*
G37*
G36*
G01X-5850Y67350D02*
X-7350Y64350D01*
X-5950D01*
G03X-5850Y64450I-34J134D01*
G01X-4650Y66850D01*
X-4150Y67950D01*
X-3650Y68950D01*
X-2950Y70350D01*
G03X-3050Y70450I-109J-9D01*
G01X-4350D01*
G03X-4450Y70350I21J-121D01*
G01X-5350Y68550D01*
G03X-8450Y69650I-7452J-16082D01*
G02X-8550Y69750I49J149D01*
G01Y70750D01*
X-9650Y70250D01*
G03X-9750Y70150I47J-147D01*
G01Y68750D01*
G03X-9550Y68649I145J38D01*
G01X-5850Y67350D01*
G37*
G36*
G01X-8450Y64350D02*
Y67650D01*
G03X-8550Y67750I-116J-16D01*
G01X-9650Y68150D01*
Y64350D01*
X-8450D01*
G37*
G36*
G01X-1450D02*
X-50D01*
X-2950Y70350D01*
X-3650Y68950D01*
X-2750Y67050D01*
X-4150Y67950D01*
X-4650Y66849D01*
G02X-1450Y64350I-6170J-11197D01*
G37*
G36*
G01X10450Y67968D02*
G02X12450Y69950I2026J-45D01*
G01X13850D01*
Y68550D01*
X12550D01*
G03X11850Y67950I-66J-632D01*
G01Y66550D01*
X11742D01*
G02X10450Y67968I58J1350D01*
G37*
%LPC*%
G75*
G36*
G01X-14150Y61650D02*
G03X-14153Y62750I-48J550D01*
G03X-14150Y61650I2J-550D01*
G37*
G36*
G01X2750Y62750D02*
Y62350D01*
X2950D01*
G03Y62750I51J200D01*
G01X2750D01*
G37*
%LPD*%
G75*
G36*
G01X450Y64550D02*
Y65850D01*
X4550D01*
Y64550D01*
X450D01*
G37*
G36*
G01X7150D02*
Y65950D01*
X9850D01*
Y64550D01*
X7150D01*
G37*
G36*
G01X450Y66550D02*
Y67850D01*
X3150D01*
Y66550D01*
X450D01*
G37*
G36*
G01Y68550D02*
Y69950D01*
X4550D01*
Y68550D01*
X450D01*
G37*
G36*
G01X5850Y65950D02*
Y69950D01*
X7150D01*
Y65950D01*
X5850D01*
G37*
G54D10*
G01X-34410Y28000D02*
G03I-5590J0D01*
G01X-46910Y78000D02*
G03I-5590J0D01*
G01X-33096Y113431D02*
G03I-5590J0D01*
G01X-16910Y17500D02*
G03I-5590J0D01*
G01X-4410D02*
G03I-5590J0D01*
G01X5590Y0D02*
G03I-5590J0D01*
G01X15590Y17500D02*
G03I-5590J0D01*
G01X28090D02*
G03I-5590J0D01*
G01X4500Y98500D02*
G02X-4500I-4500J-3426D01*
G01X45890Y27957D02*
G03I-5590J0D01*
G01X58090Y78000D02*
G03I-5590J0D01*
G01X-34226Y119461D02*
G03X-28279Y117500I5947J8039D01*
G01X30000D01*
G02Y2500I0J-57500D01*
G01X15811D01*
G03X6776Y-3214I0J-10000D01*
G02X-6776I-6776J3214D01*
G03X-15811Y2500I-9035J-4286D01*
G01X-30000D01*
G02X-49624Y114048I0J57500D01*
G03X-44836Y117724I-3413J9400D01*
G02X-34226Y119461I6150J-4293D01*
G01X-14150Y62750D02*
G03Y61650I0J-550D01*
G01D02*
G03Y62749I-49J550D01*
G01X2750Y62350D02*
Y62750D01*
X2950D01*
G01Y62350D02*
G03Y62750I51J200D01*
G01Y62350D02*
X2750D01*
G54D11*
G01X-42750Y39600D02*
X-41000Y35400D01*
X-39250Y39600D01*
G01X-36910Y36800D02*
X-35090D01*
G01X-60320Y26400D02*
Y30600D01*
X-58500Y27100D01*
X-56680Y30600D01*
Y26400D01*
G01X-54970D02*
Y30600D01*
G01X-52030D02*
Y26400D01*
G01Y28500D02*
X-54970D01*
G01X-50040Y27030D02*
X-49620Y26680D01*
X-49130Y26470D01*
X-48500Y26400D01*
X-47870Y26540D01*
X-47380Y26820D01*
X-47030Y27310D01*
X-46960Y27870D01*
X-47100Y28430D01*
X-47450Y28780D01*
X-47940Y29060D01*
X-48430Y29130D01*
X-48920Y29060D01*
X-49550Y28780D01*
X-49340Y30600D01*
X-47450D01*
G01X-55750Y89600D02*
X-54000Y85400D01*
X-52250Y89600D01*
G01X-49910Y86800D02*
X-48090D01*
G01X-58820Y67400D02*
Y71600D01*
X-57000Y68100D01*
X-55180Y71600D01*
Y67400D01*
G01X-53470D02*
Y71600D01*
G01X-50530D02*
Y67400D01*
G01Y69500D02*
X-53470D01*
G01X-46160Y67400D02*
Y71600D01*
X-48750Y68590D01*
X-45250D01*
G01X-44320Y100900D02*
Y105100D01*
X-42500Y101600D01*
X-40680Y105100D01*
Y100900D01*
G01X-38970D02*
Y105100D01*
G01X-36030D02*
Y100900D01*
G01Y103000D02*
X-38970D01*
G01X-32500Y100900D02*
Y105100D01*
X-33340Y104260D01*
G01Y100900D02*
X-31660D01*
G01X-29470Y-24540D02*
X-28910Y-24890D01*
X-28280Y-25100D01*
X-27720D01*
X-27160Y-24890D01*
X-26740Y-24540D01*
X-26530Y-24050D01*
X-26670Y-23560D01*
X-27020Y-23140D01*
X-27650Y-22860D01*
X-28490Y-22720D01*
X-28980Y-22440D01*
X-29190Y-21950D01*
X-29050Y-21460D01*
X-28700Y-21110D01*
X-28210Y-20900D01*
X-27720D01*
X-27230Y-21040D01*
X-26810Y-21390D01*
G01X-23840Y-20900D02*
X-22160D01*
G01X-23000D02*
Y-25100D01*
G01X-23840D02*
X-22160D01*
G01X-19400Y-20900D02*
Y-25100D01*
X-16600D01*
G01X-14540D02*
Y-20900D01*
G01X-11880D02*
X-14540Y-23490D01*
G01X-11460Y-25100D02*
X-13350Y-22300D01*
G01X-9470Y-24540D02*
X-8910Y-24890D01*
X-8280Y-25100D01*
X-7720D01*
X-7160Y-24890D01*
X-6740Y-24540D01*
X-6530Y-24050D01*
X-6670Y-23560D01*
X-7020Y-23140D01*
X-7650Y-22860D01*
X-8490Y-22720D01*
X-8980Y-22440D01*
X-9190Y-21950D01*
X-9050Y-21460D01*
X-8700Y-21110D01*
X-8210Y-20900D01*
X-7720D01*
X-7230Y-21040D01*
X-6810Y-21390D01*
G01X-1460Y-21250D02*
X-1880Y-21040D01*
X-2370Y-20900D01*
X-2930D01*
X-3560Y-21110D01*
X-4050Y-21460D01*
X-4400Y-21880D01*
X-4680Y-22580D01*
X-4750Y-23210D01*
X-4610Y-23840D01*
X-4400Y-24260D01*
X-3980Y-24680D01*
X-3490Y-24960D01*
X-3000Y-25100D01*
X-2510D01*
X-2020Y-24960D01*
X-1600Y-24750D01*
X-1250Y-24470D01*
G01X600Y-25100D02*
Y-20900D01*
X2350D01*
X2910Y-21110D01*
X3260Y-21390D01*
X3400Y-21950D01*
X3260Y-22510D01*
X2840Y-22860D01*
X2350Y-23070D01*
X600D01*
G01X2350D02*
X3400Y-25100D01*
G01X8400D02*
X5600D01*
Y-20900D01*
X8400D01*
G01X7280Y-22930D02*
X5600D01*
G01X13400Y-25100D02*
X10600D01*
Y-20900D01*
X13400D01*
G01X12280Y-22930D02*
X10600D01*
G01X15390Y-25100D02*
Y-20900D01*
X18610Y-25100D01*
Y-20900D01*
G01X27000D02*
Y-25100D01*
G01X25390Y-20900D02*
X28610D01*
G01X32000Y-25100D02*
X31440Y-25030D01*
X30950Y-24750D01*
X30530Y-24330D01*
X30250Y-23840D01*
X30110Y-23280D01*
Y-22720D01*
X30250Y-22160D01*
X30530Y-21670D01*
X30950Y-21250D01*
X31440Y-20970D01*
X32000Y-20900D01*
X32560Y-20970D01*
X33050Y-21250D01*
X33470Y-21670D01*
X33750Y-22160D01*
X33890Y-22720D01*
Y-23280D01*
X33750Y-23840D01*
X33470Y-24330D01*
X33050Y-24750D01*
X32560Y-25030D01*
X32000Y-25100D01*
G01X35600D02*
Y-20900D01*
X37280D01*
X37840Y-21110D01*
X38260Y-21600D01*
X38400Y-22160D01*
X38260Y-22720D01*
X37910Y-23140D01*
X37280Y-23350D01*
X35600D01*
G01X-17820Y3900D02*
Y8100D01*
X-16000Y4600D01*
X-14180Y8100D01*
Y3900D01*
G01X-12470D02*
Y8100D01*
G01X-9530D02*
Y3900D01*
G01Y6000D02*
X-12470D01*
G01X-6140Y3900D02*
X-6000Y4810D01*
X-5790Y5580D01*
X-5510Y6280D01*
X-5160Y7050D01*
X-4600Y8100D01*
X-7400D01*
G01X-26140Y27060D02*
X-26350Y27340D01*
X-26700Y27550D01*
X-27190Y27690D01*
X-27610Y27550D01*
X-27890Y27270D01*
X-28100Y26780D01*
Y24890D01*
X-23900D01*
Y27200D01*
X-24180Y27690D01*
X-24600Y27970D01*
X-25090Y28110D01*
X-25580Y27970D01*
X-26000Y27550D01*
X-26140Y27060D01*
Y24890D01*
G01X-23900Y32760D02*
X-26700D01*
G01X-26210D02*
X-26490Y32480D01*
X-26630Y32060D01*
X-26700Y31570D01*
X-26560Y31080D01*
X-26280Y30660D01*
X-25860Y30380D01*
X-25300Y30240D01*
X-24740Y30380D01*
X-24320Y30660D01*
X-24040Y31080D01*
X-23900Y31570D01*
X-23970Y32060D01*
X-24180Y32480D01*
X-24460Y32760D01*
G01X-28100Y36500D02*
X-23900D01*
G01X-26700Y35520D02*
Y37480D01*
G01X-28100Y41500D02*
X-23900D01*
G01X-26700Y40520D02*
Y42480D01*
G01X-23900Y50100D02*
X-28100D01*
Y51780D01*
X-27890Y52340D01*
X-27400Y52760D01*
X-26840Y52900D01*
X-26280Y52760D01*
X-25860Y52410D01*
X-25650Y51780D01*
Y50100D01*
G01X-10740Y26660D02*
X-10950Y26940D01*
X-11300Y27150D01*
X-11790Y27290D01*
X-12210Y27150D01*
X-12490Y26870D01*
X-12700Y26380D01*
Y24490D01*
X-8500D01*
Y26800D01*
X-8780Y27290D01*
X-9200Y27570D01*
X-9690Y27710D01*
X-10180Y27570D01*
X-10600Y27150D01*
X-10740Y26660D01*
Y24490D01*
G01X-8500Y32360D02*
X-11300D01*
G01X-10810D02*
X-11090Y32080D01*
X-11230Y31660D01*
X-11300Y31170D01*
X-11160Y30680D01*
X-10880Y30260D01*
X-10460Y29980D01*
X-9900Y29840D01*
X-9340Y29980D01*
X-8920Y30260D01*
X-8640Y30680D01*
X-8500Y31170D01*
X-8570Y31660D01*
X-8780Y32080D01*
X-9060Y32360D01*
G01X-12700Y36100D02*
X-8500D01*
G01X-11300Y35120D02*
Y37080D01*
G01X-12700Y41100D02*
X-8500D01*
G01X-11300Y40120D02*
Y42080D01*
G01X-8500Y49700D02*
X-12700D01*
Y51380D01*
X-12490Y51940D01*
X-12000Y52360D01*
X-11440Y52500D01*
X-10880Y52360D01*
X-10460Y52010D01*
X-10250Y51380D01*
Y49700D01*
G01X-17900Y24680D02*
X-22100D01*
X-18600Y26500D01*
X-22100Y28320D01*
X-17900D01*
G01Y30030D02*
X-22100D01*
G01Y32970D02*
X-17900D01*
G01X-20000D02*
Y30030D01*
G01X-18390Y35310D02*
X-18040Y35800D01*
X-17900Y36360D01*
X-18040Y36920D01*
X-18460Y37410D01*
X-19090Y37760D01*
X-19720Y37900D01*
X-20490D01*
X-21120Y37760D01*
X-21680Y37410D01*
X-21960Y36990D01*
X-22100Y36500D01*
X-21960Y35940D01*
X-21680Y35520D01*
X-21260Y35240D01*
X-20700Y35100D01*
X-20210Y35240D01*
X-19720Y35590D01*
X-19440Y36010D01*
X-19370Y36500D01*
X-19510Y37060D01*
X-19860Y37480D01*
X-20490Y37900D01*
G01X-26440Y74340D02*
X-26020Y73850D01*
X-25460Y73570D01*
X-24830Y73500D01*
X-24270Y73570D01*
X-23710Y73920D01*
X-23360Y74340D01*
X-23290Y74760D01*
X-23430Y75250D01*
X-23920Y75600D01*
X-24410Y75740D01*
X-25040D01*
G01X-24410D02*
X-23990Y75950D01*
X-23640Y76300D01*
X-23500Y76720D01*
X-23640Y77140D01*
X-23990Y77490D01*
X-24620Y77700D01*
X-25250Y77630D01*
X-25880Y77350D01*
G01X-19900Y77700D02*
X-20460Y77560D01*
X-20880Y77210D01*
X-21160Y76790D01*
X-21370Y76230D01*
X-21440Y75600D01*
X-21370Y74970D01*
X-21160Y74410D01*
X-20880Y73990D01*
X-20460Y73640D01*
X-19900Y73500D01*
X-19340Y73640D01*
X-18920Y73990D01*
X-18640Y74410D01*
X-18430Y74970D01*
X-18360Y75600D01*
X-18430Y76230D01*
X-18640Y76790D01*
X-18920Y77210D01*
X-19340Y77560D01*
X-19900Y77700D01*
G01X-15810Y74900D02*
X-13990D01*
G01X-9900Y77700D02*
X-10460Y77560D01*
X-10880Y77210D01*
X-11160Y76790D01*
X-11370Y76230D01*
X-11440Y75600D01*
X-11370Y74970D01*
X-11160Y74410D01*
X-10880Y73990D01*
X-10460Y73640D01*
X-9900Y73500D01*
X-9340Y73640D01*
X-8920Y73990D01*
X-8640Y74410D01*
X-8430Y74970D01*
X-8360Y75600D01*
X-8430Y76230D01*
X-8640Y76790D01*
X-8920Y77210D01*
X-9340Y77560D01*
X-9900Y77700D01*
G01X-4900D02*
X-5460Y77560D01*
X-5880Y77210D01*
X-6160Y76790D01*
X-6370Y76230D01*
X-6440Y75600D01*
X-6370Y74970D01*
X-6160Y74410D01*
X-5880Y73990D01*
X-5460Y73640D01*
X-4900Y73500D01*
X-4340Y73640D01*
X-3920Y73990D01*
X-3640Y74410D01*
X-3430Y74970D01*
X-3360Y75600D01*
X-3430Y76230D01*
X-3640Y76790D01*
X-3920Y77210D01*
X-4340Y77560D01*
X-4900Y77700D01*
G01X100D02*
X-460Y77560D01*
X-880Y77210D01*
X-1160Y76790D01*
X-1370Y76230D01*
X-1440Y75600D01*
X-1370Y74970D01*
X-1160Y74410D01*
X-880Y73990D01*
X-460Y73640D01*
X100Y73500D01*
X660Y73640D01*
X1080Y73990D01*
X1360Y74410D01*
X1570Y74970D01*
X1640Y75600D01*
X1570Y76230D01*
X1360Y76790D01*
X1080Y77210D01*
X660Y77560D01*
X100Y77700D01*
G01X3560Y74340D02*
X3980Y73850D01*
X4540Y73570D01*
X5170Y73500D01*
X5730Y73570D01*
X6290Y73920D01*
X6640Y74340D01*
X6710Y74760D01*
X6570Y75250D01*
X6080Y75600D01*
X5590Y75740D01*
X4960D01*
G01X5590D02*
X6010Y75950D01*
X6360Y76300D01*
X6500Y76720D01*
X6360Y77140D01*
X6010Y77490D01*
X5380Y77700D01*
X4750Y77630D01*
X4120Y77350D01*
G01X10940Y73500D02*
Y77700D01*
X8350Y74690D01*
X11850D01*
G01X14190Y74900D02*
X16010D01*
G01X20100Y77700D02*
X19540Y77560D01*
X19120Y77210D01*
X18840Y76790D01*
X18630Y76230D01*
X18560Y75600D01*
X18630Y74970D01*
X18840Y74410D01*
X19120Y73990D01*
X19540Y73640D01*
X20100Y73500D01*
X20660Y73640D01*
X21080Y73990D01*
X21360Y74410D01*
X21570Y74970D01*
X21640Y75600D01*
X21570Y76230D01*
X21360Y76790D01*
X21080Y77210D01*
X20660Y77560D01*
X20100Y77700D01*
G01X25100Y73500D02*
Y77700D01*
X24260Y76860D01*
G01Y73500D02*
X25940D01*
G01X-31250Y109400D02*
X-29500Y113600D01*
X-27750Y109400D01*
G01X-28380Y110870D02*
X-30620D01*
G01X-26250Y109400D02*
X-24500Y113600D01*
X-22750Y109400D01*
G01X-23380Y110870D02*
X-25620D01*
G01X-20270Y110800D02*
X-18590D01*
G01X-19500Y111710D02*
Y109890D01*
G01X-3750Y11100D02*
X-2000Y6900D01*
X-250Y11100D01*
G01X2230Y8300D02*
X3910D01*
G01X3000Y9210D02*
Y7390D01*
G01X6360Y27060D02*
X6150Y27340D01*
X5800Y27550D01*
X5310Y27690D01*
X4890Y27550D01*
X4610Y27270D01*
X4400Y26780D01*
Y24890D01*
X8600D01*
Y27200D01*
X8320Y27690D01*
X7900Y27970D01*
X7410Y28110D01*
X6920Y27970D01*
X6500Y27550D01*
X6360Y27060D01*
Y24890D01*
G01X8600Y32760D02*
X5800D01*
G01X6290D02*
X6010Y32480D01*
X5870Y32060D01*
X5800Y31570D01*
X5940Y31080D01*
X6220Y30660D01*
X6640Y30380D01*
X7200Y30240D01*
X7760Y30380D01*
X8180Y30660D01*
X8460Y31080D01*
X8600Y31570D01*
X8530Y32060D01*
X8320Y32480D01*
X8040Y32760D01*
G01X4400Y36500D02*
X8600D01*
G01X5800Y35520D02*
Y37480D01*
G01X4400Y41500D02*
X8600D01*
G01X5800Y40520D02*
Y42480D01*
G01X8600Y49890D02*
X4400D01*
X8600Y53110D01*
X4400D01*
G01X21360Y27560D02*
X21150Y27840D01*
X20800Y28050D01*
X20310Y28190D01*
X19890Y28050D01*
X19610Y27770D01*
X19400Y27280D01*
Y25390D01*
X23600D01*
Y27700D01*
X23320Y28190D01*
X22900Y28470D01*
X22410Y28610D01*
X21920Y28470D01*
X21500Y28050D01*
X21360Y27560D01*
Y25390D01*
G01X23600Y33260D02*
X20800D01*
G01X21290D02*
X21010Y32980D01*
X20870Y32560D01*
X20800Y32070D01*
X20940Y31580D01*
X21220Y31160D01*
X21640Y30880D01*
X22200Y30740D01*
X22760Y30880D01*
X23180Y31160D01*
X23460Y31580D01*
X23600Y32070D01*
X23530Y32560D01*
X23320Y32980D01*
X23040Y33260D01*
G01X19400Y37000D02*
X23600D01*
G01X20800Y36020D02*
Y37980D01*
G01X19400Y42000D02*
X23600D01*
G01X20800Y41020D02*
Y42980D01*
G01X23600Y50390D02*
X19400D01*
X23600Y53610D01*
X19400D01*
G01X14600Y25180D02*
X10400D01*
X13900Y27000D01*
X10400Y28820D01*
X14600D01*
G01Y30530D02*
X10400D01*
G01Y33470D02*
X14600D01*
G01X12500D02*
Y30530D01*
G01X14600Y37000D02*
X14530Y37490D01*
X14320Y38050D01*
X13970Y38400D01*
X13480Y38540D01*
X12990Y38400D01*
X12570Y37980D01*
X12360Y37350D01*
Y36650D01*
X12220Y36230D01*
X11870Y35880D01*
X11380Y35740D01*
X10890Y35950D01*
X10540Y36440D01*
X10400Y37000D01*
X10540Y37560D01*
X10890Y38050D01*
X11380Y38260D01*
X11870Y38120D01*
X12220Y37770D01*
X12360Y37350D01*
Y36650D01*
X12570Y36020D01*
X12990Y35600D01*
X13480Y35460D01*
X13970Y35600D01*
X14320Y35950D01*
X14530Y36510D01*
X14600Y37000D01*
G01X-1900Y24680D02*
X-6100D01*
X-2600Y26500D01*
X-6100Y28320D01*
X-1900D01*
G01Y30030D02*
X-6100D01*
G01Y32970D02*
X-1900D01*
G01X-4000D02*
Y30030D01*
G01X-1900Y36500D02*
X-6100D01*
X-5260Y35660D01*
G01X-1900D02*
Y37340D01*
G01X-6100Y41500D02*
X-5960Y40940D01*
X-5610Y40520D01*
X-5190Y40240D01*
X-4630Y40030D01*
X-4000Y39960D01*
X-3370Y40030D01*
X-2810Y40240D01*
X-2390Y40520D01*
X-2040Y40940D01*
X-1900Y41500D01*
X-2040Y42060D01*
X-2390Y42480D01*
X-2810Y42760D01*
X-3370Y42970D01*
X-4000Y43040D01*
X-4630Y42970D01*
X-5190Y42760D01*
X-5610Y42480D01*
X-5960Y42060D01*
X-6100Y41500D01*
G01X-5320Y83900D02*
Y88100D01*
X-3500Y84600D01*
X-1680Y88100D01*
Y83900D01*
G01X30D02*
Y88100D01*
G01X2970D02*
Y83900D01*
G01Y86000D02*
X30D01*
G01X4960Y84740D02*
X5380Y84250D01*
X5940Y83970D01*
X6570Y83900D01*
X7130Y83970D01*
X7690Y84320D01*
X8040Y84740D01*
X8110Y85160D01*
X7970Y85650D01*
X7480Y86000D01*
X6990Y86140D01*
X6360D01*
G01X6990D02*
X7410Y86350D01*
X7760Y86700D01*
X7900Y87120D01*
X7760Y87540D01*
X7410Y87890D01*
X6780Y88100D01*
X6150Y88030D01*
X5520Y87750D01*
G01X-3250Y106600D02*
X-1500Y102400D01*
X250Y106600D01*
G01X2590Y103800D02*
X4410D01*
G01X37750Y40100D02*
X39500Y35900D01*
X41250Y40100D01*
G01X43590Y37300D02*
X45410D01*
G01X48180Y25400D02*
Y29600D01*
X50000Y26100D01*
X51820Y29600D01*
Y25400D01*
G01X53530D02*
Y29600D01*
G01X56470D02*
Y25400D01*
G01Y27500D02*
X53530D01*
G01X58670Y27150D02*
X59160Y27640D01*
X59580Y27920D01*
X60140Y28060D01*
X60630Y27920D01*
X60980Y27640D01*
X61260Y27220D01*
X61330Y26730D01*
X61260Y26310D01*
X60980Y25890D01*
X60560Y25540D01*
X60070Y25400D01*
X59510Y25540D01*
X59020Y25960D01*
X58740Y26590D01*
X58670Y27290D01*
X58810Y28200D01*
X59020Y28690D01*
X59370Y29180D01*
X59860Y29530D01*
X60350Y29600D01*
X60840Y29460D01*
X61190Y29110D01*
G01X30100Y25680D02*
X25900D01*
X29400Y27500D01*
X25900Y29320D01*
X30100D01*
G01Y31030D02*
X25900D01*
G01Y33970D02*
X30100D01*
G01X28000D02*
Y31030D01*
G01X30100Y37500D02*
X25900D01*
X26740Y36660D01*
G01X30100D02*
Y38340D01*
G01Y42500D02*
X25900D01*
X26740Y41660D01*
G01X30100D02*
Y43340D01*
G01X45680Y65900D02*
Y70100D01*
X47500Y66600D01*
X49320Y70100D01*
Y65900D01*
G01X51030D02*
Y70100D01*
G01X53970D02*
Y65900D01*
G01Y68000D02*
X51030D01*
G01X56170Y69400D02*
X56590Y69820D01*
X57080Y70030D01*
X57640Y70100D01*
X58340Y69960D01*
X58830Y69610D01*
X58970Y69190D01*
X58900Y68770D01*
X58620Y68420D01*
X57220Y67720D01*
X56590Y67230D01*
X56170Y66530D01*
X56030Y65900D01*
X58970D01*
G01X46750Y86400D02*
X48500Y90600D01*
X50250Y86400D01*
G01X49620Y87870D02*
X47380D01*
G01X51750Y86400D02*
X53500Y90600D01*
X55250Y86400D01*
G01X54620Y87870D02*
X52380D01*
G01X57590Y87800D02*
X59410D01*
M02*
