G04 ================== begin FILE IDENTIFICATION RECORD ==================*
G04 Layout Name:  BRD30-00034-01.brd*
G04 Film Name:    GBR30-00034-01-L2_BOTTOM*
G04 File Format:  Gerber RS274X*
G04 File Origin:  Cadence Allegro 17.2-P019*
G04 Origin Date:  Mon Aug 15 13:53:33 2022*
G04 *
G04 Layer:  BOARD GEOMETRY/OUTLINE*
G04 Layer:  ETCH/BOTTOM*
G04 Layer:  PIN/BOTTOM*
G04 Layer:  VIA CLASS/BOTTOM*
G04 *
G04 Offset:    (0.000 0.000)*
G04 Mirror:    No*
G04 Mode:      Positive*
G04 Rotation:  0*
G04 FullContactRelief:  No*
G04 UndefLineWidth:     6.000*
G04 ================== end FILE IDENTIFICATION RECORD ====================*
%FSLAX25Y25*MOIN*%
%IR0*IPPOS*OFA0.00000B0.00000*MIA0B0*SFA1.00000B1.00000*%
%ADD11C,.08*%
%ADD10C,.093*%
%ADD12C,.008*%
%ADD13C,.006*%
%ADD14C,.133402*%
G75*
%LPD*%
G75*
G36*
G01X-30670Y112286D02*
G02X-30223Y112626I396J-57D01*
G03X-28280Y112500I1943J14874D01*
G01X30000D01*
G02X82500Y60000I0J-52500D01*
G02X59818Y16789I-52500J0D01*
G02X59207Y17004I-227J329D01*
G03X52500Y22000I-6707J-2004D01*
G03X45500Y15000I0J-7000D01*
G03X46872Y10837I7000J0D01*
G02X46678Y10220I-322J-238D01*
G02X30000Y7500I-16678J49781D01*
G01X15811D01*
G03X9396Y6059I0J-15000D01*
G03X-9396I-9396J-6059D01*
G03X-15811Y7500I-6415J-13559D01*
G01X-30000D01*
G02X-46678Y10220I0J52500D01*
G02X-46872Y10837I127J379D01*
G03X-45500Y15000I-5628J4163D01*
G03X-52500Y22000I-7000J0D01*
G03X-59207Y17004I0J-7000D01*
G02X-59818Y16789I-383J115D01*
G02X-47917Y109348I29818J43211D01*
G03X-46452Y109970I-5119J14099D01*
G02X-45919Y109790I176J-359D01*
G03X-30670Y112286I7233J3641D01*
G37*
%LPC*%
G75*
G36*
G01X-17000Y13725D02*
G02X-22500Y10829I-5500J3775D01*
G02Y24171I0J6671D01*
G02X-17000Y21275I0J-6671D01*
G02X-16500Y21308I499J-3775D01*
G02X-15557Y21189I0J-3808D01*
G02X-10000Y24170I5557J-3689D01*
G02Y10830I0J-6670D01*
G02X-15557Y13811I0J6670D01*
G02X-16500Y13692I-943J3689D01*
G02X-17000Y13725I0J3808D01*
G37*
G54D14*
X52500Y78000D03*
%LPD*%
G75*
G54D10*
X-52500Y15000D03*
X52500D03*
G54D11*
X-40000Y28000D03*
X-52500Y78000D03*
X-38686Y113431D03*
X-22500Y17500D03*
X-10000D03*
X0Y0D03*
X10000Y17500D03*
X22500D03*
X0Y95000D03*
X40300Y27957D03*
X52500Y78000D03*
G54D12*
G01X37738Y-19258D02*
X37458Y-19048D01*
X37248Y-18698D01*
X37108Y-18208D01*
X37248Y-17788D01*
X37528Y-17508D01*
X38018Y-17298D01*
X39908D01*
Y-21498D01*
X37598D01*
X37108Y-21218D01*
X36828Y-20798D01*
X36688Y-20308D01*
X36828Y-19818D01*
X37248Y-19398D01*
X37738Y-19258D01*
X39908D01*
G01X33298Y-21498D02*
X33858Y-21428D01*
X34348Y-21148D01*
X34768Y-20728D01*
X35048Y-20238D01*
X35188Y-19678D01*
Y-19118D01*
X35048Y-18558D01*
X34768Y-18068D01*
X34348Y-17648D01*
X33858Y-17368D01*
X33298Y-17298D01*
X32738Y-17368D01*
X32248Y-17648D01*
X31828Y-18068D01*
X31548Y-18558D01*
X31408Y-19118D01*
Y-19678D01*
X31548Y-20238D01*
X31828Y-20728D01*
X32248Y-21148D01*
X32738Y-21428D01*
X33298Y-21498D01*
G01X28298Y-17298D02*
Y-21498D01*
G01X29908Y-17298D02*
X26688D01*
G01X23298D02*
Y-21498D01*
G01X24908Y-17298D02*
X21688D01*
G01X18298Y-21498D02*
X18858Y-21428D01*
X19348Y-21148D01*
X19768Y-20728D01*
X20048Y-20238D01*
X20188Y-19678D01*
Y-19118D01*
X20048Y-18558D01*
X19768Y-18068D01*
X19348Y-17648D01*
X18858Y-17368D01*
X18298Y-17298D01*
X17738Y-17368D01*
X17248Y-17648D01*
X16828Y-18068D01*
X16548Y-18558D01*
X16408Y-19118D01*
Y-19678D01*
X16548Y-20238D01*
X16828Y-20728D01*
X17248Y-21148D01*
X17738Y-21428D01*
X18298Y-21498D01*
G01X15118D02*
Y-17298D01*
X13298Y-20798D01*
X11478Y-17298D01*
Y-21498D01*
G01X4698Y-17298D02*
Y-21498D01*
X1898D01*
G01X48D02*
X-1702Y-17298D01*
X-3452Y-21498D01*
G01X-2822Y-20028D02*
X-582D01*
G01X-6702Y-21498D02*
Y-19608D01*
X-5302Y-17298D01*
G01X-8102D02*
X-6702Y-19608D01*
G01X-13102Y-21498D02*
X-10302D01*
Y-17298D01*
X-13102D01*
G01X-11982Y-19328D02*
X-10302D01*
G01X-15302Y-21498D02*
Y-17298D01*
X-17052D01*
X-17612Y-17508D01*
X-17962Y-17788D01*
X-18102Y-18348D01*
X-17962Y-18908D01*
X-17542Y-19258D01*
X-17052Y-19468D01*
X-15302D01*
G01X-17052D02*
X-18102Y-21498D01*
G01X-21352Y-22898D02*
X-20652Y-22198D01*
X-20302Y-21498D01*
Y-18698D01*
X-20652Y-17998D01*
X-21352Y-17298D01*
G01X-25302D02*
Y-21498D01*
X-28102D01*
G01X-30372Y-17998D02*
X-30792Y-17578D01*
X-31282Y-17368D01*
X-31842Y-17298D01*
X-32542Y-17438D01*
X-33032Y-17788D01*
X-33172Y-18208D01*
X-33102Y-18628D01*
X-32822Y-18978D01*
X-31422Y-19678D01*
X-30792Y-20168D01*
X-30372Y-20868D01*
X-30232Y-21498D01*
X-33172D01*
G01X-37052Y-22898D02*
X-37752Y-22198D01*
X-38102Y-21498D01*
Y-18698D01*
X-37752Y-17998D01*
X-37052Y-17298D01*
G54D13*
G01X-34226Y119461D02*
G03X-28279Y117500I5947J8039D01*
G01X30000D01*
G02Y2500I0J-57500D01*
G01X15811D01*
G03X6776Y-3214I0J-10000D01*
G02X-6776I-6776J3214D01*
G03X-15811Y2500I-9035J-4286D01*
G01X-30000D01*
G02X-49624Y114048I0J57500D01*
G03X-44836Y117724I-3413J9400D01*
G02X-34226Y119461I6150J-4293D01*
M02*
