G04 ================== begin FILE IDENTIFICATION RECORD ==================*
G04 Layout Name:  BRD30-00034-01.brd*
G04 Film Name:    GBR30-00034-01-FAB*
G04 File Format:  Gerber RS274X*
G04 File Origin:  Cadence Allegro 17.2-P019*
G04 Origin Date:  Mon Aug 15 13:53:33 2022*
G04 *
G04 Layer:  MANUFACTURING/XSECTION_CHART*
G04 Layer:  MANUFACTURING/NCDRILL_LEGEND*
G04 Layer:  MANUFACTURING/NCDRILL_FIGURE*
G04 Layer:  MANUFACTURING/NO_PROBE_TOP*
G04 Layer:  MANUFACTURING/NCLEGEND-1-2*
G04 Layer:  DRAWING FORMAT/FABNOTES*
G04 Layer:  BOARD GEOMETRY/OUTLINE*
G04 Layer:  BOARD GEOMETRY/DIMENSION*
G04 *
G04 Offset:    (0.000 0.000)*
G04 Mirror:    No*
G04 Mode:      Positive*
G04 Rotation:  0*
G04 FullContactRelief:  No*
G04 UndefLineWidth:     6.000*
G04 ================== end FILE IDENTIFICATION RECORD ====================*
%FSLAX25Y25*MOIN*%
%IR0*IPPOS*OFA0.00000B0.00000*MIA0B0*SFA1.00000B1.00000*%
%AMMACRO10*
1,1,.006,.048,0.0*
20,1,.006,.048,0.0,-.048,0.0,0.0*
1,1,.006,-.048,0.0*
1,1,.006,0.0,.048*
20,1,.006,0.0,.048,0.0,-.048,0.0*
1,1,.006,0.0,-.048*
1,1,.006,.0128,0.0*
20,1,.006,.0128,0.0,.0128,.031999,0.0*
1,1,.006,.0128,.031999*
1,1,.006,.0128,.0256*
20,1,.006,.0128,.0256,.016799,.0288,0.0*
1,1,.006,.016799,.0288*
20,1,.006,.016799,.0288,.0208,.031199,0.0*
1,1,.006,.0208,.031199*
20,1,.006,.0208,.031199,.0264,.031999,0.0*
1,1,.006,.0264,.031999*
20,1,.006,.0264,.031999,.030399,.031199,0.0*
1,1,.006,.030399,.031199*
20,1,.006,.030399,.031199,.0352,.0288,0.0*
1,1,.006,.0352,.0288*
%
%ADD10MACRO10*%
%AMMACRO11*
1,1,.006,.025,0.0*
20,1,.006,.025,0.0,.02462,-.004341,0.0*
1,1,.006,.02462,-.004341*
20,1,.006,.02462,-.004341,.023492,-.008551,0.0*
1,1,.006,.023492,-.008551*
20,1,.006,.023492,-.008551,.021651,-.0125,0.0*
1,1,.006,.021651,-.0125*
20,1,.006,.021651,-.0125,.019151,-.01607,0.0*
1,1,.006,.019151,-.01607*
20,1,.006,.019151,-.01607,.01607,-.019151,0.0*
1,1,.006,.01607,-.019151*
20,1,.006,.01607,-.019151,.0125,-.021651,0.0*
1,1,.006,.0125,-.021651*
20,1,.006,.0125,-.021651,.008551,-.023492,0.0*
1,1,.006,.008551,-.023492*
20,1,.006,.008551,-.023492,.004341,-.02462,0.0*
1,1,.006,.004341,-.02462*
20,1,.006,.004341,-.02462,0.0,-.025,0.0*
1,1,.006,0.0,-.025*
20,1,.006,0.0,-.025,-.004341,-.02462,0.0*
1,1,.006,-.004341,-.02462*
20,1,.006,-.004341,-.02462,-.008551,-.023492,0.0*
1,1,.006,-.008551,-.023492*
20,1,.006,-.008551,-.023492,-.0125,-.021651,0.0*
1,1,.006,-.0125,-.021651*
20,1,.006,-.0125,-.021651,-.01607,-.019151,0.0*
1,1,.006,-.01607,-.019151*
20,1,.006,-.01607,-.019151,-.019151,-.01607,0.0*
1,1,.006,-.019151,-.01607*
20,1,.006,-.019151,-.01607,-.021651,-.0125,0.0*
1,1,.006,-.021651,-.0125*
20,1,.006,-.021651,-.0125,-.023492,-.008551,0.0*
1,1,.006,-.023492,-.008551*
20,1,.006,-.023492,-.008551,-.02462,-.004341,0.0*
1,1,.006,-.02462,-.004341*
20,1,.006,-.02462,-.004341,-.025,0.0,0.0*
1,1,.006,-.025,0.0*
20,1,.006,-.025,0.0,-.02462,.004341,0.0*
1,1,.006,-.02462,.004341*
20,1,.006,-.02462,.004341,-.023492,.008551,0.0*
1,1,.006,-.023492,.008551*
20,1,.006,-.023492,.008551,-.021651,.0125,0.0*
1,1,.006,-.021651,.0125*
20,1,.006,-.021651,.0125,-.019151,.01607,0.0*
1,1,.006,-.019151,.01607*
20,1,.006,-.019151,.01607,-.01607,.019151,0.0*
1,1,.006,-.01607,.019151*
20,1,.006,-.01607,.019151,-.0125,.021651,0.0*
1,1,.006,-.0125,.021651*
20,1,.006,-.0125,.021651,-.008551,.023492,0.0*
1,1,.006,-.008551,.023492*
20,1,.006,-.008551,.023492,-.004341,.02462,0.0*
1,1,.006,-.004341,.02462*
20,1,.006,-.004341,.02462,0.0,.025,0.0*
1,1,.006,0.0,.025*
20,1,.006,0.0,.025,.004341,.02462,0.0*
1,1,.006,.004341,.02462*
20,1,.006,.004341,.02462,.008551,.023492,0.0*
1,1,.006,.008551,.023492*
20,1,.006,.008551,.023492,.0125,.021651,0.0*
1,1,.006,.0125,.021651*
20,1,.006,.0125,.021651,.01607,.019151,0.0*
1,1,.006,.01607,.019151*
20,1,.006,.01607,.019151,.019151,.01607,0.0*
1,1,.006,.019151,.01607*
20,1,.006,.019151,.01607,.021651,.0125,0.0*
1,1,.006,.021651,.0125*
20,1,.006,.021651,.0125,.023492,.008551,0.0*
1,1,.006,.023492,.008551*
20,1,.006,.023492,.008551,.02462,.004341,0.0*
1,1,.006,.02462,.004341*
20,1,.006,.02462,.004341,.025,0.0,0.0*
1,1,.006,.025,0.0*
1,1,.006,-.007084,-.0125*
20,1,.006,-.007084,-.0125,-.007084,.004166,0.0*
1,1,.006,-.007084,.004166*
1,1,.006,-.007084,0.0*
20,1,.006,-.007084,0.0,-.005417,.002083,0.0*
1,1,.006,-.005417,.002083*
20,1,.006,-.005417,.002083,-.002916,.00375,0.0*
1,1,.006,-.002916,.00375*
20,1,.006,-.002916,.00375,.000417,.004166,0.0*
1,1,.006,.000417,.004166*
20,1,.006,.000417,.004166,.003333,.00375,0.0*
1,1,.006,.003333,.00375*
20,1,.006,.003333,.00375,.005833,.002083,0.0*
1,1,.006,.005833,.002083*
20,1,.006,.005833,.002083,.007084,-.000834,0.0*
1,1,.006,.007084,-.000834*
20,1,.006,.007084,-.000834,.007084,-.0125,0.0*
1,1,.006,.007084,-.0125*
%
%ADD11MACRO11*%
%ADD12C,.006*%
G75*
%LPD*%
G75*
G36*
G01X-299150Y920518D02*
Y911974D01*
X-294150D01*
Y545832D01*
X-299150D01*
Y537289D01*
X-269150D01*
Y545832D01*
X-274150D01*
Y911974D01*
X-269150D01*
Y920518D01*
X-299150D01*
G37*
G36*
G01X-339150Y537289D02*
Y545833D01*
X-219150D01*
Y537289D01*
X-339150D01*
G37*
G36*
G01Y911974D02*
Y920518D01*
X-219150D01*
Y911974D01*
X-339150D01*
G37*
G54D10*
X-402052Y286902D03*
X-52500Y15000D03*
X52500D03*
G54D11*
X-402052Y311902D03*
X-40000Y28000D03*
X-52500Y78000D03*
X-38686Y113431D03*
X-22500Y17500D03*
X-10000D03*
X0Y0D03*
X10000Y17500D03*
X22500D03*
X0Y95000D03*
X40300Y27957D03*
X52500Y78000D03*
G54D12*
G01X-447002Y274402D02*
Y399402D01*
X250498D01*
Y274402D01*
X-447002D01*
G01Y299402D02*
X250498D01*
G01X-435998Y330652D02*
Y343152D01*
X-430107D01*
G01X-432277Y337111D02*
X-435998D01*
G01X-422512Y343152D02*
X-418793D01*
G01X-420652D02*
Y330652D01*
G01X-422512D02*
X-418793D01*
G01X-407322Y336902D02*
X-404222D01*
Y333152D01*
X-405152Y331902D01*
X-406237Y331069D01*
X-407787Y330652D01*
X-409337Y331069D01*
X-410422Y331902D01*
X-411352Y333152D01*
X-411973Y334611D01*
X-412282Y336277D01*
Y337736D01*
X-411973Y338986D01*
X-411352Y340444D01*
X-410422Y341694D01*
X-409493Y342527D01*
X-408253Y343152D01*
X-407168D01*
X-405928Y342736D01*
X-404997Y341902D01*
G01X-399262Y343152D02*
Y334194D01*
X-398642Y332319D01*
X-397402Y331069D01*
X-395853Y330652D01*
X-394302Y331069D01*
X-393062Y332319D01*
X-392442Y334194D01*
Y343152D01*
G01X-386552Y330652D02*
Y343152D01*
X-382677D01*
X-381437Y342527D01*
X-380662Y341694D01*
X-380352Y340027D01*
X-380662Y338361D01*
X-381592Y337319D01*
X-382677Y336694D01*
X-386552D01*
G01X-382677D02*
X-380352Y330652D01*
G01X-367952D02*
X-374152D01*
Y343152D01*
X-367952D01*
G01X-370432Y337111D02*
X-374152D01*
G01X-447002Y324402D02*
X250498D01*
G01X-447002Y349402D02*
X250498D01*
G01X-447002Y374402D02*
X250498D01*
G01X-437560Y466666D02*
Y479166D01*
X-434460D01*
X-433220Y478541D01*
X-432290Y477708D01*
X-431515Y476458D01*
X-430895Y475000D01*
X-430740Y472916D01*
X-430895Y470833D01*
X-431515Y469375D01*
X-432290Y468124D01*
X-433220Y467291D01*
X-434460Y466666D01*
X-437560D01*
G01X-418650D02*
X-424850D01*
Y479166D01*
X-418650D01*
G01X-421130Y473125D02*
X-424850D01*
G01X-412605Y468333D02*
X-411365Y467291D01*
X-409970Y466666D01*
X-408730D01*
X-407490Y467291D01*
X-406560Y468333D01*
X-406095Y469792D01*
X-406405Y471250D01*
X-407180Y472500D01*
X-408575Y473333D01*
X-410435Y473750D01*
X-411520Y474583D01*
X-411985Y476041D01*
X-411675Y477500D01*
X-410900Y478541D01*
X-409815Y479166D01*
X-408730D01*
X-407645Y478750D01*
X-406715Y477708D01*
G01X-398810Y479166D02*
X-395090D01*
G01X-396950D02*
Y466666D01*
G01X-398810D02*
X-395090D01*
G01X-383620Y472916D02*
X-380520D01*
Y469166D01*
X-381450Y467916D01*
X-382535Y467083D01*
X-384085Y466666D01*
X-385635Y467083D01*
X-386720Y467916D01*
X-387650Y469166D01*
X-388270Y470625D01*
X-388580Y472291D01*
Y473750D01*
X-388270Y475000D01*
X-387650Y476458D01*
X-386720Y477708D01*
X-385790Y478541D01*
X-384550Y479166D01*
X-383465D01*
X-382225Y478750D01*
X-381295Y477916D01*
G01X-375715Y466666D02*
Y479166D01*
X-368585Y466666D01*
Y479166D01*
G01X-343940Y478125D02*
X-344870Y478750D01*
X-345955Y479166D01*
X-347195D01*
X-348590Y478541D01*
X-349675Y477500D01*
X-350450Y476250D01*
X-351070Y474166D01*
X-351225Y472291D01*
X-350915Y470416D01*
X-350450Y469166D01*
X-349520Y467916D01*
X-348435Y467083D01*
X-347350Y466666D01*
X-346265D01*
X-345180Y467083D01*
X-344250Y467708D01*
X-343475Y468541D01*
G01X-338050Y466666D02*
Y479166D01*
X-334175D01*
X-332935Y478541D01*
X-332160Y477708D01*
X-331850Y476041D01*
X-332160Y474375D01*
X-333090Y473333D01*
X-334175Y472708D01*
X-338050D01*
G01X-334175D02*
X-331850Y466666D01*
G01X-322550D02*
X-323790Y466875D01*
X-324875Y467708D01*
X-325805Y468958D01*
X-326425Y470416D01*
X-326735Y472083D01*
Y473750D01*
X-326425Y475417D01*
X-325805Y476875D01*
X-324875Y478125D01*
X-323790Y478958D01*
X-322550Y479166D01*
X-321310Y478958D01*
X-320225Y478125D01*
X-319295Y476875D01*
X-318675Y475417D01*
X-318365Y473750D01*
Y472083D01*
X-318675Y470416D01*
X-319295Y468958D01*
X-320225Y467708D01*
X-321310Y466875D01*
X-322550Y466666D01*
G01X-313405Y468333D02*
X-312165Y467291D01*
X-310770Y466666D01*
X-309530D01*
X-308290Y467291D01*
X-307360Y468333D01*
X-306895Y469792D01*
X-307205Y471250D01*
X-307980Y472500D01*
X-309375Y473333D01*
X-311235Y473750D01*
X-312320Y474583D01*
X-312785Y476041D01*
X-312475Y477500D01*
X-311700Y478541D01*
X-310615Y479166D01*
X-309530D01*
X-308445Y478750D01*
X-307515Y477708D01*
G01X-301005Y468333D02*
X-299765Y467291D01*
X-298370Y466666D01*
X-297130D01*
X-295890Y467291D01*
X-294960Y468333D01*
X-294495Y469792D01*
X-294805Y471250D01*
X-295580Y472500D01*
X-296975Y473333D01*
X-298835Y473750D01*
X-299920Y474583D01*
X-300385Y476041D01*
X-300075Y477500D01*
X-299300Y478541D01*
X-298215Y479166D01*
X-297130D01*
X-296045Y478750D01*
X-295115Y477708D01*
G01X-276205Y468333D02*
X-274965Y467291D01*
X-273570Y466666D01*
X-272330D01*
X-271090Y467291D01*
X-270160Y468333D01*
X-269695Y469792D01*
X-270005Y471250D01*
X-270780Y472500D01*
X-272175Y473333D01*
X-274035Y473750D01*
X-275120Y474583D01*
X-275585Y476041D01*
X-275275Y477500D01*
X-274500Y478541D01*
X-273415Y479166D01*
X-272330D01*
X-271245Y478750D01*
X-270315Y477708D01*
G01X-257450Y466666D02*
X-263650D01*
Y479166D01*
X-257450D01*
G01X-259930Y473125D02*
X-263650D01*
G01X-244740Y478125D02*
X-245670Y478750D01*
X-246755Y479166D01*
X-247995D01*
X-249390Y478541D01*
X-250475Y477500D01*
X-251250Y476250D01*
X-251870Y474166D01*
X-252025Y472291D01*
X-251715Y470416D01*
X-251250Y469166D01*
X-250320Y467916D01*
X-249235Y467083D01*
X-248150Y466666D01*
X-247065D01*
X-245980Y467083D01*
X-245050Y467708D01*
X-244275Y468541D01*
G01X-235750Y479166D02*
Y466666D01*
G01X-239315Y479166D02*
X-232185D01*
G01X-225210D02*
X-221490D01*
G01X-223350D02*
Y466666D01*
G01X-225210D02*
X-221490D01*
G01X-210950D02*
X-212190Y466875D01*
X-213275Y467708D01*
X-214205Y468958D01*
X-214825Y470416D01*
X-215135Y472083D01*
Y473750D01*
X-214825Y475417D01*
X-214205Y476875D01*
X-213275Y478125D01*
X-212190Y478958D01*
X-210950Y479166D01*
X-209710Y478958D01*
X-208625Y478125D01*
X-207695Y476875D01*
X-207075Y475417D01*
X-206765Y473750D01*
Y472083D01*
X-207075Y470416D01*
X-207695Y468958D01*
X-208625Y467708D01*
X-209710Y466875D01*
X-210950Y466666D01*
G01X-202115D02*
Y479166D01*
X-194985Y466666D01*
Y479166D01*
G01X-170340Y478125D02*
X-171270Y478750D01*
X-172355Y479166D01*
X-173595D01*
X-174990Y478541D01*
X-176075Y477500D01*
X-176850Y476250D01*
X-177470Y474166D01*
X-177625Y472291D01*
X-177315Y470416D01*
X-176850Y469166D01*
X-175920Y467916D01*
X-174835Y467083D01*
X-173750Y466666D01*
X-172665D01*
X-171580Y467083D01*
X-170650Y467708D01*
X-169875Y468541D01*
G01X-164605Y466666D02*
Y479166D01*
G01X-158095D02*
Y466666D01*
G01Y472916D02*
X-164605D01*
G01X-152825Y466666D02*
X-148950Y479166D01*
X-145075Y466666D01*
G01X-146470Y471041D02*
X-151430D01*
G01X-139650Y466666D02*
Y479166D01*
X-135775D01*
X-134535Y478541D01*
X-133760Y477708D01*
X-133450Y476041D01*
X-133760Y474375D01*
X-134690Y473333D01*
X-135775Y472708D01*
X-139650D01*
G01X-135775D02*
X-133450Y466666D01*
G01X-124150Y479166D02*
Y466666D01*
G01X-127715Y479166D02*
X-120585D01*
G01X-445000Y462500D02*
X-435700D01*
G01X-432600D02*
X-423300D01*
G01X-420200D02*
X-410900D01*
G01X-407800D02*
X-398500D01*
G01X-395400D02*
X-386100D01*
G01X-383000D02*
X-373700D01*
G01X-370600D02*
X-361300D01*
G01X-358200D02*
X-348900D01*
G01X-345800D02*
X-336500D01*
G01X-333400D02*
X-324100D01*
G01X-321000D02*
X-311700D01*
G01X-308600D02*
X-299300D01*
G01X-296200D02*
X-286900D01*
G01X-283800D02*
X-274500D01*
G01X-271400D02*
X-262100D01*
G01X-259000D02*
X-249700D01*
G01X-246600D02*
X-237300D01*
G01X-234200D02*
X-224900D01*
G01X-221800D02*
X-212500D01*
G01X-209400D02*
X-200100D01*
G01X-197000D02*
X-187700D01*
G01X-184600D02*
X-175300D01*
G01X-172200D02*
X-162900D01*
G01X-159800D02*
X-150500D01*
G01X-147400D02*
X-138100D01*
G01X-135000D02*
X-125700D01*
G01X-122600D02*
X-113300D01*
G01X-415550Y454166D02*
Y441666D01*
G01X-419115Y454166D02*
X-411985D01*
G01X-403150Y441666D02*
X-404390Y441875D01*
X-405475Y442708D01*
X-406405Y443958D01*
X-407025Y445416D01*
X-407335Y447083D01*
Y448750D01*
X-407025Y450417D01*
X-406405Y451875D01*
X-405475Y453125D01*
X-404390Y453958D01*
X-403150Y454166D01*
X-401910Y453958D01*
X-400825Y453125D01*
X-399895Y451875D01*
X-399275Y450417D01*
X-398965Y448750D01*
Y447083D01*
X-399275Y445416D01*
X-399895Y443958D01*
X-400825Y442708D01*
X-401910Y441875D01*
X-403150Y441666D01*
G01X-390750Y454166D02*
Y441666D01*
G01X-394315Y454166D02*
X-387185D01*
G01X-382225Y441666D02*
X-378350Y454166D01*
X-374475Y441666D01*
G01X-375870Y446041D02*
X-380830D01*
G01X-369050Y454166D02*
Y441666D01*
X-362850D01*
G01X-341150Y454166D02*
Y441666D01*
G01X-344715Y454166D02*
X-337585D01*
G01X-332005Y441666D02*
Y454166D01*
G01X-325495D02*
Y441666D01*
G01Y447916D02*
X-332005D01*
G01X-318210Y454166D02*
X-314490D01*
G01X-316350D02*
Y441666D01*
G01X-318210D02*
X-314490D01*
G01X-300540Y453125D02*
X-301470Y453750D01*
X-302555Y454166D01*
X-303795D01*
X-305190Y453541D01*
X-306275Y452500D01*
X-307050Y451250D01*
X-307670Y449166D01*
X-307825Y447291D01*
X-307515Y445416D01*
X-307050Y444166D01*
X-306120Y442916D01*
X-305035Y442083D01*
X-303950Y441666D01*
X-302865D01*
X-301780Y442083D01*
X-300850Y442708D01*
X-300075Y443541D01*
G01X-294960Y441666D02*
Y454166D01*
G01X-289070D02*
X-294960Y446458D01*
G01X-288140Y441666D02*
X-292325Y450000D01*
G01X-282715Y441666D02*
Y454166D01*
X-275585Y441666D01*
Y454166D01*
G01X-263650Y441666D02*
X-269850D01*
Y454166D01*
X-263650D01*
G01X-266130Y448125D02*
X-269850D01*
G01X-257605Y443333D02*
X-256365Y442291D01*
X-254970Y441666D01*
X-253730D01*
X-252490Y442291D01*
X-251560Y443333D01*
X-251095Y444792D01*
X-251405Y446250D01*
X-252180Y447500D01*
X-253575Y448333D01*
X-255435Y448750D01*
X-256520Y449583D01*
X-256985Y451041D01*
X-256675Y452500D01*
X-255900Y453541D01*
X-254815Y454166D01*
X-253730D01*
X-252645Y453750D01*
X-251715Y452708D01*
G01X-245205Y443333D02*
X-243965Y442291D01*
X-242570Y441666D01*
X-241330D01*
X-240090Y442291D01*
X-239160Y443333D01*
X-238695Y444792D01*
X-239005Y446250D01*
X-239780Y447500D01*
X-241175Y448333D01*
X-243035Y448750D01*
X-244120Y449583D01*
X-244585Y451041D01*
X-244275Y452500D01*
X-243500Y453541D01*
X-242415Y454166D01*
X-241330D01*
X-240245Y453750D01*
X-239315Y452708D01*
G01X-217150Y441666D02*
Y454166D01*
X-219010Y451667D01*
G01Y441666D02*
X-215290D01*
G01X-204750Y441250D02*
X-205060Y441458D01*
Y441875D01*
X-204750Y442083D01*
X-204440Y441875D01*
Y441458D01*
X-204750Y441250D01*
G01X-195295Y446874D02*
X-194210Y448333D01*
X-193280Y449166D01*
X-192040Y449583D01*
X-190955Y449166D01*
X-190180Y448333D01*
X-189560Y447083D01*
X-189405Y445625D01*
X-189560Y444375D01*
X-190180Y443124D01*
X-191110Y442083D01*
X-192195Y441666D01*
X-193435Y442083D01*
X-194520Y443333D01*
X-195140Y445208D01*
X-195295Y447291D01*
X-194985Y450000D01*
X-194520Y451458D01*
X-193745Y452916D01*
X-192660Y453958D01*
X-191575Y454166D01*
X-190490Y453750D01*
X-189715Y452708D01*
G01X-179950Y441666D02*
Y454166D01*
X-181810Y451667D01*
G01Y441666D02*
X-178090D01*
G01X-159180D02*
Y454166D01*
X-155150Y443750D01*
X-151120Y454166D01*
Y441666D01*
G01X-146780D02*
Y454166D01*
X-142750Y443750D01*
X-138720Y454166D01*
Y441666D01*
G01X-357102Y349402D02*
Y274402D01*
G01X-333698Y330652D02*
Y343152D01*
X-327807D01*
G01X-329977Y337111D02*
X-333698D01*
G01X-320212Y343152D02*
X-316493D01*
G01X-318352D02*
Y330652D01*
G01X-320212D02*
X-316493D01*
G01X-309517D02*
Y343152D01*
X-302388Y330652D01*
Y343152D01*
G01X-295412D02*
X-291693D01*
G01X-293552D02*
Y330652D01*
G01X-295412D02*
X-291693D01*
G01X-284407Y332319D02*
X-283167Y331277D01*
X-281772Y330652D01*
X-280532D01*
X-279292Y331277D01*
X-278362Y332319D01*
X-277897Y333778D01*
X-278207Y335236D01*
X-278982Y336486D01*
X-280377Y337319D01*
X-282237Y337736D01*
X-283322Y338569D01*
X-283788Y340027D01*
X-283477Y341486D01*
X-282703Y342527D01*
X-281617Y343152D01*
X-280532D01*
X-279447Y342736D01*
X-278517Y341694D01*
G01X-272007Y330652D02*
Y343152D01*
G01X-265497D02*
Y330652D01*
G01Y336902D02*
X-272007D01*
G01X-253252Y330652D02*
X-259452D01*
Y343152D01*
X-253252D01*
G01X-255732Y337111D02*
X-259452D01*
G01X-247362Y330652D02*
Y343152D01*
X-244262D01*
X-243022Y342527D01*
X-242092Y341694D01*
X-241317Y340444D01*
X-240697Y338986D01*
X-240542Y336902D01*
X-240697Y334819D01*
X-241317Y333360D01*
X-242092Y332110D01*
X-243022Y331277D01*
X-244262Y330652D01*
X-247362D01*
G01X-236202Y326486D02*
X-226902D01*
G01X-222407Y332319D02*
X-221167Y331277D01*
X-219772Y330652D01*
X-218532D01*
X-217292Y331277D01*
X-216362Y332319D01*
X-215897Y333778D01*
X-216207Y335236D01*
X-216982Y336486D01*
X-218377Y337319D01*
X-220237Y337736D01*
X-221322Y338569D01*
X-221788Y340027D01*
X-221477Y341486D01*
X-220703Y342527D01*
X-219617Y343152D01*
X-218532D01*
X-217447Y342736D01*
X-216517Y341694D01*
G01X-208612Y343152D02*
X-204893D01*
G01X-206753D02*
Y330652D01*
G01X-208612D02*
X-204893D01*
G01X-197298Y343152D02*
X-191407D01*
X-197298Y330652D01*
X-191407D01*
G01X-178852D02*
X-185052D01*
Y343152D01*
X-178852D01*
G01X-181332Y337111D02*
X-185052D01*
G01X-339150Y532408D02*
Y537289D01*
X-219150D01*
Y532408D01*
X-339150D01*
G01Y545833D02*
Y911974D01*
X-219150D01*
Y545833D01*
X-339150D01*
G01Y920518D02*
Y925399D01*
X-219150D01*
Y920518D01*
X-339150D01*
G01X-284150Y937668D02*
X-296650D01*
X-294150Y935808D01*
G01X-284150D02*
Y939527D01*
G01X-288316Y948053D02*
Y952083D01*
G01X-294567Y959523D02*
X-295816Y960453D01*
X-296442Y961538D01*
X-296650Y962778D01*
X-296233Y964328D01*
X-295192Y965413D01*
X-293942Y965723D01*
X-292691Y965568D01*
X-291650Y964948D01*
X-289567Y961848D01*
X-288108Y960453D01*
X-286025Y959523D01*
X-284150Y959213D01*
Y965723D01*
G01X-273092Y305652D02*
Y318152D01*
X-278828Y309194D01*
X-271077D01*
G01X-262552Y318152D02*
X-263793Y317736D01*
X-264722Y316694D01*
X-265343Y315444D01*
X-265807Y313777D01*
X-265962Y311902D01*
X-265807Y310027D01*
X-265343Y308360D01*
X-264722Y307110D01*
X-263793Y306069D01*
X-262552Y305652D01*
X-261312Y306069D01*
X-260382Y307110D01*
X-259762Y308360D01*
X-259297Y310027D01*
X-259142Y311902D01*
X-259297Y313777D01*
X-259762Y315444D01*
X-260382Y316694D01*
X-261312Y317736D01*
X-262552Y318152D01*
G01X-250152Y305236D02*
X-250462Y305444D01*
Y305861D01*
X-250152Y306069D01*
X-249842Y305861D01*
Y305444D01*
X-250152Y305236D01*
G01X-237753Y318152D02*
X-238993Y317736D01*
X-239922Y316694D01*
X-240543Y315444D01*
X-241007Y313777D01*
X-241162Y311902D01*
X-241007Y310027D01*
X-240543Y308360D01*
X-239922Y307110D01*
X-238993Y306069D01*
X-237753Y305652D01*
X-236512Y306069D01*
X-235582Y307110D01*
X-234962Y308360D01*
X-234497Y310027D01*
X-234342Y311902D01*
X-234497Y313777D01*
X-234962Y315444D01*
X-235582Y316694D01*
X-236512Y317736D01*
X-237753Y318152D01*
G01X-277588Y282110D02*
X-276502Y281069D01*
X-275262Y280652D01*
X-274022Y281069D01*
X-272937Y282319D01*
X-272162Y284194D01*
X-271852Y286069D01*
Y288361D01*
X-272162Y290236D01*
X-272937Y291902D01*
X-273868Y292736D01*
X-274952Y293152D01*
X-276193Y292736D01*
X-277122Y291902D01*
X-277742Y290653D01*
X-278052Y288986D01*
X-277742Y287528D01*
X-276967Y286069D01*
X-276037Y285236D01*
X-274952Y285027D01*
X-273712Y285444D01*
X-272782Y286486D01*
X-271852Y288361D01*
G01X-265962Y283152D02*
X-265033Y281694D01*
X-263793Y280861D01*
X-262397Y280652D01*
X-261157Y280861D01*
X-259917Y281902D01*
X-259142Y283152D01*
X-258988Y284402D01*
X-259297Y285860D01*
X-260382Y286902D01*
X-261468Y287319D01*
X-262862D01*
G01X-261468D02*
X-260537Y287944D01*
X-259762Y288986D01*
X-259452Y290236D01*
X-259762Y291486D01*
X-260537Y292527D01*
X-261932Y293152D01*
X-263327Y292944D01*
X-264722Y292111D01*
G01X-250152Y280236D02*
X-250462Y280444D01*
Y280861D01*
X-250152Y281069D01*
X-249842Y280861D01*
Y280444D01*
X-250152Y280236D01*
G01X-237753Y293152D02*
X-238993Y292736D01*
X-239922Y291694D01*
X-240543Y290444D01*
X-241007Y288777D01*
X-241162Y286902D01*
X-241007Y285027D01*
X-240543Y283360D01*
X-239922Y282110D01*
X-238993Y281069D01*
X-237753Y280652D01*
X-236512Y281069D01*
X-235582Y282110D01*
X-234962Y283360D01*
X-234497Y285027D01*
X-234342Y286902D01*
X-234497Y288777D01*
X-234962Y290444D01*
X-235582Y291694D01*
X-236512Y292736D01*
X-237753Y293152D01*
G01X-256662Y380652D02*
Y393152D01*
X-253562D01*
X-252322Y392527D01*
X-251392Y391694D01*
X-250617Y390444D01*
X-249997Y388986D01*
X-249842Y386902D01*
X-249997Y384819D01*
X-250617Y383360D01*
X-251392Y382110D01*
X-252322Y381277D01*
X-253562Y380652D01*
X-256662D01*
G01X-243952D02*
Y393152D01*
X-240077D01*
X-238837Y392527D01*
X-238062Y391694D01*
X-237752Y390027D01*
X-238062Y388361D01*
X-238992Y387319D01*
X-240077Y386694D01*
X-243952D01*
G01X-240077D02*
X-237752Y380652D01*
G01X-230312Y393152D02*
X-226593D01*
G01X-228452D02*
Y380652D01*
G01X-230312D02*
X-226593D01*
G01X-219152Y393152D02*
Y380652D01*
X-212952D01*
G01X-206752Y393152D02*
Y380652D01*
X-200552D01*
G01X-175442Y392111D02*
X-176372Y392736D01*
X-177457Y393152D01*
X-178697D01*
X-180093Y392527D01*
X-181177Y391486D01*
X-181952Y390236D01*
X-182573Y388152D01*
X-182728Y386277D01*
X-182417Y384402D01*
X-181952Y383152D01*
X-181022Y381902D01*
X-179937Y381069D01*
X-178852Y380652D01*
X-177768D01*
X-176682Y381069D01*
X-175752Y381694D01*
X-174977Y382527D01*
G01X-169707Y380652D02*
Y393152D01*
G01X-163197D02*
Y380652D01*
G01Y386902D02*
X-169707D01*
G01X-157928Y380652D02*
X-154052Y393152D01*
X-150177Y380652D01*
G01X-151572Y385027D02*
X-156533D01*
G01X-144752Y380652D02*
Y393152D01*
X-140877D01*
X-139637Y392527D01*
X-138862Y391694D01*
X-138552Y390027D01*
X-138862Y388361D01*
X-139792Y387319D01*
X-140877Y386694D01*
X-144752D01*
G01X-140877D02*
X-138552Y380652D01*
G01X-129253Y393152D02*
Y380652D01*
G01X-132817Y393152D02*
X-125688D01*
G01X-116852Y380236D02*
X-117162Y380444D01*
Y380861D01*
X-116852Y381069D01*
X-116542Y380861D01*
Y380444D01*
X-116852Y380236D01*
G01Y385860D02*
X-117162Y386069D01*
Y386486D01*
X-116852Y386694D01*
X-116542Y386486D01*
Y386069D01*
X-116852Y385860D01*
G01X-92052Y393152D02*
Y380652D01*
G01X-95617Y393152D02*
X-88488D01*
G01X-79652Y380652D02*
X-80893Y380861D01*
X-81977Y381694D01*
X-82907Y382944D01*
X-83528Y384402D01*
X-83838Y386069D01*
Y387736D01*
X-83528Y389402D01*
X-82907Y390861D01*
X-81977Y392111D01*
X-80893Y392944D01*
X-79652Y393152D01*
X-78412Y392944D01*
X-77328Y392111D01*
X-76397Y390861D01*
X-75777Y389402D01*
X-75467Y387736D01*
Y386069D01*
X-75777Y384402D01*
X-76397Y382944D01*
X-77328Y381694D01*
X-78412Y380861D01*
X-79652Y380652D01*
G01X-70352D02*
Y393152D01*
X-66632D01*
X-65392Y392527D01*
X-64462Y391069D01*
X-64152Y389402D01*
X-64462Y387736D01*
X-65237Y386486D01*
X-66632Y385860D01*
X-70352D01*
G01X-42452Y393152D02*
Y380652D01*
G01X-44622Y388986D02*
X-40282D01*
G01X-30052Y380652D02*
X-30982Y380861D01*
X-31912Y381694D01*
X-32533Y383152D01*
X-32842Y384819D01*
X-32533Y386486D01*
X-31912Y387944D01*
X-30982Y388777D01*
X-30052Y388986D01*
X-29122Y388777D01*
X-28192Y387944D01*
X-27573Y386486D01*
X-27417Y384819D01*
X-27573Y383152D01*
X-28192Y381694D01*
X-29122Y380861D01*
X-30052Y380652D01*
G01X-4012Y387319D02*
X-3392Y387944D01*
X-2928Y388986D01*
X-2617Y390444D01*
X-2928Y391694D01*
X-3547Y392527D01*
X-4632Y393152D01*
X-8817D01*
Y380652D01*
X-3702D01*
X-2617Y381486D01*
X-1997Y382736D01*
X-1688Y384194D01*
X-1997Y385652D01*
X-2928Y386902D01*
X-4012Y387319D01*
X-8817D01*
G01X7148Y380652D02*
X5907Y380861D01*
X4823Y381694D01*
X3893Y382944D01*
X3272Y384402D01*
X2962Y386069D01*
Y387736D01*
X3272Y389402D01*
X3893Y390861D01*
X4823Y392111D01*
X5907Y392944D01*
X7148Y393152D01*
X8388Y392944D01*
X9472Y392111D01*
X10403Y390861D01*
X11023Y389402D01*
X11333Y387736D01*
Y386069D01*
X11023Y384402D01*
X10403Y382944D01*
X9472Y381694D01*
X8388Y380861D01*
X7148Y380652D01*
G01X19548Y393152D02*
Y380652D01*
G01X15983Y393152D02*
X23112D01*
G01X31948D02*
Y380652D01*
G01X28383Y393152D02*
X35512D01*
G01X44348Y380652D02*
X43107Y380861D01*
X42023Y381694D01*
X41093Y382944D01*
X40472Y384402D01*
X40162Y386069D01*
Y387736D01*
X40472Y389402D01*
X41093Y390861D01*
X42023Y392111D01*
X43107Y392944D01*
X44348Y393152D01*
X45588Y392944D01*
X46673Y392111D01*
X47603Y390861D01*
X48223Y389402D01*
X48533Y387736D01*
Y386069D01*
X48223Y384402D01*
X47603Y382944D01*
X46673Y381694D01*
X45588Y380861D01*
X44348Y380652D01*
G01X52717D02*
Y393152D01*
X56748Y382736D01*
X60778Y393152D01*
Y380652D01*
G01X-235800Y21750D02*
Y34250D01*
X-231925D01*
X-230685Y33625D01*
X-229910Y32792D01*
X-229600Y31125D01*
X-229910Y29458D01*
X-230840Y28417D01*
X-231925Y27792D01*
X-235800D01*
G01X-231925D02*
X-229600Y21750D01*
G01X-220300D02*
Y34250D01*
X-222160Y31750D01*
G01Y21750D02*
X-218440D01*
G01X-206040D02*
Y34250D01*
X-211775Y25292D01*
X-204025D01*
G01X-195500Y21333D02*
X-195810Y21542D01*
Y21958D01*
X-195500Y22167D01*
X-195190Y21958D01*
Y21542D01*
X-195500Y21333D01*
G01X-186045Y26958D02*
X-184960Y28417D01*
X-184030Y29250D01*
X-182790Y29666D01*
X-181705Y29250D01*
X-180930Y28417D01*
X-180310Y27167D01*
X-180155Y25708D01*
X-180310Y24458D01*
X-180930Y23208D01*
X-181860Y22167D01*
X-182945Y21750D01*
X-184185Y22167D01*
X-185270Y23416D01*
X-185890Y25292D01*
X-186045Y27375D01*
X-185735Y30083D01*
X-185270Y31542D01*
X-184495Y33000D01*
X-183410Y34042D01*
X-182325Y34250D01*
X-181240Y33833D01*
X-180465Y32792D01*
G01X-170700Y34250D02*
X-171940Y33833D01*
X-172870Y32792D01*
X-173490Y31542D01*
X-173955Y29875D01*
X-174110Y28000D01*
X-173955Y26125D01*
X-173490Y24458D01*
X-172870Y23208D01*
X-171940Y22167D01*
X-170700Y21750D01*
X-169460Y22167D01*
X-168530Y23208D01*
X-167910Y24458D01*
X-167445Y26125D01*
X-167290Y28000D01*
X-167445Y29875D01*
X-167910Y31542D01*
X-168530Y32792D01*
X-169460Y33833D01*
X-170700Y34250D01*
G01X-161710Y23625D02*
X-160780Y22583D01*
X-159695Y21958D01*
X-158300Y21750D01*
X-156905Y22167D01*
X-155820Y23000D01*
X-155045Y24458D01*
X-154890Y26125D01*
X-155200Y27792D01*
X-155975Y28833D01*
X-157060Y29666D01*
X-158145Y29875D01*
X-159230Y29666D01*
X-160625Y28833D01*
X-160160Y34250D01*
X-155975D01*
G01X-226128Y355652D02*
X-222252Y368152D01*
X-218377Y355652D01*
G01X-219773Y360027D02*
X-224733D01*
G01X-212952Y368152D02*
Y355652D01*
X-206752D01*
G01X-200552Y368152D02*
Y355652D01*
X-194352D01*
G01X-176062Y368152D02*
Y359194D01*
X-175442Y357319D01*
X-174203Y356069D01*
X-172652Y355652D01*
X-171102Y356069D01*
X-169862Y357319D01*
X-169242Y359194D01*
Y368152D01*
G01X-163817Y355652D02*
Y368152D01*
X-156688Y355652D01*
Y368152D01*
G01X-149712D02*
X-145993D01*
G01X-147852D02*
Y355652D01*
G01X-149712D02*
X-145993D01*
G01X-135453Y368152D02*
Y355652D01*
G01X-139017Y368152D02*
X-131888D01*
G01X-126307Y357319D02*
X-125067Y356277D01*
X-123672Y355652D01*
X-122432D01*
X-121192Y356277D01*
X-120262Y357319D01*
X-119797Y358778D01*
X-120107Y360236D01*
X-120882Y361486D01*
X-122277Y362319D01*
X-124137Y362736D01*
X-125222Y363569D01*
X-125688Y365027D01*
X-125377Y366486D01*
X-124603Y367527D01*
X-123517Y368152D01*
X-122432D01*
X-121347Y367736D01*
X-120417Y366694D01*
G01X-102128Y355652D02*
X-98252Y368152D01*
X-94377Y355652D01*
G01X-95772Y360027D02*
X-100733D01*
G01X-88952Y355652D02*
Y368152D01*
X-85077D01*
X-83837Y367527D01*
X-83062Y366694D01*
X-82752Y365027D01*
X-83062Y363361D01*
X-83992Y362319D01*
X-85077Y361694D01*
X-88952D01*
G01X-85077D02*
X-82752Y355652D01*
G01X-70352D02*
X-76552D01*
Y368152D01*
X-70352D01*
G01X-72832Y362111D02*
X-76552D01*
G01X-50512Y368152D02*
X-46793D01*
G01X-48652D02*
Y355652D01*
G01X-50512D02*
X-46793D01*
G01X-39817D02*
Y368152D01*
X-32688Y355652D01*
Y368152D01*
G01X-15482Y355652D02*
Y368152D01*
X-11452Y357736D01*
X-7422Y368152D01*
Y355652D01*
G01X-912Y368152D02*
X2807D01*
G01X947D02*
Y355652D01*
G01X-912D02*
X2807D01*
G01X10248Y368152D02*
Y355652D01*
X16448D01*
G01X22493Y357319D02*
X23733Y356277D01*
X25128Y355652D01*
X26368D01*
X27608Y356277D01*
X28538Y357319D01*
X29003Y358778D01*
X28693Y360236D01*
X27918Y361486D01*
X26523Y362319D01*
X24663Y362736D01*
X23578Y363569D01*
X23112Y365027D01*
X23423Y366486D01*
X24198Y367527D01*
X25283Y368152D01*
X26368D01*
X27453Y367736D01*
X28383Y366694D01*
G01X-206955Y-1250D02*
X-200445Y11250D01*
G01X-206955D02*
X-200445Y-1250D01*
G01X-194245Y9167D02*
X-193315Y10416D01*
X-192230Y11042D01*
X-190990Y11250D01*
X-189440Y10833D01*
X-188355Y9792D01*
X-188045Y8542D01*
X-188200Y7291D01*
X-188820Y6250D01*
X-191920Y4167D01*
X-193315Y2708D01*
X-194245Y625D01*
X-194555Y-1250D01*
X-188045D01*
G01X-180710Y512083D02*
X-173890Y521250D01*
G01X-177300Y522916D02*
Y510416D01*
G01X-173890Y512083D02*
X-180710Y521250D01*
G01X-181950Y516666D02*
X-172650D01*
G01X-143510Y512500D02*
Y525000D01*
X-140410D01*
X-139170Y524374D01*
X-138240Y523541D01*
X-137465Y522292D01*
X-136845Y520833D01*
X-136690Y518749D01*
X-136845Y516666D01*
X-137465Y515208D01*
X-138240Y513958D01*
X-139170Y513124D01*
X-140410Y512500D01*
X-143510D01*
G01X-129560Y525000D02*
X-125840D01*
G01X-127700D02*
Y512500D01*
G01X-129560D02*
X-125840D01*
G01X-112200D02*
X-118400D01*
Y525000D01*
X-112200D01*
G01X-114680Y518958D02*
X-118400D01*
G01X-106000Y525000D02*
Y512500D01*
X-99800D01*
G01X-87400D02*
X-93600D01*
Y525000D01*
X-87400D01*
G01X-89880Y518958D02*
X-93600D01*
G01X-74690Y523958D02*
X-75620Y524583D01*
X-76705Y525000D01*
X-77945D01*
X-79340Y524374D01*
X-80425Y523333D01*
X-81200Y522083D01*
X-81820Y520000D01*
X-81975Y518124D01*
X-81665Y516250D01*
X-81200Y514999D01*
X-80270Y513749D01*
X-79185Y512916D01*
X-78100Y512500D01*
X-77015D01*
X-75930Y512916D01*
X-75000Y513541D01*
X-74225Y514374D01*
G01X-65700Y525000D02*
Y512500D01*
G01X-69265Y525000D02*
X-62135D01*
G01X-56400Y512500D02*
Y525000D01*
X-52525D01*
X-51285Y524374D01*
X-50510Y523541D01*
X-50200Y521874D01*
X-50510Y520208D01*
X-51440Y519166D01*
X-52525Y518541D01*
X-56400D01*
G01X-52525D02*
X-50200Y512500D01*
G01X-42760Y525000D02*
X-39040D01*
G01X-40900D02*
Y512500D01*
G01X-42760D02*
X-39040D01*
G01X-25090Y523958D02*
X-26020Y524583D01*
X-27105Y525000D01*
X-28345D01*
X-29740Y524374D01*
X-30825Y523333D01*
X-31600Y522083D01*
X-32220Y520000D01*
X-32375Y518124D01*
X-32065Y516250D01*
X-31600Y514999D01*
X-30670Y513749D01*
X-29585Y512916D01*
X-28500Y512500D01*
X-27415D01*
X-26330Y512916D01*
X-25400Y513541D01*
X-24625Y514374D01*
G01X-5715Y516666D02*
X-1685D01*
G01X17845Y514166D02*
X19085Y513124D01*
X20480Y512500D01*
X21720D01*
X22960Y513124D01*
X23890Y514166D01*
X24355Y515625D01*
X24045Y517083D01*
X23270Y518333D01*
X21875Y519166D01*
X20015Y519583D01*
X18930Y520416D01*
X18465Y521874D01*
X18775Y523333D01*
X19550Y524374D01*
X20635Y525000D01*
X21720D01*
X22805Y524583D01*
X23735Y523541D01*
G01X33500Y512500D02*
X32260Y512708D01*
X31175Y513541D01*
X30245Y514791D01*
X29625Y516250D01*
X29315Y517916D01*
Y519583D01*
X29625Y521250D01*
X30245Y522708D01*
X31175Y523958D01*
X32260Y524791D01*
X33500Y525000D01*
X34740Y524791D01*
X35825Y523958D01*
X36755Y522708D01*
X37375Y521250D01*
X37685Y519583D01*
Y517916D01*
X37375Y516250D01*
X36755Y514791D01*
X35825Y513541D01*
X34740Y512708D01*
X33500Y512500D01*
G01X42800Y525000D02*
Y512500D01*
X49000D01*
G01X54890D02*
Y525000D01*
X57990D01*
X59230Y524374D01*
X60160Y523541D01*
X60935Y522292D01*
X61555Y520833D01*
X61710Y518749D01*
X61555Y516666D01*
X60935Y515208D01*
X60160Y513958D01*
X59230Y513124D01*
X57990Y512500D01*
X54890D01*
G01X73800D02*
X67600D01*
Y525000D01*
X73800D01*
G01X71320Y518958D02*
X67600D01*
G01X80000Y512500D02*
Y525000D01*
X83875D01*
X85115Y524374D01*
X85890Y523541D01*
X86200Y521874D01*
X85890Y520208D01*
X84960Y519166D01*
X83875Y518541D01*
X80000D01*
G01X83875D02*
X86200Y512500D01*
G01X91470D02*
Y525000D01*
X95500Y514583D01*
X99530Y525000D01*
Y512500D01*
G01X104025D02*
X107900Y525000D01*
X111775Y512500D01*
G01X110380Y516874D02*
X105420D01*
G01X117045Y514166D02*
X118285Y513124D01*
X119680Y512500D01*
X120920D01*
X122160Y513124D01*
X123090Y514166D01*
X123555Y515625D01*
X123245Y517083D01*
X122470Y518333D01*
X121075Y519166D01*
X119215Y519583D01*
X118130Y520416D01*
X117665Y521874D01*
X117975Y523333D01*
X118750Y524374D01*
X119835Y525000D01*
X120920D01*
X122005Y524583D01*
X122935Y523541D01*
G01X129290Y512500D02*
Y525000D01*
G01X135180D02*
X129290Y517291D01*
G01X136110Y512500D02*
X131925Y520833D01*
G01X157500Y525000D02*
X156260Y524583D01*
X155330Y523541D01*
X154710Y522292D01*
X154245Y520624D01*
X154090Y518749D01*
X154245Y516874D01*
X154710Y515208D01*
X155330Y513958D01*
X156260Y512916D01*
X157500Y512500D01*
X158740Y512916D01*
X159670Y513958D01*
X160290Y515208D01*
X160755Y516874D01*
X160910Y518749D01*
X160755Y520624D01*
X160290Y522292D01*
X159670Y523541D01*
X158740Y524583D01*
X157500Y525000D01*
G01X169900Y512083D02*
X169590Y512291D01*
Y512708D01*
X169900Y512916D01*
X170210Y512708D01*
Y512291D01*
X169900Y512083D01*
G01X182300Y525000D02*
X181060Y524583D01*
X180130Y523541D01*
X179510Y522292D01*
X179045Y520624D01*
X178890Y518749D01*
X179045Y516874D01*
X179510Y515208D01*
X180130Y513958D01*
X181060Y512916D01*
X182300Y512500D01*
X183540Y512916D01*
X184470Y513958D01*
X185090Y515208D01*
X185555Y516874D01*
X185710Y518749D01*
X185555Y520624D01*
X185090Y522292D01*
X184470Y523541D01*
X183540Y524583D01*
X182300Y525000D01*
G01X191755Y522916D02*
X192685Y524166D01*
X193770Y524791D01*
X195010Y525000D01*
X196560Y524583D01*
X197645Y523541D01*
X197955Y522292D01*
X197800Y521041D01*
X197180Y520000D01*
X194080Y517916D01*
X192685Y516458D01*
X191755Y514374D01*
X191445Y512500D01*
X197955D01*
G01X215470D02*
Y525000D01*
X219500Y514583D01*
X223530Y525000D01*
Y512500D01*
G01X227870D02*
Y525000D01*
X231900Y514583D01*
X235930Y525000D01*
Y512500D01*
G01X-180710Y495416D02*
X-173890Y504583D01*
G01X-177300Y506250D02*
Y493750D01*
G01X-173890Y495416D02*
X-180710Y504583D01*
G01X-181950Y500000D02*
X-172650D01*
G01X-143355Y497499D02*
X-142115Y496458D01*
X-140720Y495833D01*
X-139480D01*
X-138240Y496458D01*
X-137310Y497499D01*
X-136845Y498958D01*
X-137155Y500416D01*
X-137930Y501666D01*
X-139325Y502500D01*
X-141185Y502916D01*
X-142270Y503750D01*
X-142735Y505208D01*
X-142425Y506666D01*
X-141650Y507708D01*
X-140565Y508333D01*
X-139480D01*
X-138395Y507916D01*
X-137465Y506875D01*
G01X-131110Y508333D02*
Y499375D01*
X-130490Y497499D01*
X-129250Y496250D01*
X-127700Y495833D01*
X-126150Y496250D01*
X-124910Y497499D01*
X-124290Y499375D01*
Y508333D01*
G01X-118400Y495833D02*
Y508333D01*
X-114525D01*
X-113285Y507708D01*
X-112510Y506875D01*
X-112200Y505208D01*
X-112510Y503541D01*
X-113440Y502500D01*
X-114525Y501875D01*
X-118400D01*
G01X-114525D02*
X-112200Y495833D01*
G01X-105845D02*
Y508333D01*
X-99955D01*
G01X-102125Y502292D02*
X-105845D01*
G01X-94375Y495833D02*
X-90500Y508333D01*
X-86625Y495833D01*
G01X-88020Y500208D02*
X-92980D01*
G01X-74690Y507291D02*
X-75620Y507916D01*
X-76705Y508333D01*
X-77945D01*
X-79340Y507708D01*
X-80425Y506666D01*
X-81200Y505416D01*
X-81820Y503333D01*
X-81975Y501458D01*
X-81665Y499583D01*
X-81200Y498333D01*
X-80270Y497083D01*
X-79185Y496250D01*
X-78100Y495833D01*
X-77015D01*
X-75930Y496250D01*
X-75000Y496874D01*
X-74225Y497708D01*
G01X-62600Y495833D02*
X-68800D01*
Y508333D01*
X-62600D01*
G01X-65080Y502292D02*
X-68800D01*
G01X-42915Y500000D02*
X-38885D01*
G01X-19975Y495833D02*
X-16100Y508333D01*
X-12225Y495833D01*
G01X-13620Y500208D02*
X-18580D01*
G01X-5560Y508333D02*
X-1840D01*
G01X-3700D02*
Y495833D01*
G01X-5560D02*
X-1840D01*
G01X5600D02*
Y508333D01*
X9475D01*
X10715Y507708D01*
X11490Y506875D01*
X11800Y505208D01*
X11490Y503541D01*
X10560Y502500D01*
X9475Y501875D01*
X5600D01*
G01X9475D02*
X11800Y495833D01*
G01X33500Y508333D02*
X32260Y507916D01*
X31330Y506875D01*
X30710Y505625D01*
X30245Y503958D01*
X30090Y502083D01*
X30245Y500208D01*
X30710Y498541D01*
X31330Y497291D01*
X32260Y496250D01*
X33500Y495833D01*
X34740Y496250D01*
X35670Y497291D01*
X36290Y498541D01*
X36755Y500208D01*
X36910Y502083D01*
X36755Y503958D01*
X36290Y505625D01*
X35670Y506875D01*
X34740Y507916D01*
X33500Y508333D01*
G01X54270Y495833D02*
Y508333D01*
X58300Y497916D01*
X62330Y508333D01*
Y495833D01*
G01X66670D02*
Y508333D01*
X70700Y497916D01*
X74730Y508333D01*
Y495833D01*
G01X-205200Y541666D02*
Y529166D01*
X-199000D01*
G01X-192645Y539583D02*
X-191715Y540833D01*
X-190630Y541458D01*
X-189390Y541666D01*
X-187840Y541250D01*
X-186755Y540208D01*
X-186445Y538958D01*
X-186600Y537708D01*
X-187220Y536666D01*
X-190320Y534583D01*
X-191715Y533124D01*
X-192645Y531041D01*
X-192955Y529166D01*
X-186445D01*
G01X-163660Y535833D02*
X-163040Y536458D01*
X-162575Y537499D01*
X-162265Y538958D01*
X-162575Y540208D01*
X-163195Y541041D01*
X-164280Y541666D01*
X-168465D01*
Y529166D01*
X-163350D01*
X-162265Y529999D01*
X-161645Y531249D01*
X-161335Y532708D01*
X-161645Y534166D01*
X-162575Y535416D01*
X-163660Y535833D01*
X-168465D01*
G01X-152500Y529166D02*
X-153740Y529374D01*
X-154825Y530208D01*
X-155755Y531458D01*
X-156375Y532916D01*
X-156685Y534583D01*
Y536249D01*
X-156375Y537916D01*
X-155755Y539374D01*
X-154825Y540624D01*
X-153740Y541458D01*
X-152500Y541666D01*
X-151260Y541458D01*
X-150175Y540624D01*
X-149245Y539374D01*
X-148625Y537916D01*
X-148315Y536249D01*
Y534583D01*
X-148625Y532916D01*
X-149245Y531458D01*
X-150175Y530208D01*
X-151260Y529374D01*
X-152500Y529166D01*
G01X-140100Y541666D02*
Y529166D01*
G01X-143665Y541666D02*
X-136535D01*
G01X-127700D02*
Y529166D01*
G01X-131265Y541666D02*
X-124135D01*
G01X-115300Y529166D02*
X-116540Y529374D01*
X-117625Y530208D01*
X-118555Y531458D01*
X-119175Y532916D01*
X-119485Y534583D01*
Y536249D01*
X-119175Y537916D01*
X-118555Y539374D01*
X-117625Y540624D01*
X-116540Y541458D01*
X-115300Y541666D01*
X-114060Y541458D01*
X-112975Y540624D01*
X-112045Y539374D01*
X-111425Y537916D01*
X-111115Y536249D01*
Y534583D01*
X-111425Y532916D01*
X-112045Y531458D01*
X-112975Y530208D01*
X-114060Y529374D01*
X-115300Y529166D01*
G01X-106930D02*
Y541666D01*
X-102900Y531249D01*
X-98870Y541666D01*
Y529166D01*
G01X-74690Y540624D02*
X-75620Y541250D01*
X-76705Y541666D01*
X-77945D01*
X-79340Y541041D01*
X-80425Y539999D01*
X-81200Y538749D01*
X-81820Y536666D01*
X-81975Y534791D01*
X-81665Y532916D01*
X-81200Y531666D01*
X-80270Y530416D01*
X-79185Y529583D01*
X-78100Y529166D01*
X-77015D01*
X-75930Y529583D01*
X-75000Y530208D01*
X-74225Y531041D01*
G01X-65700Y529166D02*
X-66940Y529374D01*
X-68025Y530208D01*
X-68955Y531458D01*
X-69575Y532916D01*
X-69885Y534583D01*
Y536249D01*
X-69575Y537916D01*
X-68955Y539374D01*
X-68025Y540624D01*
X-66940Y541458D01*
X-65700Y541666D01*
X-64460Y541458D01*
X-63375Y540624D01*
X-62445Y539374D01*
X-61825Y537916D01*
X-61515Y536249D01*
Y534583D01*
X-61825Y532916D01*
X-62445Y531458D01*
X-63375Y530208D01*
X-64460Y529374D01*
X-65700Y529166D01*
G01X-56865D02*
Y541666D01*
X-49735Y529166D01*
Y541666D01*
G01X-44310Y529166D02*
Y541666D01*
X-41210D01*
X-39970Y541041D01*
X-39040Y540208D01*
X-38265Y538958D01*
X-37645Y537499D01*
X-37490Y535416D01*
X-37645Y533333D01*
X-38265Y531874D01*
X-39040Y530624D01*
X-39970Y529791D01*
X-41210Y529166D01*
X-44310D01*
G01X-31910Y541666D02*
Y532708D01*
X-31290Y530832D01*
X-30050Y529583D01*
X-28500Y529166D01*
X-26950Y529583D01*
X-25710Y530832D01*
X-25090Y532708D01*
Y541666D01*
G01X-12690Y540624D02*
X-13620Y541250D01*
X-14705Y541666D01*
X-15945D01*
X-17340Y541041D01*
X-18425Y539999D01*
X-19200Y538749D01*
X-19820Y536666D01*
X-19975Y534791D01*
X-19665Y532916D01*
X-19200Y531666D01*
X-18270Y530416D01*
X-17185Y529583D01*
X-16100Y529166D01*
X-15015D01*
X-13930Y529583D01*
X-13000Y530208D01*
X-12225Y531041D01*
G01X-3700Y541666D02*
Y529166D01*
G01X-7265Y541666D02*
X-135D01*
G01X8700Y529166D02*
X7460Y529374D01*
X6375Y530208D01*
X5445Y531458D01*
X4825Y532916D01*
X4515Y534583D01*
Y536249D01*
X4825Y537916D01*
X5445Y539374D01*
X6375Y540624D01*
X7460Y541458D01*
X8700Y541666D01*
X9940Y541458D01*
X11025Y540624D01*
X11955Y539374D01*
X12575Y537916D01*
X12885Y536249D01*
Y534583D01*
X12575Y532916D01*
X11955Y531458D01*
X11025Y530208D01*
X9940Y529374D01*
X8700Y529166D01*
G01X18000D02*
Y541666D01*
X21875D01*
X23115Y541041D01*
X23890Y540208D01*
X24200Y538541D01*
X23890Y536874D01*
X22960Y535833D01*
X21875Y535208D01*
X18000D01*
G01X21875D02*
X24200Y529166D01*
G01X43885Y533333D02*
X47915D01*
G01X74110Y540624D02*
X73180Y541250D01*
X72095Y541666D01*
X70855D01*
X69460Y541041D01*
X68375Y539999D01*
X67600Y538749D01*
X66980Y536666D01*
X66825Y534791D01*
X67135Y532916D01*
X67600Y531666D01*
X68530Y530416D01*
X69615Y529583D01*
X70700Y529166D01*
X71785D01*
X72870Y529583D01*
X73800Y530208D01*
X74575Y531041D01*
G01X83100Y529166D02*
X81860Y529374D01*
X80775Y530208D01*
X79845Y531458D01*
X79225Y532916D01*
X78915Y534583D01*
Y536249D01*
X79225Y537916D01*
X79845Y539374D01*
X80775Y540624D01*
X81860Y541458D01*
X83100Y541666D01*
X84340Y541458D01*
X85425Y540624D01*
X86355Y539374D01*
X86975Y537916D01*
X87285Y536249D01*
Y534583D01*
X86975Y532916D01*
X86355Y531458D01*
X85425Y530208D01*
X84340Y529374D01*
X83100Y529166D01*
G01X92400D02*
Y541666D01*
X96120D01*
X97360Y541041D01*
X98290Y539583D01*
X98600Y537916D01*
X98290Y536249D01*
X97515Y534999D01*
X96120Y534374D01*
X92400D01*
G01X104800Y529166D02*
Y541666D01*
X108520D01*
X109760Y541041D01*
X110690Y539583D01*
X111000Y537916D01*
X110690Y536249D01*
X109915Y534999D01*
X108520Y534374D01*
X104800D01*
G01X123400Y529166D02*
X117200D01*
Y541666D01*
X123400D01*
G01X120920Y535625D02*
X117200D01*
G01X129600Y529166D02*
Y541666D01*
X133475D01*
X134715Y541041D01*
X135490Y540208D01*
X135800Y538541D01*
X135490Y536874D01*
X134560Y535833D01*
X133475Y535208D01*
X129600D01*
G01X133475D02*
X135800Y529166D01*
G01X157500Y541666D02*
X156260Y541250D01*
X155330Y540208D01*
X154710Y538958D01*
X154245Y537291D01*
X154090Y535416D01*
X154245Y533541D01*
X154710Y531874D01*
X155330Y530624D01*
X156260Y529583D01*
X157500Y529166D01*
X158740Y529583D01*
X159670Y530624D01*
X160290Y531874D01*
X160755Y533541D01*
X160910Y535416D01*
X160755Y537291D01*
X160290Y538958D01*
X159670Y540208D01*
X158740Y541250D01*
X157500Y541666D01*
G01X169900Y528750D02*
X169590Y528958D01*
Y529374D01*
X169900Y529583D01*
X170210Y529374D01*
Y528958D01*
X169900Y528750D01*
G01X182300Y541666D02*
X181060Y541250D01*
X180130Y540208D01*
X179510Y538958D01*
X179045Y537291D01*
X178890Y535416D01*
X179045Y533541D01*
X179510Y531874D01*
X180130Y530624D01*
X181060Y529583D01*
X182300Y529166D01*
X183540Y529583D01*
X184470Y530624D01*
X185090Y531874D01*
X185555Y533541D01*
X185710Y535416D01*
X185555Y537291D01*
X185090Y538958D01*
X184470Y540208D01*
X183540Y541250D01*
X182300Y541666D01*
G01X191290Y531666D02*
X192220Y530208D01*
X193460Y529374D01*
X194855Y529166D01*
X196095Y529374D01*
X197335Y530416D01*
X198110Y531666D01*
X198265Y532916D01*
X197955Y534374D01*
X196870Y535416D01*
X195785Y535833D01*
X194390D01*
G01X195785D02*
X196715Y536458D01*
X197490Y537499D01*
X197800Y538749D01*
X197490Y539999D01*
X196715Y541041D01*
X195320Y541666D01*
X193925Y541458D01*
X192530Y540624D01*
G01X203690Y531041D02*
X204620Y529999D01*
X205705Y529374D01*
X207100Y529166D01*
X208495Y529583D01*
X209580Y530416D01*
X210355Y531874D01*
X210510Y533541D01*
X210200Y535208D01*
X209425Y536249D01*
X208340Y537083D01*
X207255Y537291D01*
X206170Y537083D01*
X204775Y536249D01*
X205240Y541666D01*
X209425D01*
G01X227870Y529166D02*
Y541666D01*
X231900Y531249D01*
X235930Y541666D01*
Y529166D01*
G01X240270D02*
Y541666D01*
X244300Y531249D01*
X248330Y541666D01*
Y529166D01*
G01X-180710Y728487D02*
X-173890Y737654D01*
G01X-177300Y739320D02*
Y726820D01*
G01X-173890Y728487D02*
X-180710Y737654D01*
G01X-181950Y733070D02*
X-172650D01*
G01X-143510Y728904D02*
Y741404D01*
X-140410D01*
X-139170Y740778D01*
X-138240Y739945D01*
X-137465Y738695D01*
X-136845Y737237D01*
X-136690Y735153D01*
X-136845Y733070D01*
X-137465Y731612D01*
X-138240Y730362D01*
X-139170Y729528D01*
X-140410Y728904D01*
X-143510D01*
G01X-129560Y741404D02*
X-125840D01*
G01X-127700D02*
Y728904D01*
G01X-129560D02*
X-125840D01*
G01X-112200D02*
X-118400D01*
Y741404D01*
X-112200D01*
G01X-114680Y735362D02*
X-118400D01*
G01X-106000Y741404D02*
Y728904D01*
X-99800D01*
G01X-87400D02*
X-93600D01*
Y741404D01*
X-87400D01*
G01X-89880Y735362D02*
X-93600D01*
G01X-74690Y740362D02*
X-75620Y740987D01*
X-76705Y741404D01*
X-77945D01*
X-79340Y740778D01*
X-80425Y739737D01*
X-81200Y738487D01*
X-81820Y736403D01*
X-81975Y734528D01*
X-81665Y732654D01*
X-81200Y731403D01*
X-80270Y730153D01*
X-79185Y729320D01*
X-78100Y728904D01*
X-77015D01*
X-75930Y729320D01*
X-75000Y729945D01*
X-74225Y730778D01*
G01X-65700Y741404D02*
Y728904D01*
G01X-69265Y741404D02*
X-62135D01*
G01X-56400Y728904D02*
Y741404D01*
X-52525D01*
X-51285Y740778D01*
X-50510Y739945D01*
X-50200Y738278D01*
X-50510Y736612D01*
X-51440Y735570D01*
X-52525Y734945D01*
X-56400D01*
G01X-52525D02*
X-50200Y728904D01*
G01X-42760Y741404D02*
X-39040D01*
G01X-40900D02*
Y728904D01*
G01X-42760D02*
X-39040D01*
G01X-25090Y740362D02*
X-26020Y740987D01*
X-27105Y741404D01*
X-28345D01*
X-29740Y740778D01*
X-30825Y739737D01*
X-31600Y738487D01*
X-32220Y736403D01*
X-32375Y734528D01*
X-32065Y732654D01*
X-31600Y731403D01*
X-30670Y730153D01*
X-29585Y729320D01*
X-28500Y728904D01*
X-27415D01*
X-26330Y729320D01*
X-25400Y729945D01*
X-24625Y730778D01*
G01X-5715Y733070D02*
X-1685D01*
G01X18155Y728904D02*
Y741404D01*
X24045D01*
G01X21875Y735362D02*
X18155D01*
G01X30400Y728904D02*
Y741404D01*
X34275D01*
X35515Y740778D01*
X36290Y739945D01*
X36600Y738278D01*
X36290Y736612D01*
X35360Y735570D01*
X34275Y734945D01*
X30400D01*
G01X34275D02*
X36600Y728904D01*
G01X43885Y733070D02*
X47915D01*
G01X60160Y728904D02*
Y741404D01*
X54425Y732445D01*
X62175D01*
G01X83100Y728904D02*
Y741404D01*
X81240Y738904D01*
G01Y728904D02*
X84960D01*
G01X95500Y728487D02*
X95190Y728695D01*
Y729112D01*
X95500Y729320D01*
X95810Y729112D01*
Y728695D01*
X95500Y728487D01*
G01X104490Y730778D02*
X105420Y729737D01*
X106505Y729112D01*
X107900Y728904D01*
X109295Y729320D01*
X110380Y730153D01*
X111155Y731612D01*
X111310Y733278D01*
X111000Y734945D01*
X110225Y735987D01*
X109140Y736820D01*
X108055Y737028D01*
X106970Y736820D01*
X105575Y735987D01*
X106040Y741404D01*
X110225D01*
G01X128670Y728904D02*
Y741404D01*
X132700Y730987D01*
X136730Y741404D01*
Y728904D01*
G01X141070D02*
Y741404D01*
X145100Y730987D01*
X149130Y741404D01*
Y728904D01*
G01X-205200Y887900D02*
Y875400D01*
X-199000D01*
G01X-189700D02*
Y887900D01*
X-191560Y885400D01*
G01Y875400D02*
X-187840D01*
G01X-164900Y887900D02*
Y875400D01*
G01X-168465Y887900D02*
X-161335D01*
G01X-152500Y875400D02*
X-153740Y875608D01*
X-154825Y876441D01*
X-155755Y877691D01*
X-156375Y879150D01*
X-156685Y880816D01*
Y882483D01*
X-156375Y884150D01*
X-155755Y885608D01*
X-154825Y886858D01*
X-153740Y887691D01*
X-152500Y887900D01*
X-151260Y887691D01*
X-150175Y886858D01*
X-149245Y885608D01*
X-148625Y884150D01*
X-148315Y882483D01*
Y880816D01*
X-148625Y879150D01*
X-149245Y877691D01*
X-150175Y876441D01*
X-151260Y875608D01*
X-152500Y875400D01*
G01X-143200D02*
Y887900D01*
X-139480D01*
X-138240Y887274D01*
X-137310Y885816D01*
X-137000Y884150D01*
X-137310Y882483D01*
X-138085Y881233D01*
X-139480Y880608D01*
X-143200D01*
G01X-111890Y886858D02*
X-112820Y887483D01*
X-113905Y887900D01*
X-115145D01*
X-116540Y887274D01*
X-117625Y886233D01*
X-118400Y884983D01*
X-119020Y882900D01*
X-119175Y881024D01*
X-118865Y879150D01*
X-118400Y877899D01*
X-117470Y876649D01*
X-116385Y875816D01*
X-115300Y875400D01*
X-114215D01*
X-113130Y875816D01*
X-112200Y876441D01*
X-111425Y877274D01*
G01X-102900Y875400D02*
X-104140Y875608D01*
X-105225Y876441D01*
X-106155Y877691D01*
X-106775Y879150D01*
X-107085Y880816D01*
Y882483D01*
X-106775Y884150D01*
X-106155Y885608D01*
X-105225Y886858D01*
X-104140Y887691D01*
X-102900Y887900D01*
X-101660Y887691D01*
X-100575Y886858D01*
X-99645Y885608D01*
X-99025Y884150D01*
X-98715Y882483D01*
Y880816D01*
X-99025Y879150D01*
X-99645Y877691D01*
X-100575Y876441D01*
X-101660Y875608D01*
X-102900Y875400D01*
G01X-94065D02*
Y887900D01*
X-86935Y875400D01*
Y887900D01*
G01X-81510Y875400D02*
Y887900D01*
X-78410D01*
X-77170Y887274D01*
X-76240Y886441D01*
X-75465Y885192D01*
X-74845Y883733D01*
X-74690Y881649D01*
X-74845Y879566D01*
X-75465Y878108D01*
X-76240Y876858D01*
X-77170Y876025D01*
X-78410Y875400D01*
X-81510D01*
G01X-69110Y887900D02*
Y878941D01*
X-68490Y877066D01*
X-67250Y875816D01*
X-65700Y875400D01*
X-64150Y875816D01*
X-62910Y877066D01*
X-62290Y878941D01*
Y887900D01*
G01X-49890Y886858D02*
X-50820Y887483D01*
X-51905Y887900D01*
X-53145D01*
X-54540Y887274D01*
X-55625Y886233D01*
X-56400Y884983D01*
X-57020Y882900D01*
X-57175Y881024D01*
X-56865Y879150D01*
X-56400Y877899D01*
X-55470Y876649D01*
X-54385Y875816D01*
X-53300Y875400D01*
X-52215D01*
X-51130Y875816D01*
X-50200Y876441D01*
X-49425Y877274D01*
G01X-40900Y887900D02*
Y875400D01*
G01X-44465Y887900D02*
X-37335D01*
G01X-28500Y875400D02*
X-29740Y875608D01*
X-30825Y876441D01*
X-31755Y877691D01*
X-32375Y879150D01*
X-32685Y880816D01*
Y882483D01*
X-32375Y884150D01*
X-31755Y885608D01*
X-30825Y886858D01*
X-29740Y887691D01*
X-28500Y887900D01*
X-27260Y887691D01*
X-26175Y886858D01*
X-25245Y885608D01*
X-24625Y884150D01*
X-24315Y882483D01*
Y880816D01*
X-24625Y879150D01*
X-25245Y877691D01*
X-26175Y876441D01*
X-27260Y875608D01*
X-28500Y875400D01*
G01X-19200D02*
Y887900D01*
X-15325D01*
X-14085Y887274D01*
X-13310Y886441D01*
X-13000Y884775D01*
X-13310Y883108D01*
X-14240Y882066D01*
X-15325Y881441D01*
X-19200D01*
G01X-15325D02*
X-13000Y875400D01*
G01X6685Y879566D02*
X10715D01*
G01X36910Y886858D02*
X35980Y887483D01*
X34895Y887900D01*
X33655D01*
X32260Y887274D01*
X31175Y886233D01*
X30400Y884983D01*
X29780Y882900D01*
X29625Y881024D01*
X29935Y879150D01*
X30400Y877899D01*
X31330Y876649D01*
X32415Y875816D01*
X33500Y875400D01*
X34585D01*
X35670Y875816D01*
X36600Y876441D01*
X37375Y877274D01*
G01X45900Y875400D02*
X44660Y875608D01*
X43575Y876441D01*
X42645Y877691D01*
X42025Y879150D01*
X41715Y880816D01*
Y882483D01*
X42025Y884150D01*
X42645Y885608D01*
X43575Y886858D01*
X44660Y887691D01*
X45900Y887900D01*
X47140Y887691D01*
X48225Y886858D01*
X49155Y885608D01*
X49775Y884150D01*
X50085Y882483D01*
Y880816D01*
X49775Y879150D01*
X49155Y877691D01*
X48225Y876441D01*
X47140Y875608D01*
X45900Y875400D01*
G01X55200D02*
Y887900D01*
X58920D01*
X60160Y887274D01*
X61090Y885816D01*
X61400Y884150D01*
X61090Y882483D01*
X60315Y881233D01*
X58920Y880608D01*
X55200D01*
G01X67600Y875400D02*
Y887900D01*
X71320D01*
X72560Y887274D01*
X73490Y885816D01*
X73800Y884150D01*
X73490Y882483D01*
X72715Y881233D01*
X71320Y880608D01*
X67600D01*
G01X86200Y875400D02*
X80000D01*
Y887900D01*
X86200D01*
G01X83720Y881858D02*
X80000D01*
G01X92400Y875400D02*
Y887900D01*
X96275D01*
X97515Y887274D01*
X98290Y886441D01*
X98600Y884775D01*
X98290Y883108D01*
X97360Y882066D01*
X96275Y881441D01*
X92400D01*
G01X96275D02*
X98600Y875400D01*
G01X120300Y887900D02*
X119060Y887483D01*
X118130Y886441D01*
X117510Y885192D01*
X117045Y883524D01*
X116890Y881649D01*
X117045Y879774D01*
X117510Y878108D01*
X118130Y876858D01*
X119060Y875816D01*
X120300Y875400D01*
X121540Y875816D01*
X122470Y876858D01*
X123090Y878108D01*
X123555Y879774D01*
X123710Y881649D01*
X123555Y883524D01*
X123090Y885192D01*
X122470Y886441D01*
X121540Y887483D01*
X120300Y887900D01*
G01X132700Y874983D02*
X132390Y875191D01*
Y875608D01*
X132700Y875816D01*
X133010Y875608D01*
Y875191D01*
X132700Y874983D01*
G01X145100Y887900D02*
X143860Y887483D01*
X142930Y886441D01*
X142310Y885192D01*
X141845Y883524D01*
X141690Y881649D01*
X141845Y879774D01*
X142310Y878108D01*
X142930Y876858D01*
X143860Y875816D01*
X145100Y875400D01*
X146340Y875816D01*
X147270Y876858D01*
X147890Y878108D01*
X148355Y879774D01*
X148510Y881649D01*
X148355Y883524D01*
X147890Y885192D01*
X147270Y886441D01*
X146340Y887483D01*
X145100Y887900D01*
G01X154090Y877899D02*
X155020Y876441D01*
X156260Y875608D01*
X157655Y875400D01*
X158895Y875608D01*
X160135Y876649D01*
X160910Y877899D01*
X161065Y879150D01*
X160755Y880608D01*
X159670Y881649D01*
X158585Y882066D01*
X157190D01*
G01X158585D02*
X159515Y882691D01*
X160290Y883733D01*
X160600Y884983D01*
X160290Y886233D01*
X159515Y887274D01*
X158120Y887900D01*
X156725Y887691D01*
X155330Y886858D01*
G01X166490Y877274D02*
X167420Y876233D01*
X168505Y875608D01*
X169900Y875400D01*
X171295Y875816D01*
X172380Y876649D01*
X173155Y878108D01*
X173310Y879774D01*
X173000Y881441D01*
X172225Y882483D01*
X171140Y883316D01*
X170055Y883524D01*
X168970Y883316D01*
X167575Y882483D01*
X168040Y887900D01*
X172225D01*
G01X190670Y875400D02*
Y887900D01*
X194700Y877483D01*
X198730Y887900D01*
Y875400D01*
G01X203070D02*
Y887900D01*
X207100Y877483D01*
X211130Y887900D01*
Y875400D01*
G01X-180710Y908316D02*
X-173890Y917483D01*
G01X-177300Y919149D02*
Y906649D01*
G01X-173890Y908316D02*
X-180710Y917483D01*
G01X-181950Y912899D02*
X-172650D01*
G01X-143355Y910399D02*
X-142115Y909358D01*
X-140720Y908733D01*
X-139480D01*
X-138240Y909358D01*
X-137310Y910399D01*
X-136845Y911858D01*
X-137155Y913316D01*
X-137930Y914566D01*
X-139325Y915400D01*
X-141185Y915816D01*
X-142270Y916649D01*
X-142735Y918108D01*
X-142425Y919566D01*
X-141650Y920608D01*
X-140565Y921233D01*
X-139480D01*
X-138395Y920816D01*
X-137465Y919774D01*
G01X-131110Y921233D02*
Y912274D01*
X-130490Y910399D01*
X-129250Y909149D01*
X-127700Y908733D01*
X-126150Y909149D01*
X-124910Y910399D01*
X-124290Y912274D01*
Y921233D01*
G01X-118400Y908733D02*
Y921233D01*
X-114525D01*
X-113285Y920608D01*
X-112510Y919774D01*
X-112200Y918108D01*
X-112510Y916441D01*
X-113440Y915400D01*
X-114525Y914774D01*
X-118400D01*
G01X-114525D02*
X-112200Y908733D01*
G01X-105845D02*
Y921233D01*
X-99955D01*
G01X-102125Y915191D02*
X-105845D01*
G01X-94375Y908733D02*
X-90500Y921233D01*
X-86625Y908733D01*
G01X-88020Y913108D02*
X-92980D01*
G01X-74690Y920191D02*
X-75620Y920816D01*
X-76705Y921233D01*
X-77945D01*
X-79340Y920608D01*
X-80425Y919566D01*
X-81200Y918316D01*
X-81820Y916233D01*
X-81975Y914358D01*
X-81665Y912483D01*
X-81200Y911232D01*
X-80270Y909982D01*
X-79185Y909149D01*
X-78100Y908733D01*
X-77015D01*
X-75930Y909149D01*
X-75000Y909774D01*
X-74225Y910607D01*
G01X-62600Y908733D02*
X-68800D01*
Y921233D01*
X-62600D01*
G01X-65080Y915191D02*
X-68800D01*
G01X-42915Y912899D02*
X-38885D01*
G01X-19975Y908733D02*
X-16100Y921233D01*
X-12225Y908733D01*
G01X-13620Y913108D02*
X-18580D01*
G01X-5560Y921233D02*
X-1840D01*
G01X-3700D02*
Y908733D01*
G01X-5560D02*
X-1840D01*
G01X5600D02*
Y921233D01*
X9475D01*
X10715Y920608D01*
X11490Y919774D01*
X11800Y918108D01*
X11490Y916441D01*
X10560Y915400D01*
X9475Y914774D01*
X5600D01*
G01X9475D02*
X11800Y908733D01*
G01X33500Y921233D02*
X32260Y920816D01*
X31330Y919774D01*
X30710Y918525D01*
X30245Y916858D01*
X30090Y914983D01*
X30245Y913108D01*
X30710Y911441D01*
X31330Y910191D01*
X32260Y909149D01*
X33500Y908733D01*
X34740Y909149D01*
X35670Y910191D01*
X36290Y911441D01*
X36755Y913108D01*
X36910Y914983D01*
X36755Y916858D01*
X36290Y918525D01*
X35670Y919774D01*
X34740Y920816D01*
X33500Y921233D01*
G01X54270Y908733D02*
Y921233D01*
X58300Y910816D01*
X62330Y921233D01*
Y908733D01*
G01X66670D02*
Y921233D01*
X70700Y910816D01*
X74730Y921233D01*
Y908733D01*
G01X-180710Y891650D02*
X-173890Y900816D01*
G01X-177300Y902483D02*
Y889983D01*
G01X-173890Y891650D02*
X-180710Y900816D01*
G01X-181950Y896233D02*
X-172650D01*
G01X-143510Y892066D02*
Y904566D01*
X-140410D01*
X-139170Y903941D01*
X-138240Y903108D01*
X-137465Y901858D01*
X-136845Y900399D01*
X-136690Y898316D01*
X-136845Y896233D01*
X-137465Y894774D01*
X-138240Y893524D01*
X-139170Y892691D01*
X-140410Y892066D01*
X-143510D01*
G01X-129560Y904566D02*
X-125840D01*
G01X-127700D02*
Y892066D01*
G01X-129560D02*
X-125840D01*
G01X-112200D02*
X-118400D01*
Y904566D01*
X-112200D01*
G01X-114680Y898525D02*
X-118400D01*
G01X-106000Y904566D02*
Y892066D01*
X-99800D01*
G01X-87400D02*
X-93600D01*
Y904566D01*
X-87400D01*
G01X-89880Y898525D02*
X-93600D01*
G01X-74690Y903524D02*
X-75620Y904150D01*
X-76705Y904566D01*
X-77945D01*
X-79340Y903941D01*
X-80425Y902899D01*
X-81200Y901649D01*
X-81820Y899566D01*
X-81975Y897691D01*
X-81665Y895816D01*
X-81200Y894566D01*
X-80270Y893316D01*
X-79185Y892483D01*
X-78100Y892066D01*
X-77015D01*
X-75930Y892483D01*
X-75000Y893108D01*
X-74225Y893941D01*
G01X-65700Y904566D02*
Y892066D01*
G01X-69265Y904566D02*
X-62135D01*
G01X-56400Y892066D02*
Y904566D01*
X-52525D01*
X-51285Y903941D01*
X-50510Y903108D01*
X-50200Y901441D01*
X-50510Y899774D01*
X-51440Y898733D01*
X-52525Y898108D01*
X-56400D01*
G01X-52525D02*
X-50200Y892066D01*
G01X-42760Y904566D02*
X-39040D01*
G01X-40900D02*
Y892066D01*
G01X-42760D02*
X-39040D01*
G01X-25090Y903524D02*
X-26020Y904150D01*
X-27105Y904566D01*
X-28345D01*
X-29740Y903941D01*
X-30825Y902899D01*
X-31600Y901649D01*
X-32220Y899566D01*
X-32375Y897691D01*
X-32065Y895816D01*
X-31600Y894566D01*
X-30670Y893316D01*
X-29585Y892483D01*
X-28500Y892066D01*
X-27415D01*
X-26330Y892483D01*
X-25400Y893108D01*
X-24625Y893941D01*
G01X-5715Y896233D02*
X-1685D01*
G01X17845Y893732D02*
X19085Y892691D01*
X20480Y892066D01*
X21720D01*
X22960Y892691D01*
X23890Y893732D01*
X24355Y895191D01*
X24045Y896649D01*
X23270Y897899D01*
X21875Y898733D01*
X20015Y899149D01*
X18930Y899983D01*
X18465Y901441D01*
X18775Y902899D01*
X19550Y903941D01*
X20635Y904566D01*
X21720D01*
X22805Y904150D01*
X23735Y903108D01*
G01X33500Y892066D02*
X32260Y892274D01*
X31175Y893108D01*
X30245Y894358D01*
X29625Y895816D01*
X29315Y897483D01*
Y899149D01*
X29625Y900816D01*
X30245Y902274D01*
X31175Y903524D01*
X32260Y904358D01*
X33500Y904566D01*
X34740Y904358D01*
X35825Y903524D01*
X36755Y902274D01*
X37375Y900816D01*
X37685Y899149D01*
Y897483D01*
X37375Y895816D01*
X36755Y894358D01*
X35825Y893108D01*
X34740Y892274D01*
X33500Y892066D01*
G01X42800Y904566D02*
Y892066D01*
X49000D01*
G01X54890D02*
Y904566D01*
X57990D01*
X59230Y903941D01*
X60160Y903108D01*
X60935Y901858D01*
X61555Y900399D01*
X61710Y898316D01*
X61555Y896233D01*
X60935Y894774D01*
X60160Y893524D01*
X59230Y892691D01*
X57990Y892066D01*
X54890D01*
G01X73800D02*
X67600D01*
Y904566D01*
X73800D01*
G01X71320Y898525D02*
X67600D01*
G01X80000Y892066D02*
Y904566D01*
X83875D01*
X85115Y903941D01*
X85890Y903108D01*
X86200Y901441D01*
X85890Y899774D01*
X84960Y898733D01*
X83875Y898108D01*
X80000D01*
G01X83875D02*
X86200Y892066D01*
G01X91470D02*
Y904566D01*
X95500Y894149D01*
X99530Y904566D01*
Y892066D01*
G01X104025D02*
X107900Y904566D01*
X111775Y892066D01*
G01X110380Y896441D02*
X105420D01*
G01X117045Y893732D02*
X118285Y892691D01*
X119680Y892066D01*
X120920D01*
X122160Y892691D01*
X123090Y893732D01*
X123555Y895191D01*
X123245Y896649D01*
X122470Y897899D01*
X121075Y898733D01*
X119215Y899149D01*
X118130Y899983D01*
X117665Y901441D01*
X117975Y902899D01*
X118750Y903941D01*
X119835Y904566D01*
X120920D01*
X122005Y904150D01*
X122935Y903108D01*
G01X129290Y892066D02*
Y904566D01*
G01X135180D02*
X129290Y896858D01*
G01X136110Y892066D02*
X131925Y900399D01*
G01X157500Y904566D02*
X156260Y904150D01*
X155330Y903108D01*
X154710Y901858D01*
X154245Y900191D01*
X154090Y898316D01*
X154245Y896441D01*
X154710Y894774D01*
X155330Y893524D01*
X156260Y892483D01*
X157500Y892066D01*
X158740Y892483D01*
X159670Y893524D01*
X160290Y894774D01*
X160755Y896441D01*
X160910Y898316D01*
X160755Y900191D01*
X160290Y901858D01*
X159670Y903108D01*
X158740Y904150D01*
X157500Y904566D01*
G01X169900Y891650D02*
X169590Y891858D01*
Y892274D01*
X169900Y892483D01*
X170210Y892274D01*
Y891858D01*
X169900Y891650D01*
G01X182300Y904566D02*
X181060Y904150D01*
X180130Y903108D01*
X179510Y901858D01*
X179045Y900191D01*
X178890Y898316D01*
X179045Y896441D01*
X179510Y894774D01*
X180130Y893524D01*
X181060Y892483D01*
X182300Y892066D01*
X183540Y892483D01*
X184470Y893524D01*
X185090Y894774D01*
X185555Y896441D01*
X185710Y898316D01*
X185555Y900191D01*
X185090Y901858D01*
X184470Y903108D01*
X183540Y904150D01*
X182300Y904566D01*
G01X191755Y902483D02*
X192685Y903733D01*
X193770Y904358D01*
X195010Y904566D01*
X196560Y904150D01*
X197645Y903108D01*
X197955Y901858D01*
X197800Y900608D01*
X197180Y899566D01*
X194080Y897483D01*
X192685Y896024D01*
X191755Y893941D01*
X191445Y892066D01*
X197955D01*
G01X215470D02*
Y904566D01*
X219500Y894149D01*
X223530Y904566D01*
Y892066D01*
G01X227870D02*
Y904566D01*
X231900Y894149D01*
X235930Y904566D01*
Y892066D01*
G01X-155700Y134750D02*
Y147250D01*
X-157560Y144750D01*
G01Y134750D02*
X-153840D01*
G01X-146710Y136625D02*
X-145780Y135583D01*
X-144695Y134958D01*
X-143300Y134750D01*
X-141905Y135167D01*
X-140820Y136000D01*
X-140045Y137458D01*
X-139890Y139125D01*
X-140200Y140792D01*
X-140975Y141833D01*
X-142060Y142666D01*
X-143145Y142875D01*
X-144230Y142666D01*
X-145625Y141833D01*
X-145160Y147250D01*
X-140975D01*
G01X-130900Y134333D02*
X-131210Y134542D01*
Y134958D01*
X-130900Y135167D01*
X-130590Y134958D01*
Y134542D01*
X-130900Y134333D01*
G01X-118500Y147250D02*
X-119740Y146833D01*
X-120670Y145792D01*
X-121290Y144542D01*
X-121755Y142875D01*
X-121910Y141000D01*
X-121755Y139125D01*
X-121290Y137458D01*
X-120670Y136208D01*
X-119740Y135167D01*
X-118500Y134750D01*
X-117260Y135167D01*
X-116330Y136208D01*
X-115710Y137458D01*
X-115245Y139125D01*
X-115090Y141000D01*
X-115245Y142875D01*
X-115710Y144542D01*
X-116330Y145792D01*
X-117260Y146833D01*
X-118500Y147250D01*
G01X-106100D02*
X-107340Y146833D01*
X-108270Y145792D01*
X-108890Y144542D01*
X-109355Y142875D01*
X-109510Y141000D01*
X-109355Y139125D01*
X-108890Y137458D01*
X-108270Y136208D01*
X-107340Y135167D01*
X-106100Y134750D01*
X-104860Y135167D01*
X-103930Y136208D01*
X-103310Y137458D01*
X-102845Y139125D01*
X-102690Y141000D01*
X-102845Y142875D01*
X-103310Y144542D01*
X-103930Y145792D01*
X-104860Y146833D01*
X-106100Y147250D01*
G01X-97110Y136625D02*
X-96180Y135583D01*
X-95095Y134958D01*
X-93700Y134750D01*
X-92305Y135167D01*
X-91220Y136000D01*
X-90445Y137458D01*
X-90290Y139125D01*
X-90600Y140792D01*
X-91375Y141833D01*
X-92460Y142666D01*
X-93545Y142875D01*
X-94630Y142666D01*
X-96025Y141833D01*
X-95560Y147250D01*
X-91375D01*
G01X-84710Y137250D02*
X-83780Y135791D01*
X-82540Y134958D01*
X-81145Y134750D01*
X-79905Y134958D01*
X-78665Y136000D01*
X-77890Y137250D01*
X-77735Y138500D01*
X-78045Y139958D01*
X-79130Y141000D01*
X-80215Y141417D01*
X-81610D01*
G01X-80215D02*
X-79285Y142042D01*
X-78510Y143083D01*
X-78200Y144333D01*
X-78510Y145583D01*
X-79285Y146625D01*
X-80680Y147250D01*
X-82075Y147042D01*
X-83470Y146208D01*
G01X-87359Y55976D02*
X-136000Y28000D01*
X-144275D01*
G01X-155602Y349402D02*
Y274402D01*
G01X-141652Y343152D02*
Y330652D01*
G01X-145217Y343152D02*
X-138088D01*
G01X-129253Y330652D02*
X-130493Y330861D01*
X-131577Y331694D01*
X-132507Y332944D01*
X-133128Y334402D01*
X-133438Y336069D01*
Y337736D01*
X-133128Y339402D01*
X-132507Y340861D01*
X-131577Y342111D01*
X-130493Y342944D01*
X-129253Y343152D01*
X-128012Y342944D01*
X-126928Y342111D01*
X-125997Y340861D01*
X-125377Y339402D01*
X-125067Y337736D01*
Y336069D01*
X-125377Y334402D01*
X-125997Y332944D01*
X-126928Y331694D01*
X-128012Y330861D01*
X-129253Y330652D01*
G01X-119952Y343152D02*
Y330652D01*
X-113752D01*
G01X-101352D02*
X-107552D01*
Y343152D01*
X-101352D01*
G01X-103832Y337111D02*
X-107552D01*
G01X-95152Y330652D02*
Y343152D01*
X-91277D01*
X-90037Y342527D01*
X-89262Y341694D01*
X-88952Y340027D01*
X-89262Y338361D01*
X-90192Y337319D01*
X-91277Y336694D01*
X-95152D01*
G01X-91277D02*
X-88952Y330652D01*
G01X-83528D02*
X-79652Y343152D01*
X-75777Y330652D01*
G01X-77172Y335027D02*
X-82133D01*
G01X-70817Y330652D02*
Y343152D01*
X-63688Y330652D01*
Y343152D01*
G01X-51442Y342111D02*
X-52372Y342736D01*
X-53457Y343152D01*
X-54697D01*
X-56093Y342527D01*
X-57177Y341486D01*
X-57952Y340236D01*
X-58573Y338152D01*
X-58728Y336277D01*
X-58417Y334402D01*
X-57952Y333152D01*
X-57022Y331902D01*
X-55937Y331069D01*
X-54853Y330652D01*
X-53768D01*
X-52682Y331069D01*
X-51752Y331694D01*
X-50977Y332527D01*
G01X-39352Y330652D02*
X-45552D01*
Y343152D01*
X-39352D01*
G01X-41832Y337111D02*
X-45552D01*
G01X-34702Y326486D02*
X-25402D01*
G01X-21062Y330652D02*
Y343152D01*
X-17962D01*
X-16722Y342527D01*
X-15792Y341694D01*
X-15017Y340444D01*
X-14397Y338986D01*
X-14242Y336902D01*
X-14397Y334819D01*
X-15017Y333360D01*
X-15792Y332110D01*
X-16722Y331277D01*
X-17962Y330652D01*
X-21062D01*
G01X-8352D02*
Y343152D01*
X-4477D01*
X-3237Y342527D01*
X-2462Y341694D01*
X-2152Y340027D01*
X-2462Y338361D01*
X-3392Y337319D01*
X-4477Y336694D01*
X-8352D01*
G01X-4477D02*
X-2152Y330652D01*
G01X5288Y343152D02*
X9007D01*
G01X7148D02*
Y330652D01*
G01X5288D02*
X9007D01*
G01X16448Y343152D02*
Y330652D01*
X22648D01*
G01X28848Y343152D02*
Y330652D01*
X35048D01*
G01X-99100Y-35750D02*
Y-23250D01*
X-95225D01*
X-93985Y-23875D01*
X-93210Y-24708D01*
X-92900Y-26375D01*
X-93210Y-28042D01*
X-94140Y-29083D01*
X-95225Y-29708D01*
X-99100D01*
G01X-95225D02*
X-92900Y-35750D01*
G01X-83600D02*
Y-23250D01*
X-85460Y-25750D01*
G01Y-35750D02*
X-81740D01*
G01X-71200Y-36167D02*
X-71510Y-35958D01*
Y-35542D01*
X-71200Y-35333D01*
X-70890Y-35542D01*
Y-35958D01*
X-71200Y-36167D01*
G01X-61435Y-34292D02*
X-60350Y-35333D01*
X-59110Y-35750D01*
X-57870Y-35333D01*
X-56785Y-34084D01*
X-56010Y-32208D01*
X-55700Y-30333D01*
Y-28042D01*
X-56010Y-26167D01*
X-56785Y-24500D01*
X-57715Y-23667D01*
X-58800Y-23250D01*
X-60040Y-23667D01*
X-60970Y-24500D01*
X-61590Y-25750D01*
X-61900Y-27417D01*
X-61590Y-28875D01*
X-60815Y-30333D01*
X-59885Y-31167D01*
X-58800Y-31375D01*
X-57560Y-30959D01*
X-56630Y-29917D01*
X-55700Y-28042D01*
G01X-46400Y-23250D02*
X-47640Y-23667D01*
X-48570Y-24708D01*
X-49190Y-25958D01*
X-49655Y-27625D01*
X-49810Y-29500D01*
X-49655Y-31375D01*
X-49190Y-33042D01*
X-48570Y-34292D01*
X-47640Y-35333D01*
X-46400Y-35750D01*
X-45160Y-35333D01*
X-44230Y-34292D01*
X-43610Y-33042D01*
X-43145Y-31375D01*
X-42990Y-29500D01*
X-43145Y-27625D01*
X-43610Y-25958D01*
X-44230Y-24708D01*
X-45160Y-23667D01*
X-46400Y-23250D01*
G01X-37410Y-33875D02*
X-36480Y-34917D01*
X-35395Y-35542D01*
X-34000Y-35750D01*
X-32605Y-35333D01*
X-31520Y-34500D01*
X-30745Y-33042D01*
X-30590Y-31375D01*
X-30900Y-29708D01*
X-31675Y-28667D01*
X-32760Y-27834D01*
X-33845Y-27625D01*
X-34930Y-27834D01*
X-36325Y-28667D01*
X-35860Y-23250D01*
X-31675D01*
G01X-99784Y45992D02*
X-87359Y55976D01*
X-102237Y50258D01*
X-99784Y45992D01*
G01X-105500Y182833D02*
X-105000Y183333D01*
X-104625Y184166D01*
X-104375Y185334D01*
X-104625Y186333D01*
X-105125Y187000D01*
X-106000Y187500D01*
X-109375D01*
Y177500D01*
X-105250D01*
X-104375Y178166D01*
X-103875Y179167D01*
X-103625Y180333D01*
X-103875Y181500D01*
X-104625Y182500D01*
X-105500Y182833D01*
X-109375D01*
G01X-96500Y177500D02*
X-97500Y177667D01*
X-98375Y178333D01*
X-99125Y179333D01*
X-99625Y180500D01*
X-99875Y181833D01*
Y183167D01*
X-99625Y184500D01*
X-99125Y185667D01*
X-98375Y186666D01*
X-97500Y187333D01*
X-96500Y187500D01*
X-95500Y187333D01*
X-94625Y186666D01*
X-93875Y185667D01*
X-93375Y184500D01*
X-93125Y183167D01*
Y181833D01*
X-93375Y180500D01*
X-93875Y179333D01*
X-94625Y178333D01*
X-95500Y177667D01*
X-96500Y177500D01*
G01X-89625D02*
X-86500Y187500D01*
X-83375Y177500D01*
G01X-84500Y181000D02*
X-88500D01*
G01X-79000Y177500D02*
Y187500D01*
X-75875D01*
X-74875Y187000D01*
X-74250Y186333D01*
X-74000Y185000D01*
X-74250Y183667D01*
X-75000Y182833D01*
X-75875Y182333D01*
X-79000D01*
G01X-75875D02*
X-74000Y177500D01*
G01X-69250D02*
Y187500D01*
X-66750D01*
X-65750Y187000D01*
X-65000Y186333D01*
X-64375Y185334D01*
X-63875Y184166D01*
X-63750Y182500D01*
X-63875Y180833D01*
X-64375Y179666D01*
X-65000Y178666D01*
X-65750Y178000D01*
X-66750Y177500D01*
X-69250D01*
G01X-49250D02*
Y187500D01*
X-46750D01*
X-45750Y187000D01*
X-45000Y186333D01*
X-44375Y185334D01*
X-43875Y184166D01*
X-43750Y182500D01*
X-43875Y180833D01*
X-44375Y179666D01*
X-45000Y178666D01*
X-45750Y178000D01*
X-46750Y177500D01*
X-49250D01*
G01X-38000Y187500D02*
X-35000D01*
G01X-36500D02*
Y177500D01*
G01X-38000D02*
X-35000D01*
G01X-29750D02*
Y187500D01*
X-26500Y179167D01*
X-23250Y187500D01*
Y177500D01*
G01X-14000D02*
X-19000D01*
Y187500D01*
X-14000D01*
G01X-16000Y182667D02*
X-19000D01*
G01X-9375Y177500D02*
Y187500D01*
X-3625Y177500D01*
Y187500D01*
G01X875Y178833D02*
X1875Y178000D01*
X3000Y177500D01*
X4000D01*
X5000Y178000D01*
X5750Y178833D01*
X6125Y180000D01*
X5875Y181166D01*
X5250Y182167D01*
X4125Y182833D01*
X2625Y183167D01*
X1750Y183833D01*
X1375Y185000D01*
X1625Y186167D01*
X2250Y187000D01*
X3125Y187500D01*
X4000D01*
X4875Y187167D01*
X5625Y186333D01*
G01X12000Y187500D02*
X15000D01*
G01X13500D02*
Y177500D01*
G01X12000D02*
X15000D01*
G01X23500D02*
X22500Y177667D01*
X21625Y178333D01*
X20875Y179333D01*
X20375Y180500D01*
X20125Y181833D01*
Y183167D01*
X20375Y184500D01*
X20875Y185667D01*
X21625Y186666D01*
X22500Y187333D01*
X23500Y187500D01*
X24500Y187333D01*
X25375Y186666D01*
X26125Y185667D01*
X26625Y184500D01*
X26875Y183167D01*
Y181833D01*
X26625Y180500D01*
X26125Y179333D01*
X25375Y178333D01*
X24500Y177667D01*
X23500Y177500D01*
G01X30625D02*
Y187500D01*
X36375Y177500D01*
Y187500D01*
G01X50375Y177500D02*
X53500Y187500D01*
X56625Y177500D01*
G01X55500Y181000D02*
X51500D01*
G01X61000Y177500D02*
Y187500D01*
X64125D01*
X65125Y187000D01*
X65750Y186333D01*
X66000Y185000D01*
X65750Y183667D01*
X65000Y182833D01*
X64125Y182333D01*
X61000D01*
G01X64125D02*
X66000Y177500D01*
G01X76000D02*
X71000D01*
Y187500D01*
X76000D01*
G01X74000Y182667D02*
X71000D01*
G01X92000Y187500D02*
X95000D01*
G01X93500D02*
Y177500D01*
G01X92000D02*
X95000D01*
G01X100625D02*
Y187500D01*
X106375Y177500D01*
Y187500D01*
G01X120250Y177500D02*
Y187500D01*
X123500Y179167D01*
X126750Y187500D01*
Y177500D01*
G01X130250D02*
Y187500D01*
X133500Y179167D01*
X136750Y187500D01*
Y177500D01*
G01X-106158Y309819D02*
X-102437D01*
G01X-104453Y312528D02*
Y307110D01*
G01X-95462Y308152D02*
X-94533Y306694D01*
X-93293Y305861D01*
X-91897Y305652D01*
X-90657Y305861D01*
X-89417Y306902D01*
X-88642Y308152D01*
X-88488Y309402D01*
X-88797Y310860D01*
X-89882Y311902D01*
X-90968Y312319D01*
X-92362D01*
G01X-90968D02*
X-90037Y312944D01*
X-89262Y313986D01*
X-88952Y315236D01*
X-89262Y316486D01*
X-90037Y317527D01*
X-91432Y318152D01*
X-92827Y317944D01*
X-94222Y317111D01*
G01X-79652Y305236D02*
X-79962Y305444D01*
Y305861D01*
X-79652Y306069D01*
X-79342Y305861D01*
Y305444D01*
X-79652Y305236D01*
G01X-67252Y318152D02*
X-68493Y317736D01*
X-69422Y316694D01*
X-70042Y315444D01*
X-70507Y313777D01*
X-70662Y311902D01*
X-70507Y310027D01*
X-70042Y308360D01*
X-69422Y307110D01*
X-68493Y306069D01*
X-67252Y305652D01*
X-66012Y306069D01*
X-65082Y307110D01*
X-64462Y308360D01*
X-63997Y310027D01*
X-63842Y311902D01*
X-63997Y313777D01*
X-64462Y315444D01*
X-65082Y316694D01*
X-66012Y317736D01*
X-67252Y318152D01*
G01X-57642Y305236D02*
X-52062Y318152D01*
G01X-44467Y309819D02*
X-40437D01*
G01X-33462Y308152D02*
X-32533Y306694D01*
X-31293Y305861D01*
X-29897Y305652D01*
X-28657Y305861D01*
X-27417Y306902D01*
X-26642Y308152D01*
X-26488Y309402D01*
X-26797Y310860D01*
X-27882Y311902D01*
X-28968Y312319D01*
X-30363D01*
G01X-28968D02*
X-28037Y312944D01*
X-27262Y313986D01*
X-26952Y315236D01*
X-27262Y316486D01*
X-28037Y317527D01*
X-29432Y318152D01*
X-30827Y317944D01*
X-32222Y317111D01*
G01X-17652Y305236D02*
X-17962Y305444D01*
Y305861D01*
X-17652Y306069D01*
X-17342Y305861D01*
Y305444D01*
X-17652Y305236D01*
G01X-5252Y318152D02*
X-6493Y317736D01*
X-7422Y316694D01*
X-8042Y315444D01*
X-8507Y313777D01*
X-8662Y311902D01*
X-8507Y310027D01*
X-8042Y308360D01*
X-7422Y307110D01*
X-6493Y306069D01*
X-5252Y305652D01*
X-4012Y306069D01*
X-3082Y307110D01*
X-2462Y308360D01*
X-1997Y310027D01*
X-1842Y311902D01*
X-1997Y313777D01*
X-2462Y315444D01*
X-3082Y316694D01*
X-4012Y317736D01*
X-5252Y318152D01*
G01X-106158Y284819D02*
X-102437D01*
G01X-104453Y287528D02*
Y282110D01*
G01X-95462Y283152D02*
X-94533Y281694D01*
X-93293Y280861D01*
X-91897Y280652D01*
X-90657Y280861D01*
X-89417Y281902D01*
X-88642Y283152D01*
X-88488Y284402D01*
X-88797Y285860D01*
X-89882Y286902D01*
X-90968Y287319D01*
X-92362D01*
G01X-90968D02*
X-90037Y287944D01*
X-89262Y288986D01*
X-88952Y290236D01*
X-89262Y291486D01*
X-90037Y292527D01*
X-91432Y293152D01*
X-92827Y292944D01*
X-94222Y292111D01*
G01X-79652Y280236D02*
X-79962Y280444D01*
Y280861D01*
X-79652Y281069D01*
X-79342Y280861D01*
Y280444D01*
X-79652Y280236D01*
G01X-67252Y293152D02*
X-68493Y292736D01*
X-69422Y291694D01*
X-70042Y290444D01*
X-70507Y288777D01*
X-70662Y286902D01*
X-70507Y285027D01*
X-70042Y283360D01*
X-69422Y282110D01*
X-68493Y281069D01*
X-67252Y280652D01*
X-66012Y281069D01*
X-65082Y282110D01*
X-64462Y283360D01*
X-63997Y285027D01*
X-63842Y286902D01*
X-63997Y288777D01*
X-64462Y290444D01*
X-65082Y291694D01*
X-66012Y292736D01*
X-67252Y293152D01*
G01X-57642Y280236D02*
X-52062Y293152D01*
G01X-44467Y284819D02*
X-40437D01*
G01X-33462Y283152D02*
X-32533Y281694D01*
X-31293Y280861D01*
X-29897Y280652D01*
X-28657Y280861D01*
X-27417Y281902D01*
X-26642Y283152D01*
X-26488Y284402D01*
X-26797Y285860D01*
X-27882Y286902D01*
X-28968Y287319D01*
X-30363D01*
G01X-28968D02*
X-28037Y287944D01*
X-27262Y288986D01*
X-26952Y290236D01*
X-27262Y291486D01*
X-28037Y292527D01*
X-29432Y293152D01*
X-30827Y292944D01*
X-32222Y292111D01*
G01X-17652Y280236D02*
X-17962Y280444D01*
Y280861D01*
X-17652Y281069D01*
X-17342Y280861D01*
Y280444D01*
X-17652Y280236D01*
G01X-5252Y293152D02*
X-6493Y292736D01*
X-7422Y291694D01*
X-8042Y290444D01*
X-8507Y288777D01*
X-8662Y286902D01*
X-8507Y285027D01*
X-8042Y283360D01*
X-7422Y282110D01*
X-6493Y281069D01*
X-5252Y280652D01*
X-4012Y281069D01*
X-3082Y282110D01*
X-2462Y283360D01*
X-1997Y285027D01*
X-1842Y286902D01*
X-1997Y288777D01*
X-2462Y290444D01*
X-3082Y291694D01*
X-4012Y292736D01*
X-5252Y293152D01*
G01X-76455Y-61750D02*
X-69945Y-49250D01*
G01X-76455D02*
X-69945Y-61750D01*
G01X-63745Y-51333D02*
X-62815Y-50084D01*
X-61730Y-49458D01*
X-60490Y-49250D01*
X-58940Y-49667D01*
X-57855Y-50708D01*
X-57545Y-51958D01*
X-57700Y-53209D01*
X-58320Y-54250D01*
X-61420Y-56333D01*
X-62815Y-57792D01*
X-63745Y-59875D01*
X-64055Y-61750D01*
X-57545D01*
G01X-34226Y119461D02*
G03X-28279Y117500I5947J8039D01*
G01X30000D01*
G02Y2500I0J-57500D01*
G01X15811D01*
G03X6776Y-3214I0J-10000D01*
G02X-6776I-6776J3214D01*
G03X-15811Y2500I-9035J-4286D01*
G01X-30000D01*
G02X-49624Y114048I0J57500D01*
G03X-44836Y117724I-3413J9400D01*
G02X-34226Y119461I6150J-4293D01*
G01X-67275Y141000D02*
X-28398D01*
G01X-1256Y-7394D02*
X-11000Y-30000D01*
X-19975Y-29917D01*
G01X-28398Y127343D02*
Y150842D01*
G01X-12650Y143461D02*
X-28398Y141000D01*
X-12650Y138539D01*
Y143461D01*
G01X-28398Y141000D02*
X30678D01*
G01X23041Y-9820D02*
X12128Y1797D01*
X18977Y-12596D01*
X23041Y-9820D01*
G01X12128Y1797D02*
X33500Y-29500D01*
X45675D01*
G01X-5230Y-22830D02*
X-1256Y-7394D01*
X-9749Y-20882D01*
X-5230Y-22830D01*
G01X14930Y138539D02*
X30678Y141000D01*
X14930Y143461D01*
Y138539D01*
G01X31867Y2500D02*
X151842D01*
G01X26532Y117500D02*
X151842D01*
G01X30678Y127339D02*
Y150842D01*
G01X45898Y349402D02*
Y274402D01*
G01X50083Y280652D02*
Y293152D01*
X57212Y280652D01*
Y293152D01*
G01X66048Y280652D02*
X64807Y280861D01*
X63723Y281694D01*
X62793Y282944D01*
X62172Y284402D01*
X61862Y286069D01*
Y287736D01*
X62172Y289402D01*
X62793Y290861D01*
X63723Y292111D01*
X64807Y292944D01*
X66048Y293152D01*
X67288Y292944D01*
X68372Y292111D01*
X69303Y290861D01*
X69923Y289402D01*
X70233Y287736D01*
Y286069D01*
X69923Y284402D01*
X69303Y282944D01*
X68372Y281694D01*
X67288Y280861D01*
X66048Y280652D01*
G01X74883D02*
Y293152D01*
X82012Y280652D01*
Y293152D01*
G01X88833Y284819D02*
X92863D01*
G01X100148Y280652D02*
Y293152D01*
X103868D01*
X105108Y292527D01*
X106038Y291069D01*
X106348Y289402D01*
X106038Y287736D01*
X105263Y286486D01*
X103868Y285860D01*
X100148D01*
G01X112548Y293152D02*
Y280652D01*
X118748D01*
G01X124172D02*
X128048Y293152D01*
X131923Y280652D01*
G01X130528Y285027D02*
X125567D01*
G01X140448Y293152D02*
Y280652D01*
G01X136883Y293152D02*
X144012D01*
G01X155948Y280652D02*
X149748D01*
Y293152D01*
X155948D01*
G01X153468Y287111D02*
X149748D01*
G01X161838Y280652D02*
Y293152D01*
X164938D01*
X166178Y292527D01*
X167108Y291694D01*
X167883Y290444D01*
X168503Y288986D01*
X168658Y286902D01*
X168503Y284819D01*
X167883Y283360D01*
X167108Y282110D01*
X166178Y281277D01*
X164938Y280652D01*
X161838D01*
G01X72545Y-61250D02*
X79055Y-48750D01*
G01X72545D02*
X79055Y-61250D01*
G01X90060D02*
Y-48750D01*
X84325Y-57708D01*
X92075D01*
G01X56600Y-35750D02*
Y-23250D01*
X60475D01*
X61715Y-23875D01*
X62490Y-24708D01*
X62800Y-26375D01*
X62490Y-28042D01*
X61560Y-29083D01*
X60475Y-29708D01*
X56600D01*
G01X60475D02*
X62800Y-35750D01*
G01X69155Y-25333D02*
X70085Y-24084D01*
X71170Y-23458D01*
X72410Y-23250D01*
X73960Y-23667D01*
X75045Y-24708D01*
X75355Y-25958D01*
X75200Y-27209D01*
X74580Y-28250D01*
X71480Y-30333D01*
X70085Y-31792D01*
X69155Y-33875D01*
X68845Y-35750D01*
X75355D01*
G01X84500Y-36167D02*
X84190Y-35958D01*
Y-35542D01*
X84500Y-35333D01*
X84810Y-35542D01*
Y-35958D01*
X84500Y-36167D01*
G01X93490Y-33875D02*
X94420Y-34917D01*
X95505Y-35542D01*
X96900Y-35750D01*
X98295Y-35333D01*
X99380Y-34500D01*
X100155Y-33042D01*
X100310Y-31375D01*
X100000Y-29708D01*
X99225Y-28667D01*
X98140Y-27834D01*
X97055Y-27625D01*
X95970Y-27834D01*
X94575Y-28667D01*
X95040Y-23250D01*
X99225D01*
G01X111160Y-35750D02*
Y-23250D01*
X105425Y-32208D01*
X113175D01*
G01X75348Y305652D02*
Y318152D01*
X79068D01*
X80308Y317527D01*
X81238Y316069D01*
X81548Y314402D01*
X81238Y312736D01*
X80463Y311486D01*
X79068Y310860D01*
X75348D01*
G01X87748Y318152D02*
Y305652D01*
X93948D01*
G01X99372D02*
X103248Y318152D01*
X107123Y305652D01*
G01X105728Y310027D02*
X100767D01*
G01X115647Y318152D02*
Y305652D01*
G01X112083Y318152D02*
X119213D01*
G01X131148Y305652D02*
X124948D01*
Y318152D01*
X131148D01*
G01X128668Y312111D02*
X124948D01*
G01X137038Y305652D02*
Y318152D01*
X140138D01*
X141378Y317527D01*
X142308Y316694D01*
X143083Y315444D01*
X143703Y313986D01*
X143858Y311902D01*
X143703Y309819D01*
X143083Y308360D01*
X142308Y307110D01*
X141378Y306277D01*
X140138Y305652D01*
X137038D01*
G01X75348Y330652D02*
Y343152D01*
X79068D01*
X80308Y342527D01*
X81238Y341069D01*
X81548Y339402D01*
X81238Y337736D01*
X80463Y336486D01*
X79068Y335860D01*
X75348D01*
G01X87748Y343152D02*
Y330652D01*
X93948D01*
G01X99372D02*
X103248Y343152D01*
X107123Y330652D01*
G01X105728Y335027D02*
X100767D01*
G01X115647Y343152D02*
Y330652D01*
G01X112083Y343152D02*
X119213D01*
G01X131148Y330652D02*
X124948D01*
Y343152D01*
X131148D01*
G01X128668Y337111D02*
X124948D01*
G01X137038Y330652D02*
Y343152D01*
X140138D01*
X141378Y342527D01*
X142308Y341694D01*
X143083Y340444D01*
X143703Y338986D01*
X143858Y336902D01*
X143703Y334819D01*
X143083Y333360D01*
X142308Y332110D01*
X141378Y331277D01*
X140138Y330652D01*
X137038D01*
G01X139539Y18248D02*
X142000Y2500D01*
X144461Y18248D01*
X139539D01*
G01X114255Y71167D02*
X115185Y72416D01*
X116270Y73042D01*
X117510Y73250D01*
X119060Y72833D01*
X120145Y71792D01*
X120455Y70542D01*
X120300Y69291D01*
X119680Y68250D01*
X116580Y66167D01*
X115185Y64708D01*
X114255Y62625D01*
X113945Y60750D01*
X120455D01*
G01X126965Y62208D02*
X128050Y61167D01*
X129290Y60750D01*
X130530Y61167D01*
X131615Y62416D01*
X132390Y64292D01*
X132700Y66167D01*
Y68458D01*
X132390Y70333D01*
X131615Y72000D01*
X130685Y72833D01*
X129600Y73250D01*
X128360Y72833D01*
X127430Y72000D01*
X126810Y70750D01*
X126500Y69083D01*
X126810Y67625D01*
X127585Y66167D01*
X128515Y65333D01*
X129600Y65125D01*
X130840Y65541D01*
X131770Y66583D01*
X132700Y68458D01*
G01X142000Y60333D02*
X141690Y60542D01*
Y60958D01*
X142000Y61167D01*
X142310Y60958D01*
Y60542D01*
X142000Y60333D01*
G01X151455Y71167D02*
X152385Y72416D01*
X153470Y73042D01*
X154710Y73250D01*
X156260Y72833D01*
X157345Y71792D01*
X157655Y70542D01*
X157500Y69291D01*
X156880Y68250D01*
X153780Y66167D01*
X152385Y64708D01*
X151455Y62625D01*
X151145Y60750D01*
X157655D01*
G01X166800D02*
Y73250D01*
X164940Y70750D01*
G01Y60750D02*
X168660D01*
G01X144461Y101752D02*
X142000Y117500D01*
X139539Y101752D01*
X144461D01*
G01X142000Y51375D02*
Y2500D01*
G01Y82625D02*
Y117500D01*
G01X172998Y349402D02*
Y274402D01*
G01X199348Y330652D02*
X198107Y330861D01*
X197023Y331694D01*
X196093Y332944D01*
X195472Y334402D01*
X195162Y336069D01*
Y337736D01*
X195472Y339402D01*
X196093Y340861D01*
X197023Y342111D01*
X198107Y342944D01*
X199348Y343152D01*
X200588Y342944D01*
X201672Y342111D01*
X202603Y340861D01*
X203223Y339402D01*
X203533Y337736D01*
Y336069D01*
X203223Y334402D01*
X202603Y332944D01*
X201672Y331694D01*
X200588Y330861D01*
X199348Y330652D01*
G01X200588Y333986D02*
X202448Y330652D01*
G01X211747Y343152D02*
Y330652D01*
G01X208183Y343152D02*
X215313D01*
G01X224148Y330652D02*
Y336277D01*
X221048Y343152D01*
G01X227248D02*
X224148Y336277D01*
G01X205548Y305652D02*
Y318152D01*
X203688Y315653D01*
G01Y305652D02*
X207407D01*
G01X217948D02*
Y318152D01*
X216088Y315653D01*
G01Y305652D02*
X219807D01*
G01X208802Y291069D02*
X209733Y292319D01*
X210818Y292944D01*
X212058Y293152D01*
X213608Y292736D01*
X214693Y291694D01*
X215003Y290444D01*
X214848Y289194D01*
X214228Y288152D01*
X211128Y286069D01*
X209733Y284611D01*
X208802Y282527D01*
X208493Y280652D01*
X215003D01*
G01X344948Y304252D02*
Y314252D01*
X343448Y312252D01*
G01Y304252D02*
X346447D01*
G01X354948Y314252D02*
X353948Y313919D01*
X353198Y313086D01*
X352698Y312086D01*
X352323Y310752D01*
X352198Y309252D01*
X352323Y307752D01*
X352698Y306419D01*
X353198Y305419D01*
X353948Y304586D01*
X354948Y304252D01*
X355948Y304586D01*
X356698Y305419D01*
X357198Y306419D01*
X357573Y307752D01*
X357698Y309252D01*
X357573Y310752D01*
X357198Y312086D01*
X356698Y313086D01*
X355948Y313919D01*
X354948Y314252D01*
G01X364948Y303919D02*
X364698Y304086D01*
Y304419D01*
X364948Y304586D01*
X365198Y304419D01*
Y304086D01*
X364948Y303919D01*
G01X374948Y304252D02*
Y314252D01*
X373448Y312252D01*
G01Y304252D02*
X376447D01*
G01X384948Y314252D02*
X383948Y313919D01*
X383198Y313086D01*
X382698Y312086D01*
X382323Y310752D01*
X382198Y309252D01*
X382323Y307752D01*
X382698Y306419D01*
X383198Y305419D01*
X383948Y304586D01*
X384948Y304252D01*
X385948Y304586D01*
X386698Y305419D01*
X387198Y306419D01*
X387573Y307752D01*
X387698Y309252D01*
X387573Y310752D01*
X387198Y312086D01*
X386698Y313086D01*
X385948Y313919D01*
X384948Y314252D01*
G01X394948D02*
X393948Y313919D01*
X393198Y313086D01*
X392698Y312086D01*
X392323Y310752D01*
X392198Y309252D01*
X392323Y307752D01*
X392698Y306419D01*
X393198Y305419D01*
X393948Y304586D01*
X394948Y304252D01*
X395948Y304586D01*
X396698Y305419D01*
X397198Y306419D01*
X397573Y307752D01*
X397698Y309252D01*
X397573Y310752D01*
X397198Y312086D01*
X396698Y313086D01*
X395948Y313919D01*
X394948Y314252D01*
G01X402698Y303919D02*
X407198Y314252D01*
G01X402698D02*
X401947Y313919D01*
X401572Y313419D01*
X401323Y312419D01*
X401572Y311419D01*
X401947Y310919D01*
X402698Y310586D01*
X403448Y310919D01*
X403822Y311419D01*
X404073Y312419D01*
X403822Y313419D01*
X403448Y313919D01*
X402698Y314252D01*
G01X407198Y307586D02*
X406448Y307252D01*
X406073Y306752D01*
X405822Y305752D01*
X406073Y304752D01*
X406448Y304252D01*
X407198Y303919D01*
X407948Y304252D01*
X408323Y304752D01*
X408573Y305752D01*
X408323Y306752D01*
X407948Y307252D01*
X407198Y307586D01*
G01X417698Y313419D02*
X416948Y313919D01*
X416073Y314252D01*
X415073D01*
X413948Y313752D01*
X413073Y312919D01*
X412448Y311919D01*
X411947Y310252D01*
X411823Y308752D01*
X412073Y307252D01*
X412448Y306252D01*
X413198Y305252D01*
X414073Y304586D01*
X414948Y304252D01*
X415823D01*
X416698Y304586D01*
X417448Y305086D01*
X418073Y305752D01*
G01X424948Y304252D02*
X423948Y304419D01*
X423073Y305086D01*
X422323Y306086D01*
X421823Y307252D01*
X421573Y308586D01*
Y309919D01*
X421823Y311252D01*
X422323Y312419D01*
X423073Y313419D01*
X423948Y314086D01*
X424948Y314252D01*
X425948Y314086D01*
X426822Y313419D01*
X427573Y312419D01*
X428073Y311252D01*
X428323Y309919D01*
Y308586D01*
X428073Y307252D01*
X427573Y306086D01*
X426822Y305086D01*
X425948Y304419D01*
X424948Y304252D01*
G01X432073D02*
Y314252D01*
X437823Y304252D01*
Y314252D01*
G01X444948D02*
Y304252D01*
G01X442073Y314252D02*
X447823D01*
G01X453448D02*
X456447D01*
G01X454948D02*
Y304252D01*
G01X453448D02*
X456447D01*
G01X462073D02*
Y314252D01*
X467823Y304252D01*
Y314252D01*
G01X472198D02*
Y307086D01*
X472698Y305585D01*
X473698Y304586D01*
X474948Y304252D01*
X476198Y304586D01*
X477198Y305585D01*
X477698Y307086D01*
Y314252D01*
G01X483448D02*
X486447D01*
G01X484948D02*
Y304252D01*
G01X483448D02*
X486447D01*
G01X494948Y314252D02*
Y304252D01*
G01X492073Y314252D02*
X497823D01*
G01X504948Y304252D02*
Y308752D01*
X502448Y314252D01*
G01X507448D02*
X504948Y308752D01*
G01X524948Y314252D02*
Y304252D01*
G01X522073Y314252D02*
X527823D01*
G01X537448Y304252D02*
X532448D01*
Y314252D01*
X537448D01*
G01X535448Y309419D02*
X532448D01*
G01X542323Y305585D02*
X543323Y304752D01*
X544448Y304252D01*
X545448D01*
X546448Y304752D01*
X547198Y305585D01*
X547573Y306752D01*
X547323Y307919D01*
X546698Y308919D01*
X545573Y309586D01*
X544073Y309919D01*
X543198Y310586D01*
X542822Y311752D01*
X543073Y312919D01*
X543698Y313752D01*
X544573Y314252D01*
X545448D01*
X546323Y313919D01*
X547073Y313086D01*
G01X554948Y314252D02*
Y304252D01*
G01X552073Y314252D02*
X557823D01*
G01X563448D02*
X566447D01*
G01X564948D02*
Y304252D01*
G01X563448D02*
X566447D01*
G01X572073D02*
Y314252D01*
X577823Y304252D01*
Y314252D01*
G01X585698Y309252D02*
X588198D01*
Y306252D01*
X587448Y305252D01*
X586573Y304586D01*
X585323Y304252D01*
X584073Y304586D01*
X583198Y305252D01*
X582448Y306252D01*
X581947Y307419D01*
X581698Y308752D01*
Y309919D01*
X581947Y310919D01*
X582448Y312086D01*
X583198Y313086D01*
X583948Y313752D01*
X584948Y314252D01*
X585823D01*
X586823Y313919D01*
X587573Y313252D01*
G01X602198Y314252D02*
Y307086D01*
X602698Y305585D01*
X603698Y304586D01*
X604948Y304252D01*
X606198Y304586D01*
X607198Y305585D01*
X607698Y307086D01*
Y314252D01*
G01X612323Y305585D02*
X613323Y304752D01*
X614448Y304252D01*
X615448D01*
X616448Y304752D01*
X617198Y305585D01*
X617573Y306752D01*
X617323Y307919D01*
X616698Y308919D01*
X615573Y309586D01*
X614073Y309919D01*
X613198Y310586D01*
X612822Y311752D01*
X613073Y312919D01*
X613698Y313752D01*
X614573Y314252D01*
X615448D01*
X616323Y313919D01*
X617073Y313086D01*
G01X623448Y314252D02*
X626447D01*
G01X624948D02*
Y304252D01*
G01X623448D02*
X626447D01*
G01X632073D02*
Y314252D01*
X637823Y304252D01*
Y314252D01*
G01X645698Y309252D02*
X648198D01*
Y306252D01*
X647448Y305252D01*
X646573Y304586D01*
X645323Y304252D01*
X644073Y304586D01*
X643198Y305252D01*
X642448Y306252D01*
X641947Y307419D01*
X641698Y308752D01*
Y309919D01*
X641947Y310919D01*
X642448Y312086D01*
X643198Y313086D01*
X643948Y313752D01*
X644948Y314252D01*
X645822D01*
X646822Y313919D01*
X647573Y313252D01*
G01X662198Y304252D02*
Y314252D01*
X664698D01*
X665698Y313752D01*
X666448Y313086D01*
X667073Y312086D01*
X667573Y310919D01*
X667698Y309252D01*
X667573Y307586D01*
X667073Y306419D01*
X666448Y305419D01*
X665698Y304752D01*
X664698Y304252D01*
X662198D01*
G01X671822D02*
X674948Y314252D01*
X678073Y304252D01*
G01X676948Y307752D02*
X672948D01*
G01X684948Y314252D02*
Y304252D01*
G01X682073Y314252D02*
X687823D01*
G01X691822Y304252D02*
X694948Y314252D01*
X698073Y304252D01*
G01X696948Y307752D02*
X692948D01*
G01X705948Y309586D02*
X706448Y310086D01*
X706823Y310919D01*
X707073Y312086D01*
X706823Y313086D01*
X706323Y313752D01*
X705448Y314252D01*
X702073D01*
Y304252D01*
X706198D01*
X707073Y304919D01*
X707573Y305919D01*
X707823Y307086D01*
X707573Y308252D01*
X706823Y309252D01*
X705948Y309586D01*
X702073D01*
G01X711823Y304252D02*
X714948Y314252D01*
X718073Y304252D01*
G01X716948Y307752D02*
X712948D01*
G01X722323Y305585D02*
X723323Y304752D01*
X724448Y304252D01*
X725448D01*
X726448Y304752D01*
X727198Y305585D01*
X727573Y306752D01*
X727323Y307919D01*
X726698Y308919D01*
X725573Y309586D01*
X724073Y309919D01*
X723198Y310586D01*
X722822Y311752D01*
X723073Y312919D01*
X723698Y313752D01*
X724573Y314252D01*
X725448D01*
X726323Y313919D01*
X727073Y313086D01*
G01X737448Y304252D02*
X732448D01*
Y314252D01*
X737448D01*
G01X735448Y309419D02*
X732448D01*
G01X752073Y304252D02*
Y314252D01*
X757823Y304252D01*
Y314252D01*
G01X767448Y304252D02*
X762448D01*
Y314252D01*
X767448D01*
G01X765448Y309419D02*
X762448D01*
G01X774948Y314252D02*
Y304252D01*
G01X772073Y314252D02*
X777823D01*
G01X782448D02*
Y304252D01*
X787448D01*
G01X793448Y314252D02*
X796447D01*
G01X794948D02*
Y304252D01*
G01X793448D02*
X796447D01*
G01X802323Y305585D02*
X803323Y304752D01*
X804448Y304252D01*
X805448D01*
X806448Y304752D01*
X807198Y305585D01*
X807573Y306752D01*
X807323Y307919D01*
X806698Y308919D01*
X805573Y309586D01*
X804073Y309919D01*
X803198Y310586D01*
X802823Y311752D01*
X803073Y312919D01*
X803698Y313752D01*
X804573Y314252D01*
X805448D01*
X806323Y313919D01*
X807073Y313086D01*
G01X814948Y314252D02*
Y304252D01*
G01X812073Y314252D02*
X817823D01*
G01X832323Y305585D02*
X833323Y304752D01*
X834448Y304252D01*
X835448D01*
X836448Y304752D01*
X837198Y305585D01*
X837573Y306752D01*
X837323Y307919D01*
X836698Y308919D01*
X835573Y309586D01*
X834073Y309919D01*
X833198Y310586D01*
X832822Y311752D01*
X833073Y312919D01*
X833698Y313752D01*
X834573Y314252D01*
X835448D01*
X836323Y313919D01*
X837073Y313086D01*
G01X842323Y304252D02*
Y314252D01*
G01X847573D02*
Y304252D01*
G01Y309252D02*
X842323D01*
G01X851823Y304252D02*
X854948Y314252D01*
X858073Y304252D01*
G01X856948Y307752D02*
X852948D01*
G01X862448Y314252D02*
Y304252D01*
X867448D01*
G01X872448Y314252D02*
Y304252D01*
X877448D01*
G01X895948Y309586D02*
X896448Y310086D01*
X896822Y310919D01*
X897073Y312086D01*
X896822Y313086D01*
X896323Y313752D01*
X895448Y314252D01*
X892073D01*
Y304252D01*
X896198D01*
X897073Y304919D01*
X897573Y305919D01*
X897823Y307086D01*
X897573Y308252D01*
X896822Y309252D01*
X895948Y309586D01*
X892073D01*
G01X907448Y304252D02*
X902448D01*
Y314252D01*
X907448D01*
G01X905448Y309419D02*
X902448D01*
G01X922448Y304252D02*
Y314252D01*
X925448D01*
X926448Y313752D01*
X927198Y312586D01*
X927448Y311252D01*
X927198Y309919D01*
X926573Y308919D01*
X925448Y308419D01*
X922448D01*
G01X937448Y304252D02*
X932448D01*
Y314252D01*
X937448D01*
G01X935448Y309419D02*
X932448D01*
G01X942448Y304252D02*
Y314252D01*
X945573D01*
X946573Y313752D01*
X947198Y313086D01*
X947448Y311752D01*
X947198Y310419D01*
X946448Y309586D01*
X945573Y309086D01*
X942448D01*
G01X945573D02*
X947448Y304252D01*
G01X952573D02*
Y314252D01*
X957323D01*
G01X955573Y309419D02*
X952573D01*
G01X964948Y304252D02*
X963948Y304419D01*
X963073Y305086D01*
X962323Y306086D01*
X961823Y307252D01*
X961573Y308586D01*
Y309919D01*
X961823Y311252D01*
X962323Y312419D01*
X963073Y313419D01*
X963948Y314086D01*
X964948Y314252D01*
X965948Y314086D01*
X966823Y313419D01*
X967573Y312419D01*
X968073Y311252D01*
X968323Y309919D01*
Y308586D01*
X968073Y307252D01*
X967573Y306086D01*
X966823Y305086D01*
X965948Y304419D01*
X964948Y304252D01*
G01X972448D02*
Y314252D01*
X975573D01*
X976573Y313752D01*
X977198Y313086D01*
X977448Y311752D01*
X977198Y310419D01*
X976448Y309586D01*
X975573Y309086D01*
X972448D01*
G01X975573D02*
X977448Y304252D01*
G01X981698D02*
Y314252D01*
X984948Y305919D01*
X988198Y314252D01*
Y304252D01*
G01X997448D02*
X992448D01*
Y314252D01*
X997448D01*
G01X995448Y309419D02*
X992448D01*
G01X1002198Y304252D02*
Y314252D01*
X1004698D01*
X1005698Y313752D01*
X1006448Y313086D01*
X1007073Y312086D01*
X1007573Y310919D01*
X1007698Y309252D01*
X1007573Y307586D01*
X1007073Y306419D01*
X1006448Y305419D01*
X1005698Y304752D01*
X1004698Y304252D01*
X1002198D01*
G01X1014948Y303919D02*
X1014698Y304086D01*
Y304419D01*
X1014948Y304586D01*
X1015198Y304419D01*
Y304086D01*
X1014948Y303919D01*
G01X345948Y279752D02*
Y289752D01*
X344448Y287753D01*
G01Y279752D02*
X347447D01*
G01X355948D02*
Y289752D01*
X354448Y287753D01*
G01Y279752D02*
X357447D01*
G01X365948Y279419D02*
X365698Y279586D01*
Y279919D01*
X365948Y280086D01*
X366198Y279919D01*
Y279586D01*
X365948Y279419D01*
G01X372822Y289752D02*
X375948Y279752D01*
X379073Y289752D01*
G01X388448Y279752D02*
X383448D01*
Y289752D01*
X388448D01*
G01X386448Y284919D02*
X383448D01*
G01X393073Y279752D02*
Y289752D01*
X398823Y279752D01*
Y289752D01*
G01X403198Y279752D02*
Y289752D01*
X405697D01*
X406698Y289252D01*
X407448Y288586D01*
X408073Y287586D01*
X408573Y286419D01*
X408698Y284752D01*
X408573Y283086D01*
X408073Y281919D01*
X407448Y280919D01*
X406698Y280252D01*
X405697Y279752D01*
X403198D01*
G01X415948D02*
X414948Y279919D01*
X414073Y280586D01*
X413323Y281586D01*
X412823Y282752D01*
X412572Y284086D01*
Y285419D01*
X412823Y286752D01*
X413323Y287919D01*
X414073Y288919D01*
X414948Y289586D01*
X415948Y289752D01*
X416948Y289586D01*
X417823Y288919D01*
X418573Y287919D01*
X419073Y286752D01*
X419323Y285419D01*
Y284086D01*
X419073Y282752D01*
X418573Y281586D01*
X417823Y280586D01*
X416948Y279919D01*
X415948Y279752D01*
G01X423448D02*
Y289752D01*
X426573D01*
X427573Y289252D01*
X428198Y288586D01*
X428448Y287252D01*
X428198Y285919D01*
X427448Y285086D01*
X426573Y284586D01*
X423448D01*
G01X426573D02*
X428448Y279752D01*
G01X443323Y281085D02*
X444323Y280252D01*
X445448Y279752D01*
X446448D01*
X447448Y280252D01*
X448198Y281085D01*
X448573Y282252D01*
X448323Y283419D01*
X447698Y284419D01*
X446573Y285086D01*
X445073Y285419D01*
X444198Y286086D01*
X443822Y287252D01*
X444073Y288419D01*
X444698Y289252D01*
X445573Y289752D01*
X446448D01*
X447323Y289419D01*
X448073Y288586D01*
G01X453323Y279752D02*
Y289752D01*
G01X458573D02*
Y279752D01*
G01Y284752D02*
X453323D01*
G01X465948Y279752D02*
X464948Y279919D01*
X464073Y280586D01*
X463323Y281586D01*
X462823Y282752D01*
X462572Y284086D01*
Y285419D01*
X462823Y286752D01*
X463323Y287919D01*
X464073Y288919D01*
X464948Y289586D01*
X465948Y289752D01*
X466948Y289586D01*
X467823Y288919D01*
X468573Y287919D01*
X469073Y286752D01*
X469323Y285419D01*
Y284086D01*
X469073Y282752D01*
X468573Y281586D01*
X467823Y280586D01*
X466948Y279919D01*
X465948Y279752D01*
G01X473198Y289752D02*
Y282586D01*
X473698Y281085D01*
X474698Y280086D01*
X475948Y279752D01*
X477198Y280086D01*
X478198Y281085D01*
X478698Y282586D01*
Y289752D01*
G01X483448D02*
Y279752D01*
X488448D01*
G01X493198D02*
Y289752D01*
X495698D01*
X496698Y289252D01*
X497448Y288586D01*
X498073Y287586D01*
X498573Y286419D01*
X498698Y284752D01*
X498573Y283086D01*
X498073Y281919D01*
X497448Y280919D01*
X496698Y280252D01*
X495698Y279752D01*
X493198D01*
G01X513573D02*
Y289752D01*
X518323D01*
G01X516573Y284919D02*
X513573D01*
G01X525948Y279752D02*
X524948Y279919D01*
X524073Y280586D01*
X523323Y281586D01*
X522822Y282752D01*
X522573Y284086D01*
Y285419D01*
X522822Y286752D01*
X523323Y287919D01*
X524073Y288919D01*
X524948Y289586D01*
X525948Y289752D01*
X526948Y289586D01*
X527823Y288919D01*
X528573Y287919D01*
X529073Y286752D01*
X529323Y285419D01*
Y284086D01*
X529073Y282752D01*
X528573Y281586D01*
X527823Y280586D01*
X526948Y279919D01*
X525948Y279752D01*
G01X533448Y289752D02*
Y279752D01*
X538448D01*
G01X543448Y289752D02*
Y279752D01*
X548448D01*
G01X555948D02*
X554948Y279919D01*
X554073Y280586D01*
X553323Y281586D01*
X552823Y282752D01*
X552572Y284086D01*
Y285419D01*
X552823Y286752D01*
X553323Y287919D01*
X554073Y288919D01*
X554948Y289586D01*
X555948Y289752D01*
X556948Y289586D01*
X557823Y288919D01*
X558573Y287919D01*
X559073Y286752D01*
X559323Y285419D01*
Y284086D01*
X559073Y282752D01*
X558573Y281586D01*
X557823Y280586D01*
X556948Y279919D01*
X555948Y279752D01*
G01X562198Y289752D02*
X563948Y279752D01*
X565948Y289752D01*
X567948Y279752D01*
X569698Y289752D01*
G01X583448Y279752D02*
Y289752D01*
X586573D01*
X587573Y289252D01*
X588198Y288586D01*
X588448Y287252D01*
X588198Y285919D01*
X587448Y285086D01*
X586573Y284586D01*
X583448D01*
G01X586573D02*
X588448Y279752D01*
G01X595948D02*
X594948Y279919D01*
X594073Y280586D01*
X593323Y281586D01*
X592822Y282752D01*
X592573Y284086D01*
Y285419D01*
X592822Y286752D01*
X593323Y287919D01*
X594073Y288919D01*
X594948Y289586D01*
X595948Y289752D01*
X596948Y289586D01*
X597822Y288919D01*
X598573Y287919D01*
X599073Y286752D01*
X599323Y285419D01*
Y284086D01*
X599073Y282752D01*
X598573Y281586D01*
X597822Y280586D01*
X596948Y279919D01*
X595948Y279752D01*
G01X603323D02*
Y289752D01*
G01X608573D02*
Y279752D01*
G01Y284752D02*
X603323D01*
G01X613323Y281085D02*
X614323Y280252D01*
X615448Y279752D01*
X616448D01*
X617448Y280252D01*
X618198Y281085D01*
X618573Y282252D01*
X618323Y283419D01*
X617698Y284419D01*
X616573Y285086D01*
X615073Y285419D01*
X614198Y286086D01*
X613822Y287252D01*
X614073Y288419D01*
X614698Y289252D01*
X615573Y289752D01*
X616448D01*
X617323Y289419D01*
X618073Y288586D01*
G01X638698Y288919D02*
X637948Y289419D01*
X637073Y289752D01*
X636073D01*
X634948Y289252D01*
X634073Y288419D01*
X633448Y287419D01*
X632947Y285752D01*
X632823Y284252D01*
X633073Y282752D01*
X633448Y281752D01*
X634198Y280752D01*
X635073Y280086D01*
X635948Y279752D01*
X636823D01*
X637698Y280086D01*
X638448Y280586D01*
X639073Y281252D01*
G01X645948Y279752D02*
X644948Y279919D01*
X644073Y280586D01*
X643323Y281586D01*
X642822Y282752D01*
X642573Y284086D01*
Y285419D01*
X642822Y286752D01*
X643323Y287919D01*
X644073Y288919D01*
X644948Y289586D01*
X645948Y289752D01*
X646948Y289586D01*
X647822Y288919D01*
X648573Y287919D01*
X649073Y286752D01*
X649323Y285419D01*
Y284086D01*
X649073Y282752D01*
X648573Y281586D01*
X647822Y280586D01*
X646948Y279919D01*
X645948Y279752D01*
G01X652698D02*
Y289752D01*
X655948Y281419D01*
X659198Y289752D01*
Y279752D01*
G01X663448D02*
Y289752D01*
X666448D01*
X667448Y289252D01*
X668198Y288086D01*
X668448Y286752D01*
X668198Y285419D01*
X667573Y284419D01*
X666448Y283919D01*
X663448D01*
G01X673448Y289752D02*
Y279752D01*
X678448D01*
G01X682823D02*
X685948Y289752D01*
X689073Y279752D01*
G01X687948Y283252D02*
X683948D01*
G01X694448Y289752D02*
X697447D01*
G01X695948D02*
Y279752D01*
G01X694448D02*
X697447D01*
G01X703073D02*
Y289752D01*
X708823Y279752D01*
Y289752D01*
G01X715948D02*
Y279752D01*
G01X713073Y289752D02*
X718823D01*
G01X733448Y279752D02*
Y289752D01*
X736448D01*
X737448Y289252D01*
X738198Y288086D01*
X738448Y286752D01*
X738198Y285419D01*
X737573Y284419D01*
X736448Y283919D01*
X733448D01*
G01X743448Y279752D02*
Y289752D01*
X746573D01*
X747573Y289252D01*
X748198Y288586D01*
X748448Y287252D01*
X748198Y285919D01*
X747448Y285086D01*
X746573Y284586D01*
X743448D01*
G01X746573D02*
X748448Y279752D01*
G01X755948D02*
X754948Y279919D01*
X754073Y280586D01*
X753323Y281586D01*
X752823Y282752D01*
X752572Y284086D01*
Y285419D01*
X752823Y286752D01*
X753323Y287919D01*
X754073Y288919D01*
X754948Y289586D01*
X755948Y289752D01*
X756948Y289586D01*
X757823Y288919D01*
X758573Y287919D01*
X759073Y286752D01*
X759323Y285419D01*
Y284086D01*
X759073Y282752D01*
X758573Y281586D01*
X757823Y280586D01*
X756948Y279919D01*
X755948Y279752D01*
G01X768698Y288919D02*
X767948Y289419D01*
X767073Y289752D01*
X766073D01*
X764948Y289252D01*
X764073Y288419D01*
X763448Y287419D01*
X762947Y285752D01*
X762822Y284252D01*
X763073Y282752D01*
X763448Y281752D01*
X764198Y280752D01*
X765073Y280086D01*
X765948Y279752D01*
X766822D01*
X767698Y280086D01*
X768448Y280586D01*
X769073Y281252D01*
G01X778448Y279752D02*
X773448D01*
Y289752D01*
X778448D01*
G01X776448Y284919D02*
X773448D01*
G01X783323Y281085D02*
X784323Y280252D01*
X785448Y279752D01*
X786448D01*
X787448Y280252D01*
X788198Y281085D01*
X788573Y282252D01*
X788323Y283419D01*
X787698Y284419D01*
X786573Y285086D01*
X785073Y285419D01*
X784198Y286086D01*
X783822Y287252D01*
X784073Y288419D01*
X784698Y289252D01*
X785573Y289752D01*
X786448D01*
X787323Y289419D01*
X788073Y288586D01*
G01X793323Y281085D02*
X794323Y280252D01*
X795448Y279752D01*
X796448D01*
X797448Y280252D01*
X798198Y281085D01*
X798573Y282252D01*
X798323Y283419D01*
X797698Y284419D01*
X796573Y285086D01*
X795073Y285419D01*
X794198Y286086D01*
X793822Y287252D01*
X794073Y288419D01*
X794698Y289252D01*
X795573Y289752D01*
X796448D01*
X797323Y289419D01*
X798073Y288586D01*
G01X813573Y279752D02*
Y289752D01*
X818323D01*
G01X816573Y284919D02*
X813573D01*
G01X825948Y279752D02*
X824948Y279919D01*
X824073Y280586D01*
X823323Y281586D01*
X822822Y282752D01*
X822573Y284086D01*
Y285419D01*
X822822Y286752D01*
X823323Y287919D01*
X824073Y288919D01*
X824948Y289586D01*
X825948Y289752D01*
X826948Y289586D01*
X827823Y288919D01*
X828573Y287919D01*
X829073Y286752D01*
X829323Y285419D01*
Y284086D01*
X829073Y282752D01*
X828573Y281586D01*
X827823Y280586D01*
X826948Y279919D01*
X825948Y279752D01*
G01X833448D02*
Y289752D01*
X836573D01*
X837573Y289252D01*
X838198Y288586D01*
X838448Y287252D01*
X838198Y285919D01*
X837448Y285086D01*
X836573Y284586D01*
X833448D01*
G01X836573D02*
X838448Y279752D01*
G01X852698D02*
Y289752D01*
X855948Y281419D01*
X859198Y289752D01*
Y279752D01*
G01X862822D02*
X865948Y289752D01*
X869073Y279752D01*
G01X867948Y283252D02*
X863948D01*
G01X873073Y279752D02*
Y289752D01*
X878823Y279752D01*
Y289752D01*
G01X883198D02*
Y282586D01*
X883698Y281085D01*
X884698Y280086D01*
X885948Y279752D01*
X887198Y280086D01*
X888198Y281085D01*
X888698Y282586D01*
Y289752D01*
G01X893572Y279752D02*
Y289752D01*
X898323D01*
G01X896573Y284919D02*
X893572D01*
G01X902823Y279752D02*
X905948Y289752D01*
X909073Y279752D01*
G01X907948Y283252D02*
X903948D01*
G01X918698Y288919D02*
X917948Y289419D01*
X917073Y289752D01*
X916073D01*
X914948Y289252D01*
X914073Y288419D01*
X913448Y287419D01*
X912947Y285752D01*
X912822Y284252D01*
X913073Y282752D01*
X913448Y281752D01*
X914198Y280752D01*
X915073Y280086D01*
X915948Y279752D01*
X916823D01*
X917698Y280086D01*
X918448Y280586D01*
X919073Y281252D01*
G01X925948Y289752D02*
Y279752D01*
G01X923073Y289752D02*
X928823D01*
G01X933198D02*
Y282586D01*
X933698Y281085D01*
X934698Y280086D01*
X935948Y279752D01*
X937198Y280086D01*
X938198Y281085D01*
X938698Y282586D01*
Y289752D01*
G01X943448Y279752D02*
Y289752D01*
X946573D01*
X947573Y289252D01*
X948198Y288586D01*
X948448Y287252D01*
X948198Y285919D01*
X947448Y285086D01*
X946573Y284586D01*
X943448D01*
G01X946573D02*
X948448Y279752D01*
G01X954448Y289752D02*
X957447D01*
G01X955948D02*
Y279752D01*
G01X954448D02*
X957447D01*
G01X963073D02*
Y289752D01*
X968823Y279752D01*
Y289752D01*
G01X976698Y284752D02*
X979198D01*
Y281752D01*
X978448Y280752D01*
X977573Y280086D01*
X976323Y279752D01*
X975073Y280086D01*
X974198Y280752D01*
X973448Y281752D01*
X972947Y282919D01*
X972698Y284252D01*
Y285419D01*
X972947Y286419D01*
X973448Y287586D01*
X974198Y288586D01*
X974948Y289252D01*
X975948Y289752D01*
X976823D01*
X977823Y289419D01*
X978573Y288752D01*
G01X985948Y279419D02*
X985698Y279586D01*
Y279919D01*
X985948Y280086D01*
X986198Y279919D01*
Y279586D01*
X985948Y279419D01*
G01X345822Y336419D02*
X346698Y335586D01*
X347698Y335252D01*
X348698Y335586D01*
X349573Y336585D01*
X350198Y338086D01*
X350448Y339586D01*
Y341419D01*
X350198Y342919D01*
X349573Y344252D01*
X348822Y344919D01*
X347948Y345252D01*
X346948Y344919D01*
X346198Y344252D01*
X345698Y343252D01*
X345448Y341919D01*
X345698Y340752D01*
X346323Y339586D01*
X347073Y338919D01*
X347948Y338752D01*
X348948Y339086D01*
X349698Y339919D01*
X350448Y341419D01*
G01X357948Y334919D02*
X357698Y335086D01*
Y335419D01*
X357948Y335586D01*
X358198Y335419D01*
Y335086D01*
X357948Y334919D01*
G01X368948Y340586D02*
X369448Y341086D01*
X369822Y341919D01*
X370073Y343086D01*
X369822Y344086D01*
X369323Y344752D01*
X368448Y345252D01*
X365073D01*
Y335252D01*
X369198D01*
X370073Y335919D01*
X370573Y336919D01*
X370823Y338086D01*
X370573Y339252D01*
X369822Y340252D01*
X368948Y340586D01*
X365073D01*
G01X377948Y335252D02*
X376948Y335419D01*
X376073Y336086D01*
X375323Y337086D01*
X374822Y338252D01*
X374572Y339586D01*
Y340919D01*
X374822Y342252D01*
X375323Y343419D01*
X376073Y344419D01*
X376948Y345086D01*
X377948Y345252D01*
X378948Y345086D01*
X379822Y344419D01*
X380573Y343419D01*
X381073Y342252D01*
X381323Y340919D01*
Y339586D01*
X381073Y338252D01*
X380573Y337086D01*
X379822Y336086D01*
X378948Y335419D01*
X377948Y335252D01*
G01X384198Y345252D02*
X385948Y335252D01*
X387948Y345252D01*
X389948Y335252D01*
X391698Y345252D01*
G01X404823Y335252D02*
X407948Y345252D01*
X411073Y335252D01*
G01X409948Y338752D02*
X405948D01*
G01X415073Y335252D02*
Y345252D01*
X420823Y335252D01*
Y345252D01*
G01X425198Y335252D02*
Y345252D01*
X427698D01*
X428698Y344752D01*
X429448Y344086D01*
X430073Y343086D01*
X430573Y341919D01*
X430698Y340252D01*
X430573Y338586D01*
X430073Y337419D01*
X429448Y336419D01*
X428698Y335752D01*
X427698Y335252D01*
X425198D01*
G01X447948Y345252D02*
Y335252D01*
G01X445073Y345252D02*
X450823D01*
G01X454198D02*
X455948Y335252D01*
X457948Y345252D01*
X459948Y335252D01*
X461698Y345252D01*
G01X466448D02*
X469447D01*
G01X467948D02*
Y335252D01*
G01X466448D02*
X469447D01*
G01X475323Y336585D02*
X476323Y335752D01*
X477448Y335252D01*
X478448D01*
X479448Y335752D01*
X480198Y336585D01*
X480573Y337753D01*
X480323Y338919D01*
X479698Y339919D01*
X478573Y340586D01*
X477073Y340919D01*
X476198Y341586D01*
X475823Y342752D01*
X476073Y343919D01*
X476698Y344752D01*
X477573Y345252D01*
X478448D01*
X479323Y344919D01*
X480073Y344086D01*
G01X487948Y345252D02*
Y335252D01*
G01X485073Y345252D02*
X490823D01*
G01X505073Y335252D02*
Y345252D01*
X510823Y335252D01*
Y345252D01*
G01X517948Y335252D02*
X516948Y335419D01*
X516073Y336086D01*
X515323Y337086D01*
X514822Y338252D01*
X514573Y339586D01*
Y340919D01*
X514822Y342252D01*
X515323Y343419D01*
X516073Y344419D01*
X516948Y345086D01*
X517948Y345252D01*
X518948Y345086D01*
X519823Y344419D01*
X520573Y343419D01*
X521073Y342252D01*
X521323Y340919D01*
Y339586D01*
X521073Y338252D01*
X520573Y337086D01*
X519823Y336086D01*
X518948Y335419D01*
X517948Y335252D01*
G01X527948Y345252D02*
Y335252D01*
G01X525073Y345252D02*
X530823D01*
G01X547948D02*
Y335252D01*
G01X545073Y345252D02*
X550823D01*
G01X557948Y335252D02*
X556948Y335419D01*
X556073Y336086D01*
X555323Y337086D01*
X554822Y338252D01*
X554573Y339586D01*
Y340919D01*
X554822Y342252D01*
X555323Y343419D01*
X556073Y344419D01*
X556948Y345086D01*
X557948Y345252D01*
X558948Y345086D01*
X559822Y344419D01*
X560573Y343419D01*
X561073Y342252D01*
X561323Y340919D01*
Y339586D01*
X561073Y338252D01*
X560573Y337086D01*
X559822Y336086D01*
X558948Y335419D01*
X557948Y335252D01*
G01X580448D02*
X575448D01*
Y345252D01*
X580448D01*
G01X578448Y340419D02*
X575448D01*
G01X585323Y335252D02*
X590573Y345252D01*
G01X585323D02*
X590573Y335252D01*
G01X600698Y344419D02*
X599948Y344919D01*
X599073Y345252D01*
X598073D01*
X596948Y344752D01*
X596073Y343919D01*
X595448Y342919D01*
X594947Y341252D01*
X594823Y339752D01*
X595073Y338252D01*
X595448Y337252D01*
X596198Y336252D01*
X597073Y335586D01*
X597948Y335252D01*
X598823D01*
X599698Y335586D01*
X600448Y336086D01*
X601073Y336752D01*
G01X610448Y335252D02*
X605448D01*
Y345252D01*
X610448D01*
G01X608448Y340419D02*
X605448D01*
G01X620448Y335252D02*
X615448D01*
Y345252D01*
X620448D01*
G01X618448Y340419D02*
X615448D01*
G01X625198Y335252D02*
Y345252D01*
X627698D01*
X628698Y344752D01*
X629448Y344086D01*
X630073Y343086D01*
X630573Y341919D01*
X630698Y340252D01*
X630573Y338586D01*
X630073Y337419D01*
X629448Y336419D01*
X628698Y335752D01*
X627698Y335252D01*
X625198D01*
G01X647948Y345252D02*
X646948Y344919D01*
X646198Y344086D01*
X645698Y343086D01*
X645323Y341752D01*
X645198Y340252D01*
X645323Y338752D01*
X645698Y337419D01*
X646198Y336419D01*
X646948Y335586D01*
X647948Y335252D01*
X648948Y335586D01*
X649698Y336419D01*
X650198Y337419D01*
X650573Y338752D01*
X650698Y340252D01*
X650573Y341752D01*
X650198Y343086D01*
X649698Y344086D01*
X648948Y344919D01*
X647948Y345252D01*
G01X657948Y334919D02*
X657698Y335086D01*
Y335419D01*
X657948Y335586D01*
X658198Y335419D01*
Y335086D01*
X657948Y334919D01*
G01X667948Y335252D02*
Y345252D01*
X666448Y343252D01*
G01Y335252D02*
X669447D01*
G01X677948D02*
X678823Y335419D01*
X679822Y335919D01*
X680448Y336752D01*
X680698Y337919D01*
X680448Y339086D01*
X679698Y340086D01*
X678573Y340586D01*
X677323D01*
X676573Y340919D01*
X675948Y341752D01*
X675698Y342919D01*
X676073Y344086D01*
X676948Y344919D01*
X677948Y345252D01*
X678948Y344919D01*
X679822Y344086D01*
X680198Y342919D01*
X679948Y341752D01*
X679323Y340919D01*
X678573Y340586D01*
X677323D01*
X676198Y340086D01*
X675448Y339086D01*
X675198Y337919D01*
X675448Y336752D01*
X676073Y335919D01*
X677073Y335419D01*
X677948Y335252D01*
G01X687948Y345252D02*
X686948Y344919D01*
X686198Y344086D01*
X685698Y343086D01*
X685323Y341752D01*
X685198Y340252D01*
X685323Y338752D01*
X685698Y337419D01*
X686198Y336419D01*
X686948Y335586D01*
X687948Y335252D01*
X688948Y335586D01*
X689698Y336419D01*
X690198Y337419D01*
X690573Y338752D01*
X690698Y340252D01*
X690573Y341752D01*
X690198Y343086D01*
X689698Y344086D01*
X688948Y344919D01*
X687948Y345252D01*
G01X694698Y335252D02*
Y345252D01*
X697948Y336919D01*
X701198Y345252D01*
Y335252D01*
G01X704698D02*
Y345252D01*
X707948Y336919D01*
X711198Y345252D01*
Y335252D01*
G01X727323Y331919D02*
X726073Y333586D01*
X725448Y335252D01*
Y341919D01*
X726073Y343586D01*
X727323Y345252D01*
G01X737948D02*
X736948Y344919D01*
X736198Y344086D01*
X735698Y343086D01*
X735323Y341752D01*
X735198Y340252D01*
X735323Y338752D01*
X735698Y337419D01*
X736198Y336419D01*
X736948Y335586D01*
X737948Y335252D01*
X738948Y335586D01*
X739698Y336419D01*
X740198Y337419D01*
X740573Y338752D01*
X740698Y340252D01*
X740573Y341752D01*
X740198Y343086D01*
X739698Y344086D01*
X738948Y344919D01*
X737948Y345252D01*
G01X747948Y334919D02*
X747698Y335086D01*
Y335419D01*
X747948Y335586D01*
X748198Y335419D01*
Y335086D01*
X747948Y334919D01*
G01X757948Y345252D02*
X756948Y344919D01*
X756198Y344086D01*
X755698Y343086D01*
X755323Y341752D01*
X755198Y340252D01*
X755323Y338752D01*
X755698Y337419D01*
X756198Y336419D01*
X756948Y335586D01*
X757948Y335252D01*
X758948Y335586D01*
X759698Y336419D01*
X760198Y337419D01*
X760573Y338752D01*
X760698Y340252D01*
X760573Y341752D01*
X760198Y343086D01*
X759698Y344086D01*
X758948Y344919D01*
X757948Y345252D01*
G01X767948D02*
X766948Y344919D01*
X766198Y344086D01*
X765698Y343086D01*
X765323Y341752D01*
X765198Y340252D01*
X765323Y338752D01*
X765698Y337419D01*
X766198Y336419D01*
X766948Y335586D01*
X767948Y335252D01*
X768948Y335586D01*
X769698Y336419D01*
X770198Y337419D01*
X770573Y338752D01*
X770698Y340252D01*
X770573Y341752D01*
X770198Y343086D01*
X769698Y344086D01*
X768948Y344919D01*
X767948Y345252D01*
G01X777698Y335252D02*
X777948Y337419D01*
X778323Y339252D01*
X778823Y340919D01*
X779448Y342752D01*
X780448Y345252D01*
X775448D01*
G01X786823Y343086D02*
X787448Y345252D01*
G01X789073D02*
X788448Y343086D01*
G01X798573Y331919D02*
X799823Y333586D01*
X800448Y335252D01*
Y341919D01*
X799823Y343586D01*
X798573Y345252D01*
G01X815448Y335252D02*
Y345252D01*
X818448D01*
X819448Y344752D01*
X820198Y343586D01*
X820448Y342252D01*
X820198Y340919D01*
X819573Y339919D01*
X818448Y339419D01*
X815448D01*
G01X830448Y335252D02*
X825448D01*
Y345252D01*
X830448D01*
G01X828448Y340419D02*
X825448D01*
G01X835448Y335252D02*
Y345252D01*
X838573D01*
X839573Y344752D01*
X840198Y344086D01*
X840448Y342752D01*
X840198Y341419D01*
X839448Y340586D01*
X838573Y340086D01*
X835448D01*
G01X838573D02*
X840448Y335252D01*
G01X856448Y345252D02*
X859447D01*
G01X857948D02*
Y335252D01*
G01X856448D02*
X859447D01*
G01X865073D02*
Y345252D01*
X870823Y335252D01*
Y345252D01*
G01X880698Y344419D02*
X879948Y344919D01*
X879073Y345252D01*
X878073D01*
X876948Y344752D01*
X876073Y343919D01*
X875448Y342919D01*
X874947Y341252D01*
X874822Y339752D01*
X875073Y338252D01*
X875448Y337252D01*
X876198Y336252D01*
X877073Y335586D01*
X877948Y335252D01*
X878823D01*
X879698Y335586D01*
X880448Y336086D01*
X881073Y336752D01*
G01X885323Y335252D02*
Y345252D01*
G01X890573D02*
Y335252D01*
G01Y340252D02*
X885323D01*
G01X904822Y335252D02*
X907948Y345252D01*
X911073Y335252D01*
G01X909948Y338752D02*
X905948D01*
G01X915323Y336585D02*
X916323Y335752D01*
X917448Y335252D01*
X918448D01*
X919448Y335752D01*
X920198Y336585D01*
X920573Y337753D01*
X920323Y338919D01*
X919698Y339919D01*
X918573Y340586D01*
X917073Y340919D01*
X916198Y341586D01*
X915822Y342752D01*
X916073Y343919D01*
X916698Y344752D01*
X917573Y345252D01*
X918448D01*
X919323Y344919D01*
X920073Y344086D01*
G01X934698Y335252D02*
Y345252D01*
X937948Y336919D01*
X941198Y345252D01*
Y335252D01*
G01X950448D02*
X945448D01*
Y345252D01*
X950448D01*
G01X948448Y340419D02*
X945448D01*
G01X954822Y335252D02*
X957948Y345252D01*
X961073Y335252D01*
G01X959948Y338752D02*
X955948D01*
G01X965323Y336585D02*
X966323Y335752D01*
X967448Y335252D01*
X968448D01*
X969448Y335752D01*
X970198Y336585D01*
X970573Y337753D01*
X970323Y338919D01*
X969698Y339919D01*
X968573Y340586D01*
X967073Y340919D01*
X966198Y341586D01*
X965822Y342752D01*
X966073Y343919D01*
X966698Y344752D01*
X967573Y345252D01*
X968448D01*
X969323Y344919D01*
X970073Y344086D01*
G01X975198Y345252D02*
Y338086D01*
X975698Y336585D01*
X976698Y335586D01*
X977948Y335252D01*
X979198Y335586D01*
X980198Y336585D01*
X980698Y338086D01*
Y345252D01*
G01X985448Y335252D02*
Y345252D01*
X988573D01*
X989573Y344752D01*
X990198Y344086D01*
X990448Y342752D01*
X990198Y341419D01*
X989448Y340586D01*
X988573Y340086D01*
X985448D01*
G01X988573D02*
X990448Y335252D01*
G01X1000448D02*
X995448D01*
Y345252D01*
X1000448D01*
G01X998448Y340419D02*
X995448D01*
G01X1005198Y335252D02*
Y345252D01*
X1007698D01*
X1008698Y344752D01*
X1009448Y344086D01*
X1010073Y343086D01*
X1010573Y341919D01*
X1010698Y340252D01*
X1010573Y338586D01*
X1010073Y337419D01*
X1009448Y336419D01*
X1008698Y335752D01*
X1007698Y335252D01*
X1005198D01*
G01X1025448D02*
Y345252D01*
X1028448D01*
X1029448Y344752D01*
X1030198Y343586D01*
X1030448Y342252D01*
X1030198Y340919D01*
X1029573Y339919D01*
X1028448Y339419D01*
X1025448D01*
G01X1040448Y335252D02*
X1035448D01*
Y345252D01*
X1040448D01*
G01X1038448Y340419D02*
X1035448D01*
G01X1045448Y335252D02*
Y345252D01*
X1048573D01*
X1049573Y344752D01*
X1050198Y344086D01*
X1050448Y342752D01*
X1050198Y341419D01*
X1049448Y340586D01*
X1048573Y340086D01*
X1045448D01*
G01X1048573D02*
X1050448Y335252D01*
G01X1066448Y345252D02*
X1069447D01*
G01X1067948D02*
Y335252D01*
G01X1066448D02*
X1069447D01*
G01X1075448D02*
Y345252D01*
X1078448D01*
X1079448Y344752D01*
X1080198Y343586D01*
X1080448Y342252D01*
X1080198Y340919D01*
X1079573Y339919D01*
X1078448Y339419D01*
X1075448D01*
G01X1090698Y344419D02*
X1089948Y344919D01*
X1089073Y345252D01*
X1088073D01*
X1086948Y344752D01*
X1086073Y343919D01*
X1085448Y342919D01*
X1084947Y341252D01*
X1084822Y339752D01*
X1085073Y338252D01*
X1085448Y337252D01*
X1086198Y336252D01*
X1087073Y335586D01*
X1087948Y335252D01*
X1088822D01*
X1089698Y335586D01*
X1090448Y336086D01*
X1091073Y336752D01*
G01X1096323Y338586D02*
X1099573D01*
G01X1107948Y345252D02*
Y335252D01*
G01X1105073Y345252D02*
X1110823D01*
G01X1114698Y335252D02*
Y345252D01*
X1117948Y336919D01*
X1121198Y345252D01*
Y335252D01*
G01X1126323Y338586D02*
X1129573D01*
G01X1135573Y339419D02*
X1136448Y340586D01*
X1137198Y341252D01*
X1138198Y341586D01*
X1139073Y341252D01*
X1139698Y340586D01*
X1140198Y339586D01*
X1140323Y338419D01*
X1140198Y337419D01*
X1139698Y336419D01*
X1138948Y335586D01*
X1138073Y335252D01*
X1137073Y335586D01*
X1136198Y336585D01*
X1135698Y338086D01*
X1135573Y339752D01*
X1135822Y341919D01*
X1136198Y343086D01*
X1136822Y344252D01*
X1137698Y345086D01*
X1138573Y345252D01*
X1139448Y344919D01*
X1140073Y344086D01*
G01X1145198Y336752D02*
X1145948Y335919D01*
X1146822Y335419D01*
X1147948Y335252D01*
X1149073Y335586D01*
X1149948Y336252D01*
X1150573Y337419D01*
X1150698Y338752D01*
X1150448Y340086D01*
X1149823Y340919D01*
X1148948Y341586D01*
X1148073Y341752D01*
X1147198Y341586D01*
X1146073Y340919D01*
X1146448Y345252D01*
X1149823D01*
G01X1157948D02*
X1156948Y344919D01*
X1156198Y344086D01*
X1155698Y343086D01*
X1155323Y341752D01*
X1155198Y340252D01*
X1155323Y338752D01*
X1155698Y337419D01*
X1156198Y336419D01*
X1156948Y335586D01*
X1157948Y335252D01*
X1158948Y335586D01*
X1159698Y336419D01*
X1160198Y337419D01*
X1160573Y338752D01*
X1160698Y340252D01*
X1160573Y341752D01*
X1160198Y343086D01*
X1159698Y344086D01*
X1158948Y344919D01*
X1157948Y345252D01*
G01X1167948Y334919D02*
X1167698Y335086D01*
Y335419D01*
X1167948Y335586D01*
X1168198Y335419D01*
Y335086D01*
X1167948Y334919D01*
G01X370823Y367085D02*
X371823Y366252D01*
X372948Y365752D01*
X373948D01*
X374948Y366252D01*
X375698Y367085D01*
X376073Y368252D01*
X375823Y369419D01*
X375198Y370419D01*
X374073Y371086D01*
X372573Y371419D01*
X371698Y372086D01*
X371322Y373252D01*
X371573Y374419D01*
X372198Y375252D01*
X373073Y375752D01*
X373948D01*
X374823Y375419D01*
X375573Y374586D01*
G01X381948Y375752D02*
X384947D01*
G01X383448D02*
Y365752D01*
G01X381948D02*
X384947D01*
G01X390948Y375752D02*
Y365752D01*
X395948D01*
G01X400698D02*
Y375752D01*
G01X405448D02*
X400698Y369586D01*
G01X406198Y365752D02*
X402823Y372419D01*
G01X410823Y367085D02*
X411823Y366252D01*
X412948Y365752D01*
X413948D01*
X414948Y366252D01*
X415698Y367085D01*
X416073Y368252D01*
X415823Y369419D01*
X415198Y370419D01*
X414073Y371086D01*
X412573Y371419D01*
X411698Y372086D01*
X411323Y373252D01*
X411573Y374419D01*
X412198Y375252D01*
X413073Y375752D01*
X413948D01*
X414823Y375419D01*
X415573Y374586D01*
G01X426198Y374919D02*
X425448Y375419D01*
X424573Y375752D01*
X423573D01*
X422448Y375252D01*
X421573Y374419D01*
X420948Y373419D01*
X420447Y371752D01*
X420323Y370252D01*
X420573Y368752D01*
X420948Y367752D01*
X421698Y366752D01*
X422573Y366086D01*
X423448Y365752D01*
X424323D01*
X425198Y366086D01*
X425948Y366586D01*
X426573Y367252D01*
G01X430948Y365752D02*
Y375752D01*
X434073D01*
X435073Y375252D01*
X435698Y374586D01*
X435948Y373252D01*
X435698Y371919D01*
X434948Y371086D01*
X434073Y370586D01*
X430948D01*
G01X434073D02*
X435948Y365752D01*
G01X445948D02*
X440948D01*
Y375752D01*
X445948D01*
G01X443948Y370919D02*
X440948D01*
G01X455948Y365752D02*
X450948D01*
Y375752D01*
X455948D01*
G01X453948Y370919D02*
X450948D01*
G01X460573Y365752D02*
Y375752D01*
X466323Y365752D01*
Y375752D01*
G01X480198Y365752D02*
Y375752D01*
X483448Y367419D01*
X486698Y375752D01*
Y365752D01*
G01X490323D02*
X493448Y375752D01*
X496573Y365752D01*
G01X495448Y369252D02*
X491448D01*
G01X503448Y365752D02*
Y370252D01*
X500948Y375752D01*
G01X505948D02*
X503448Y370252D01*
G01X524448Y371086D02*
X524948Y371586D01*
X525322Y372419D01*
X525573Y373586D01*
X525322Y374586D01*
X524823Y375252D01*
X523948Y375752D01*
X520573D01*
Y365752D01*
X524698D01*
X525573Y366419D01*
X526073Y367419D01*
X526323Y368586D01*
X526073Y369752D01*
X525322Y370752D01*
X524448Y371086D01*
X520573D01*
G01X535948Y365752D02*
X530948D01*
Y375752D01*
X535948D01*
G01X533948Y370919D02*
X530948D01*
G01X553448Y375752D02*
Y365752D01*
G01X550573Y375752D02*
X556323D01*
G01X560948Y365752D02*
Y375752D01*
X564073D01*
X565073Y375252D01*
X565698Y374586D01*
X565948Y373252D01*
X565698Y371919D01*
X564948Y371086D01*
X564073Y370586D01*
X560948D01*
G01X564073D02*
X565948Y365752D01*
G01X571948Y375752D02*
X574947D01*
G01X573448D02*
Y365752D01*
G01X571948D02*
X574947D01*
G01X580198D02*
Y375752D01*
X583448Y367419D01*
X586698Y375752D01*
Y365752D01*
G01X590198D02*
Y375752D01*
X593448Y367419D01*
X596698Y375752D01*
Y365752D01*
G01X605948D02*
X600948D01*
Y375752D01*
X605948D01*
G01X603948Y370919D02*
X600948D01*
G01X610698Y365752D02*
Y375752D01*
X613198D01*
X614198Y375252D01*
X614948Y374586D01*
X615573Y373586D01*
X616073Y372419D01*
X616198Y370752D01*
X616073Y369086D01*
X615573Y367919D01*
X614948Y366919D01*
X614198Y366252D01*
X613198Y365752D01*
X610698D01*
G01X633448D02*
X632448Y365919D01*
X631573Y366586D01*
X630823Y367586D01*
X630322Y368752D01*
X630073Y370086D01*
Y371419D01*
X630322Y372752D01*
X630823Y373919D01*
X631573Y374919D01*
X632448Y375586D01*
X633448Y375752D01*
X634448Y375586D01*
X635322Y374919D01*
X636073Y373919D01*
X636573Y372752D01*
X636823Y371419D01*
Y370086D01*
X636573Y368752D01*
X636073Y367586D01*
X635322Y366586D01*
X634448Y365919D01*
X633448Y365752D01*
G01X641072D02*
Y375752D01*
X645823D01*
G01X644073Y370919D02*
X641072D01*
G01X651073Y365752D02*
Y375752D01*
X655823D01*
G01X654073Y370919D02*
X651073D01*
G01X670323Y365752D02*
X673448Y375752D01*
X676573Y365752D01*
G01X675448Y369252D02*
X671448D01*
G01X680573Y365752D02*
Y375752D01*
X686323Y365752D01*
Y375752D01*
G01X693448Y365752D02*
Y370252D01*
X690948Y375752D01*
G01X695948D02*
X693448Y370252D01*
G01X710823Y367085D02*
X711823Y366252D01*
X712948Y365752D01*
X713948D01*
X714948Y366252D01*
X715698Y367085D01*
X716073Y368252D01*
X715823Y369419D01*
X715198Y370419D01*
X714073Y371086D01*
X712573Y371419D01*
X711698Y372086D01*
X711323Y373252D01*
X711573Y374419D01*
X712198Y375252D01*
X713073Y375752D01*
X713948D01*
X714823Y375419D01*
X715573Y374586D01*
G01X723448Y365752D02*
X722448Y365919D01*
X721573Y366586D01*
X720823Y367586D01*
X720323Y368752D01*
X720072Y370086D01*
Y371419D01*
X720323Y372752D01*
X720823Y373919D01*
X721573Y374919D01*
X722448Y375586D01*
X723448Y375752D01*
X724448Y375586D01*
X725322Y374919D01*
X726073Y373919D01*
X726573Y372752D01*
X726823Y371419D01*
Y370086D01*
X726573Y368752D01*
X726073Y367586D01*
X725322Y366586D01*
X724448Y365919D01*
X723448Y365752D01*
G01X730948Y375752D02*
Y365752D01*
X735948D01*
G01X740698D02*
Y375752D01*
X743198D01*
X744198Y375252D01*
X744948Y374586D01*
X745573Y373586D01*
X746073Y372419D01*
X746198Y370752D01*
X746073Y369086D01*
X745573Y367919D01*
X744948Y366919D01*
X744198Y366252D01*
X743198Y365752D01*
X740698D01*
G01X755948D02*
X750948D01*
Y375752D01*
X755948D01*
G01X753948Y370919D02*
X750948D01*
G01X760948Y365752D02*
Y375752D01*
X764073D01*
X765073Y375252D01*
X765698Y374586D01*
X765948Y373252D01*
X765698Y371919D01*
X764948Y371086D01*
X764073Y370586D01*
X760948D01*
G01X764073D02*
X765948Y365752D01*
G01X775948D02*
X770948D01*
Y375752D01*
X775948D01*
G01X773948Y370919D02*
X770948D01*
G01X780698Y365752D02*
Y375752D01*
X783198D01*
X784198Y375252D01*
X784948Y374586D01*
X785573Y373586D01*
X786073Y372419D01*
X786198Y370752D01*
X786073Y369086D01*
X785573Y367919D01*
X784948Y366919D01*
X784198Y366252D01*
X783198Y365752D01*
X780698D01*
G01X805948D02*
X800948D01*
Y375752D01*
X805948D01*
G01X803948Y370919D02*
X800948D01*
G01X810573Y365752D02*
Y375752D01*
X816323Y365752D01*
Y375752D01*
G01X823448D02*
Y365752D01*
G01X820573Y375752D02*
X826323D01*
G01X831948D02*
X834947D01*
G01X833448D02*
Y365752D01*
G01X831948D02*
X834947D01*
G01X843448Y375752D02*
Y365752D01*
G01X840573Y375752D02*
X846323D01*
G01X853448Y365752D02*
Y370252D01*
X850948Y375752D01*
G01X855948D02*
X853448Y370252D01*
G01X863448Y365419D02*
X863198Y365586D01*
Y365919D01*
X863448Y366086D01*
X863698Y365919D01*
Y365586D01*
X863448Y365419D01*
G01X349548Y394402D02*
X350422Y394569D01*
X351422Y395069D01*
X352048Y395902D01*
X352298Y397069D01*
X352048Y398236D01*
X351298Y399236D01*
X350173Y399736D01*
X348923D01*
X348173Y400069D01*
X347548Y400902D01*
X347298Y402069D01*
X347673Y403236D01*
X348548Y404069D01*
X349548Y404402D01*
X350548Y404069D01*
X351422Y403236D01*
X351798Y402069D01*
X351548Y400902D01*
X350923Y400069D01*
X350173Y399736D01*
X348923D01*
X347798Y399236D01*
X347048Y398236D01*
X346798Y397069D01*
X347048Y395902D01*
X347673Y395069D01*
X348673Y394569D01*
X349548Y394402D01*
G01X359548Y394069D02*
X359298Y394236D01*
Y394569D01*
X359548Y394736D01*
X359798Y394569D01*
Y394236D01*
X359548Y394069D01*
G01X366923Y395735D02*
X367923Y394902D01*
X369048Y394402D01*
X370048D01*
X371048Y394902D01*
X371798Y395735D01*
X372173Y396902D01*
X371923Y398069D01*
X371298Y399069D01*
X370173Y399736D01*
X368673Y400069D01*
X367798Y400736D01*
X367422Y401902D01*
X367673Y403069D01*
X368298Y403902D01*
X369173Y404402D01*
X370048D01*
X370923Y404069D01*
X371673Y403236D01*
G01X378048Y404402D02*
X381047D01*
G01X379548D02*
Y394402D01*
G01X378048D02*
X381047D01*
G01X387048Y404402D02*
Y394402D01*
X392048D01*
G01X396798D02*
Y404402D01*
G01X401548D02*
X396798Y398236D01*
G01X402298Y394402D02*
X398923Y401069D01*
G01X406923Y395735D02*
X407923Y394902D01*
X409048Y394402D01*
X410048D01*
X411048Y394902D01*
X411798Y395735D01*
X412173Y396902D01*
X411923Y398069D01*
X411298Y399069D01*
X410173Y399736D01*
X408673Y400069D01*
X407798Y400736D01*
X407422Y401902D01*
X407673Y403069D01*
X408298Y403902D01*
X409173Y404402D01*
X410048D01*
X410923Y404069D01*
X411673Y403236D01*
G01X422298Y403569D02*
X421548Y404069D01*
X420673Y404402D01*
X419673D01*
X418548Y403902D01*
X417673Y403069D01*
X417048Y402069D01*
X416547Y400402D01*
X416422Y398902D01*
X416673Y397402D01*
X417048Y396402D01*
X417798Y395402D01*
X418673Y394736D01*
X419548Y394402D01*
X420422D01*
X421298Y394736D01*
X422048Y395236D01*
X422673Y395902D01*
G01X427048Y394402D02*
Y404402D01*
X430173D01*
X431173Y403902D01*
X431798Y403236D01*
X432048Y401902D01*
X431798Y400569D01*
X431048Y399736D01*
X430173Y399236D01*
X427048D01*
G01X430173D02*
X432048Y394402D01*
G01X442048D02*
X437048D01*
Y404402D01*
X442048D01*
G01X440048Y399569D02*
X437048D01*
G01X452048Y394402D02*
X447048D01*
Y404402D01*
X452048D01*
G01X450048Y399569D02*
X447048D01*
G01X456673Y394402D02*
Y404402D01*
X462423Y394402D01*
Y404402D01*
G01X469548Y394069D02*
X469298Y394236D01*
Y394569D01*
X469548Y394736D01*
X469798Y394569D01*
Y394236D01*
X469548Y394069D01*
G01Y398569D02*
X469298Y398736D01*
Y399069D01*
X469548Y399236D01*
X469798Y399069D01*
Y398736D01*
X469548Y398569D01*
G01X476923Y395735D02*
X477923Y394902D01*
X479048Y394402D01*
X480048D01*
X481048Y394902D01*
X481798Y395735D01*
X482173Y396902D01*
X481923Y398069D01*
X481298Y399069D01*
X480173Y399736D01*
X478673Y400069D01*
X477798Y400736D01*
X477423Y401902D01*
X477673Y403069D01*
X478298Y403902D01*
X479173Y404402D01*
X480048D01*
X480923Y404069D01*
X481673Y403236D01*
G01X488048Y404402D02*
X491047D01*
G01X489548D02*
Y394402D01*
G01X488048D02*
X491047D01*
G01X496673D02*
Y404402D01*
X502423Y394402D01*
Y404402D01*
G01X510298Y399402D02*
X512798D01*
Y396402D01*
X512048Y395402D01*
X511173Y394736D01*
X509923Y394402D01*
X508673Y394736D01*
X507798Y395402D01*
X507048Y396402D01*
X506547Y397569D01*
X506298Y398902D01*
Y400069D01*
X506547Y401069D01*
X507048Y402236D01*
X507798Y403236D01*
X508548Y403902D01*
X509548Y404402D01*
X510423D01*
X511422Y404069D01*
X512173Y403402D01*
G01X517048Y404402D02*
Y394402D01*
X522048D01*
G01X532048D02*
X527048D01*
Y404402D01*
X532048D01*
G01X530048Y399569D02*
X527048D01*
G01X546923Y395735D02*
X547923Y394902D01*
X549048Y394402D01*
X550048D01*
X551048Y394902D01*
X551798Y395735D01*
X552173Y396902D01*
X551923Y398069D01*
X551298Y399069D01*
X550173Y399736D01*
X548673Y400069D01*
X547798Y400736D01*
X547422Y401902D01*
X547673Y403069D01*
X548298Y403902D01*
X549173Y404402D01*
X550048D01*
X550923Y404069D01*
X551673Y403236D01*
G01X558048Y404402D02*
X561047D01*
G01X559548D02*
Y394402D01*
G01X558048D02*
X561047D01*
G01X566798D02*
Y404402D01*
X569298D01*
X570298Y403902D01*
X571048Y403236D01*
X571673Y402236D01*
X572173Y401069D01*
X572298Y399402D01*
X572173Y397736D01*
X571673Y396569D01*
X571048Y395569D01*
X570298Y394902D01*
X569298Y394402D01*
X566798D01*
G01X582048D02*
X577048D01*
Y404402D01*
X582048D01*
G01X580048Y399569D02*
X577048D01*
G01X595798Y404402D02*
X597548Y394402D01*
X599548Y404402D01*
X601548Y394402D01*
X603298Y404402D01*
G01X608048D02*
X611047D01*
G01X609548D02*
Y394402D01*
G01X608048D02*
X611047D01*
G01X619548Y404402D02*
Y394402D01*
G01X616673Y404402D02*
X622423D01*
G01X626923Y394402D02*
Y404402D01*
G01X632173D02*
Y394402D01*
G01Y399402D02*
X626923D01*
G01X647048Y394402D02*
Y404402D01*
X650048D01*
X651048Y403902D01*
X651798Y402736D01*
X652048Y401402D01*
X651798Y400069D01*
X651173Y399069D01*
X650048Y398569D01*
X647048D01*
G01X662048Y394402D02*
X657048D01*
Y404402D01*
X662048D01*
G01X660048Y399569D02*
X657048D01*
G01X667048Y394402D02*
Y404402D01*
X670173D01*
X671173Y403902D01*
X671798Y403236D01*
X672048Y401902D01*
X671798Y400569D01*
X671048Y399736D01*
X670173Y399236D01*
X667048D01*
G01X670173D02*
X672048Y394402D01*
G01X676298D02*
Y404402D01*
X679548Y396069D01*
X682798Y404402D01*
Y394402D01*
G01X686422D02*
X689548Y404402D01*
X692673Y394402D01*
G01X691548Y397902D02*
X687548D01*
G01X696673Y394402D02*
Y404402D01*
X702423Y394402D01*
Y404402D01*
G01X712048Y394402D02*
X707048D01*
Y404402D01*
X712048D01*
G01X710048Y399569D02*
X707048D01*
G01X716673Y394402D02*
Y404402D01*
X722423Y394402D01*
Y404402D01*
G01X729548D02*
Y394402D01*
G01X726673Y404402D02*
X732423D01*
G01X746673Y394402D02*
Y404402D01*
X752423Y394402D01*
Y404402D01*
G01X759548Y394402D02*
X758548Y394569D01*
X757673Y395236D01*
X756923Y396236D01*
X756422Y397402D01*
X756173Y398736D01*
Y400069D01*
X756422Y401402D01*
X756923Y402569D01*
X757673Y403569D01*
X758548Y404236D01*
X759548Y404402D01*
X760548Y404236D01*
X761422Y403569D01*
X762173Y402569D01*
X762673Y401402D01*
X762923Y400069D01*
Y398736D01*
X762673Y397402D01*
X762173Y396236D01*
X761422Y395236D01*
X760548Y394569D01*
X759548Y394402D01*
G01X766673D02*
Y404402D01*
X772423Y394402D01*
Y404402D01*
G01X792298Y403569D02*
X791548Y404069D01*
X790673Y404402D01*
X789673D01*
X788548Y403902D01*
X787673Y403069D01*
X787048Y402069D01*
X786547Y400402D01*
X786422Y398902D01*
X786673Y397402D01*
X787048Y396402D01*
X787798Y395402D01*
X788673Y394736D01*
X789548Y394402D01*
X790422D01*
X791298Y394736D01*
X792048Y395236D01*
X792673Y395902D01*
G01X799548Y394402D02*
X798548Y394569D01*
X797673Y395236D01*
X796923Y396236D01*
X796423Y397402D01*
X796172Y398736D01*
Y400069D01*
X796423Y401402D01*
X796923Y402569D01*
X797673Y403569D01*
X798548Y404236D01*
X799548Y404402D01*
X800548Y404236D01*
X801422Y403569D01*
X802173Y402569D01*
X802673Y401402D01*
X802923Y400069D01*
Y398736D01*
X802673Y397402D01*
X802173Y396236D01*
X801422Y395236D01*
X800548Y394569D01*
X799548Y394402D01*
G01X806673D02*
Y404402D01*
X812423Y394402D01*
Y404402D01*
G01X816798Y394402D02*
Y404402D01*
X819298D01*
X820298Y403902D01*
X821048Y403236D01*
X821673Y402236D01*
X822173Y401069D01*
X822298Y399402D01*
X822173Y397736D01*
X821673Y396569D01*
X821048Y395569D01*
X820298Y394902D01*
X819298Y394402D01*
X816798D01*
G01X826798Y404402D02*
Y397236D01*
X827298Y395735D01*
X828298Y394736D01*
X829548Y394402D01*
X830798Y394736D01*
X831798Y395735D01*
X832298Y397236D01*
Y404402D01*
G01X842298Y403569D02*
X841548Y404069D01*
X840673Y404402D01*
X839673D01*
X838548Y403902D01*
X837673Y403069D01*
X837048Y402069D01*
X836547Y400402D01*
X836423Y398902D01*
X836673Y397402D01*
X837048Y396402D01*
X837798Y395402D01*
X838673Y394736D01*
X839548Y394402D01*
X840422D01*
X841298Y394736D01*
X842048Y395236D01*
X842673Y395902D01*
G01X849548Y404402D02*
Y394402D01*
G01X846673Y404402D02*
X852423D01*
G01X858048D02*
X861047D01*
G01X859548D02*
Y394402D01*
G01X858048D02*
X861047D01*
G01X866422Y404402D02*
X869548Y394402D01*
X872673Y404402D01*
G01X882048Y394402D02*
X877048D01*
Y404402D01*
X882048D01*
G01X880048Y399569D02*
X877048D01*
G01X895798Y404402D02*
X897548Y394402D01*
X899548Y404402D01*
X901548Y394402D01*
X903298Y404402D01*
G01X906923Y394402D02*
Y404402D01*
G01X912173D02*
Y394402D01*
G01Y399402D02*
X906923D01*
G01X918048Y404402D02*
X921047D01*
G01X919548D02*
Y394402D01*
G01X918048D02*
X921047D01*
G01X929548Y404402D02*
Y394402D01*
G01X926673Y404402D02*
X932423D01*
G01X942048Y394402D02*
X937048D01*
Y404402D01*
X942048D01*
G01X940048Y399569D02*
X937048D01*
G01X962048Y394402D02*
X957048D01*
Y404402D01*
X962048D01*
G01X960048Y399569D02*
X957048D01*
G01X967048Y394402D02*
Y404402D01*
X970048D01*
X971048Y403902D01*
X971798Y402736D01*
X972048Y401402D01*
X971798Y400069D01*
X971173Y399069D01*
X970048Y398569D01*
X967048D01*
G01X979548Y394402D02*
X978548Y394569D01*
X977673Y395236D01*
X976923Y396236D01*
X976422Y397402D01*
X976172Y398736D01*
Y400069D01*
X976422Y401402D01*
X976923Y402569D01*
X977673Y403569D01*
X978548Y404236D01*
X979548Y404402D01*
X980548Y404236D01*
X981422Y403569D01*
X982173Y402569D01*
X982673Y401402D01*
X982923Y400069D01*
Y398736D01*
X982673Y397402D01*
X982173Y396236D01*
X981422Y395236D01*
X980548Y394569D01*
X979548Y394402D01*
G01X986923D02*
X992173Y404402D01*
G01X986923D02*
X992173Y394402D01*
G01X999548D02*
Y398902D01*
X997048Y404402D01*
G01X1002048D02*
X999548Y398902D01*
G01X1018048Y404402D02*
X1021047D01*
G01X1019548D02*
Y394402D01*
G01X1018048D02*
X1021047D01*
G01X1026673D02*
Y404402D01*
X1032423Y394402D01*
Y404402D01*
G01X1036798Y394402D02*
Y404402D01*
G01X1041548D02*
X1036798Y398236D01*
G01X1042298Y394402D02*
X1038923Y401069D01*
G01X353198Y470252D02*
X353448Y472419D01*
X353823Y474252D01*
X354322Y475919D01*
X354948Y477752D01*
X355948Y480252D01*
X350948D01*
G01X363448Y469919D02*
X363198Y470086D01*
Y470419D01*
X363448Y470586D01*
X363698Y470419D01*
Y470086D01*
X363448Y469919D01*
G01X370823Y471585D02*
X371823Y470752D01*
X372948Y470252D01*
X373948D01*
X374948Y470752D01*
X375698Y471585D01*
X376073Y472752D01*
X375823Y473919D01*
X375198Y474919D01*
X374073Y475586D01*
X372573Y475919D01*
X371698Y476586D01*
X371322Y477752D01*
X371573Y478919D01*
X372198Y479752D01*
X373073Y480252D01*
X373948D01*
X374823Y479919D01*
X375573Y479086D01*
G01X383448Y470252D02*
X382448Y470419D01*
X381573Y471086D01*
X380823Y472086D01*
X380322Y473252D01*
X380072Y474586D01*
Y475919D01*
X380322Y477252D01*
X380823Y478419D01*
X381573Y479419D01*
X382448Y480086D01*
X383448Y480252D01*
X384448Y480086D01*
X385322Y479419D01*
X386073Y478419D01*
X386573Y477252D01*
X386823Y475919D01*
Y474586D01*
X386573Y473252D01*
X386073Y472086D01*
X385322Y471086D01*
X384448Y470419D01*
X383448Y470252D01*
G01X390948Y480252D02*
Y470252D01*
X395948D01*
G01X400698D02*
Y480252D01*
X403198D01*
X404198Y479752D01*
X404948Y479086D01*
X405573Y478086D01*
X406073Y476919D01*
X406198Y475252D01*
X406073Y473586D01*
X405573Y472419D01*
X404948Y471419D01*
X404198Y470752D01*
X403198Y470252D01*
X400698D01*
G01X415948D02*
X410948D01*
Y480252D01*
X415948D01*
G01X413948Y475419D02*
X410948D01*
G01X420948Y470252D02*
Y480252D01*
X424073D01*
X425073Y479752D01*
X425698Y479086D01*
X425948Y477752D01*
X425698Y476419D01*
X424948Y475586D01*
X424073Y475086D01*
X420948D01*
G01X424073D02*
X425948Y470252D01*
G01X430198D02*
Y480252D01*
X433448Y471919D01*
X436698Y480252D01*
Y470252D01*
G01X440323D02*
X443448Y480252D01*
X446573Y470252D01*
G01X445448Y473752D02*
X441448D01*
G01X450823Y471585D02*
X451823Y470752D01*
X452948Y470252D01*
X453948D01*
X454948Y470752D01*
X455698Y471585D01*
X456073Y472752D01*
X455823Y473919D01*
X455198Y474919D01*
X454073Y475586D01*
X452573Y475919D01*
X451698Y476586D01*
X451322Y477752D01*
X451573Y478919D01*
X452198Y479752D01*
X453073Y480252D01*
X453948D01*
X454823Y479919D01*
X455573Y479086D01*
G01X460698Y470252D02*
Y480252D01*
G01X465448D02*
X460698Y474086D01*
G01X466198Y470252D02*
X462823Y476919D01*
G01X486198Y479419D02*
X485448Y479919D01*
X484573Y480252D01*
X483573D01*
X482448Y479752D01*
X481573Y478919D01*
X480948Y477919D01*
X480447Y476252D01*
X480323Y474752D01*
X480573Y473252D01*
X480948Y472252D01*
X481698Y471252D01*
X482573Y470586D01*
X483448Y470252D01*
X484323D01*
X485198Y470586D01*
X485948Y471086D01*
X486573Y471752D01*
G01X490948Y480252D02*
Y470252D01*
X495948D01*
G01X505948D02*
X500948D01*
Y480252D01*
X505948D01*
G01X503948Y475419D02*
X500948D01*
G01X510322Y470252D02*
X513448Y480252D01*
X516573Y470252D01*
G01X515448Y473752D02*
X511448D01*
G01X520948Y470252D02*
Y480252D01*
X524073D01*
X525073Y479752D01*
X525698Y479086D01*
X525948Y477752D01*
X525698Y476419D01*
X524948Y475586D01*
X524073Y475086D01*
X520948D01*
G01X524073D02*
X525948Y470252D01*
G01X530322D02*
X533448Y480252D01*
X536573Y470252D01*
G01X535448Y473752D02*
X531448D01*
G01X540573Y470252D02*
Y480252D01*
X546323Y470252D01*
Y480252D01*
G01X556198Y479419D02*
X555448Y479919D01*
X554573Y480252D01*
X553573D01*
X552448Y479752D01*
X551573Y478919D01*
X550948Y477919D01*
X550447Y476252D01*
X550322Y474752D01*
X550573Y473252D01*
X550948Y472252D01*
X551698Y471252D01*
X552573Y470586D01*
X553448Y470252D01*
X554322D01*
X555198Y470586D01*
X555948Y471086D01*
X556573Y471752D01*
G01X565948Y470252D02*
X560948D01*
Y480252D01*
X565948D01*
G01X563948Y475419D02*
X560948D01*
G01X581948Y480252D02*
X584947D01*
G01X583448D02*
Y470252D01*
G01X581948D02*
X584947D01*
G01X590823Y471585D02*
X591823Y470752D01*
X592948Y470252D01*
X593948D01*
X594948Y470752D01*
X595698Y471585D01*
X596073Y472752D01*
X595823Y473919D01*
X595198Y474919D01*
X594073Y475586D01*
X592573Y475919D01*
X591698Y476586D01*
X591323Y477752D01*
X591573Y478919D01*
X592198Y479752D01*
X593073Y480252D01*
X593948D01*
X594823Y479919D01*
X595573Y479086D01*
G01X614198Y475252D02*
X616698D01*
Y472252D01*
X615948Y471252D01*
X615073Y470586D01*
X613823Y470252D01*
X612573Y470586D01*
X611698Y471252D01*
X610948Y472252D01*
X610447Y473419D01*
X610198Y474752D01*
Y475919D01*
X610447Y476919D01*
X610948Y478086D01*
X611698Y479086D01*
X612448Y479752D01*
X613448Y480252D01*
X614322D01*
X615323Y479919D01*
X616073Y479252D01*
G01X621948Y480252D02*
X624947D01*
G01X623448D02*
Y470252D01*
G01X621948D02*
X624947D01*
G01X630322Y480252D02*
X633448Y470252D01*
X636573Y480252D01*
G01X645948Y470252D02*
X640948D01*
Y480252D01*
X645948D01*
G01X643948Y475419D02*
X640948D01*
G01X650573Y470252D02*
Y480252D01*
X656323Y470252D01*
Y480252D01*
G01X670823Y471585D02*
X671823Y470752D01*
X672948Y470252D01*
X673948D01*
X674948Y470752D01*
X675698Y471585D01*
X676073Y472752D01*
X675823Y473919D01*
X675198Y474919D01*
X674073Y475586D01*
X672573Y475919D01*
X671698Y476586D01*
X671322Y477752D01*
X671573Y478919D01*
X672198Y479752D01*
X673073Y480252D01*
X673948D01*
X674823Y479919D01*
X675573Y479086D01*
G01X680322Y470252D02*
X683448Y480252D01*
X686573Y470252D01*
G01X685448Y473752D02*
X681448D01*
G01X690198Y470252D02*
Y480252D01*
X693448Y471919D01*
X696698Y480252D01*
Y470252D01*
G01X705948D02*
X700948D01*
Y480252D01*
X705948D01*
G01X703948Y475419D02*
X700948D01*
G01X720323Y470252D02*
X723448Y480252D01*
X726573Y470252D01*
G01X725448Y473752D02*
X721448D01*
G01X730823Y471585D02*
X731823Y470752D01*
X732948Y470252D01*
X733948D01*
X734948Y470752D01*
X735698Y471585D01*
X736073Y472752D01*
X735823Y473919D01*
X735198Y474919D01*
X734073Y475586D01*
X732573Y475919D01*
X731698Y476586D01*
X731322Y477752D01*
X731573Y478919D01*
X732198Y479752D01*
X733073Y480252D01*
X733948D01*
X734823Y479919D01*
X735573Y479086D01*
G01X750948Y470252D02*
Y480252D01*
X753948D01*
X754948Y479752D01*
X755698Y478586D01*
X755948Y477252D01*
X755698Y475919D01*
X755073Y474919D01*
X753948Y474419D01*
X750948D01*
G01X760322Y470252D02*
X763448Y480252D01*
X766573Y470252D01*
G01X765448Y473752D02*
X761448D01*
G01X770698Y470252D02*
Y480252D01*
X773198D01*
X774198Y479752D01*
X774948Y479086D01*
X775573Y478086D01*
X776073Y476919D01*
X776198Y475252D01*
X776073Y473586D01*
X775573Y472419D01*
X774948Y471419D01*
X774198Y470752D01*
X773198Y470252D01*
X770698D01*
G01X790823Y471585D02*
X791823Y470752D01*
X792948Y470252D01*
X793948D01*
X794948Y470752D01*
X795698Y471585D01*
X796073Y472752D01*
X795823Y473919D01*
X795198Y474919D01*
X794073Y475586D01*
X792573Y475919D01*
X791698Y476586D01*
X791323Y477752D01*
X791573Y478919D01*
X792198Y479752D01*
X793073Y480252D01*
X793948D01*
X794823Y479919D01*
X795573Y479086D01*
G01X801948Y480252D02*
X804947D01*
G01X803448D02*
Y470252D01*
G01X801948D02*
X804947D01*
G01X811072Y480252D02*
X815823D01*
X811072Y470252D01*
X815823D01*
G01X825948D02*
X820948D01*
Y480252D01*
X825948D01*
G01X823948Y475419D02*
X820948D01*
G01X845948Y470252D02*
X840948D01*
Y480252D01*
X845948D01*
G01X843948Y475419D02*
X840948D01*
G01X850823Y470252D02*
X856073Y480252D01*
G01X850823D02*
X856073Y470252D01*
G01X866198Y479419D02*
X865448Y479919D01*
X864573Y480252D01*
X863573D01*
X862448Y479752D01*
X861573Y478919D01*
X860948Y477919D01*
X860447Y476252D01*
X860322Y474752D01*
X860573Y473252D01*
X860948Y472252D01*
X861698Y471252D01*
X862573Y470586D01*
X863448Y470252D01*
X864323D01*
X865198Y470586D01*
X865948Y471086D01*
X866573Y471752D01*
G01X875948Y470252D02*
X870948D01*
Y480252D01*
X875948D01*
G01X873948Y475419D02*
X870948D01*
G01X880948Y470252D02*
Y480252D01*
X883948D01*
X884948Y479752D01*
X885698Y478586D01*
X885948Y477252D01*
X885698Y475919D01*
X885073Y474919D01*
X883948Y474419D01*
X880948D01*
G01X893448Y480252D02*
Y470252D01*
G01X890573Y480252D02*
X896323D01*
G01X911072Y470252D02*
Y480252D01*
X915823D01*
G01X914073Y475419D02*
X911072D01*
G01X921948Y480252D02*
X924947D01*
G01X923448D02*
Y470252D01*
G01X921948D02*
X924947D01*
G01X930698D02*
Y480252D01*
X933198D01*
X934198Y479752D01*
X934948Y479086D01*
X935573Y478086D01*
X936073Y476919D01*
X936198Y475252D01*
X936073Y473586D01*
X935573Y472419D01*
X934948Y471419D01*
X934198Y470752D01*
X933198Y470252D01*
X930698D01*
G01X940698Y480252D02*
Y473086D01*
X941198Y471585D01*
X942198Y470586D01*
X943448Y470252D01*
X944698Y470586D01*
X945698Y471585D01*
X946198Y473086D01*
Y480252D01*
G01X956198Y479419D02*
X955448Y479919D01*
X954573Y480252D01*
X953573D01*
X952448Y479752D01*
X951573Y478919D01*
X950948Y477919D01*
X950447Y476252D01*
X950322Y474752D01*
X950573Y473252D01*
X950948Y472252D01*
X951698Y471252D01*
X952573Y470586D01*
X953448Y470252D01*
X954323D01*
X955198Y470586D01*
X955948Y471086D01*
X956573Y471752D01*
G01X961948Y480252D02*
X964947D01*
G01X963448D02*
Y470252D01*
G01X961948D02*
X964947D01*
G01X970322D02*
X973448Y480252D01*
X976573Y470252D01*
G01X975448Y473752D02*
X971448D01*
G01X980948Y480252D02*
Y470252D01*
X985948D01*
G01X990823Y471585D02*
X991823Y470752D01*
X992948Y470252D01*
X993948D01*
X994948Y470752D01*
X995698Y471585D01*
X996073Y472752D01*
X995823Y473919D01*
X995198Y474919D01*
X994073Y475586D01*
X992573Y475919D01*
X991698Y476586D01*
X991323Y477752D01*
X991573Y478919D01*
X992198Y479752D01*
X993073Y480252D01*
X993948D01*
X994823Y479919D01*
X995573Y479086D01*
G01X1003448Y469919D02*
X1003198Y470086D01*
Y470419D01*
X1003448Y470586D01*
X1003698Y470419D01*
Y470086D01*
X1003448Y469919D01*
G01X350072Y501419D02*
X350948Y502586D01*
X351698Y503252D01*
X352698Y503586D01*
X353573Y503252D01*
X354198Y502586D01*
X354698Y501586D01*
X354823Y500419D01*
X354698Y499419D01*
X354198Y498419D01*
X353448Y497586D01*
X352573Y497252D01*
X351573Y497586D01*
X350698Y498585D01*
X350198Y500086D01*
X350072Y501752D01*
X350322Y503919D01*
X350698Y505086D01*
X351322Y506252D01*
X352198Y507086D01*
X353073Y507252D01*
X353948Y506919D01*
X354573Y506086D01*
G01X362448Y496919D02*
X362198Y497086D01*
Y497419D01*
X362448Y497586D01*
X362698Y497419D01*
Y497086D01*
X362448Y496919D01*
G01X369823Y498585D02*
X370823Y497752D01*
X371948Y497252D01*
X372948D01*
X373948Y497752D01*
X374698Y498585D01*
X375073Y499752D01*
X374823Y500919D01*
X374198Y501919D01*
X373073Y502586D01*
X371573Y502919D01*
X370698Y503586D01*
X370322Y504752D01*
X370573Y505919D01*
X371198Y506752D01*
X372073Y507252D01*
X372948D01*
X373823Y506919D01*
X374573Y506086D01*
G01X379698Y507252D02*
Y500086D01*
X380198Y498585D01*
X381198Y497586D01*
X382448Y497252D01*
X383698Y497586D01*
X384698Y498585D01*
X385198Y500086D01*
Y507252D01*
G01X389948Y497252D02*
Y507252D01*
X393073D01*
X394073Y506752D01*
X394698Y506086D01*
X394948Y504752D01*
X394698Y503419D01*
X393948Y502586D01*
X393073Y502086D01*
X389948D01*
G01X393073D02*
X394948Y497252D01*
G01X400072D02*
Y507252D01*
X404823D01*
G01X403073Y502419D02*
X400072D01*
G01X409323Y497252D02*
X412448Y507252D01*
X415573Y497252D01*
G01X414448Y500752D02*
X410448D01*
G01X425198Y506419D02*
X424448Y506919D01*
X423573Y507252D01*
X422573D01*
X421448Y506752D01*
X420573Y505919D01*
X419948Y504919D01*
X419447Y503252D01*
X419323Y501752D01*
X419573Y500252D01*
X419948Y499252D01*
X420698Y498252D01*
X421573Y497586D01*
X422448Y497252D01*
X423322D01*
X424198Y497586D01*
X424948Y498086D01*
X425573Y498752D01*
G01X434948Y497252D02*
X429948D01*
Y507252D01*
X434948D01*
G01X432948Y502419D02*
X429948D01*
G01X450072Y497252D02*
Y507252D01*
X454823D01*
G01X453073Y502419D02*
X450072D01*
G01X460948Y507252D02*
X463947D01*
G01X462448D02*
Y497252D01*
G01X460948D02*
X463947D01*
G01X469573D02*
Y507252D01*
X475323Y497252D01*
Y507252D01*
G01X480948D02*
X483947D01*
G01X482448D02*
Y497252D01*
G01X480948D02*
X483947D01*
G01X489823Y498585D02*
X490823Y497752D01*
X491948Y497252D01*
X492948D01*
X493948Y497752D01*
X494698Y498585D01*
X495073Y499752D01*
X494823Y500919D01*
X494198Y501919D01*
X493073Y502586D01*
X491573Y502919D01*
X490698Y503586D01*
X490323Y504752D01*
X490573Y505919D01*
X491198Y506752D01*
X492073Y507252D01*
X492948D01*
X493823Y506919D01*
X494573Y506086D01*
G01X499823Y497252D02*
Y507252D01*
G01X505073D02*
Y497252D01*
G01Y502252D02*
X499823D01*
G01X512448Y496919D02*
X512198Y497086D01*
Y497419D01*
X512448Y497586D01*
X512698Y497419D01*
Y497086D01*
X512448Y496919D01*
G01Y501419D02*
X512198Y501586D01*
Y501919D01*
X512448Y502086D01*
X512698Y501919D01*
Y501586D01*
X512448Y501419D01*
G01X534948Y497252D02*
X529948D01*
Y507252D01*
X534948D01*
G01X532948Y502419D02*
X529948D01*
G01X539573Y497252D02*
Y507252D01*
X545323Y497252D01*
Y507252D01*
G01X550948D02*
X553947D01*
G01X552448D02*
Y497252D01*
G01X550948D02*
X553947D01*
G01X563198Y502252D02*
X565698D01*
Y499252D01*
X564948Y498252D01*
X564073Y497586D01*
X562823Y497252D01*
X561573Y497586D01*
X560698Y498252D01*
X559948Y499252D01*
X559447Y500419D01*
X559198Y501752D01*
Y502919D01*
X559447Y503919D01*
X559948Y505086D01*
X560698Y506086D01*
X561448Y506752D01*
X562448Y507252D01*
X563322D01*
X564322Y506919D01*
X565073Y506252D01*
G01X580073Y497252D02*
Y507252D01*
X584823D01*
G01X583073Y502419D02*
X580073D01*
G01X590948Y507252D02*
X593947D01*
G01X592448D02*
Y497252D01*
G01X590948D02*
X593947D01*
G01X599573D02*
Y507252D01*
X605323Y497252D01*
Y507252D01*
G01X610948D02*
X613947D01*
G01X612448D02*
Y497252D01*
G01X610948D02*
X613947D01*
G01X619823Y498585D02*
X620823Y497752D01*
X621948Y497252D01*
X622948D01*
X623948Y497752D01*
X624698Y498585D01*
X625073Y499752D01*
X624823Y500919D01*
X624198Y501919D01*
X623073Y502586D01*
X621573Y502919D01*
X620698Y503586D01*
X620323Y504752D01*
X620573Y505919D01*
X621198Y506752D01*
X622073Y507252D01*
X622948D01*
X623823Y506919D01*
X624573Y506086D01*
G01X629823Y497252D02*
Y507252D01*
G01X635073D02*
Y497252D01*
G01Y502252D02*
X629823D01*
G01X348198Y525752D02*
X348948Y524919D01*
X349822Y524419D01*
X350948Y524252D01*
X352073Y524586D01*
X352948Y525252D01*
X353573Y526419D01*
X353698Y527752D01*
X353448Y529086D01*
X352822Y529919D01*
X351948Y530586D01*
X351073Y530752D01*
X350198Y530586D01*
X349073Y529919D01*
X349448Y534252D01*
X352822D01*
G01X360948Y523919D02*
X360698Y524086D01*
Y524419D01*
X360948Y524586D01*
X361198Y524419D01*
Y524086D01*
X360948Y523919D01*
G01X368073Y524252D02*
Y534252D01*
X373823Y524252D01*
Y534252D01*
G01X380948Y524252D02*
X379948Y524419D01*
X379073Y525086D01*
X378323Y526086D01*
X377822Y527252D01*
X377572Y528586D01*
Y529919D01*
X377822Y531252D01*
X378323Y532419D01*
X379073Y533419D01*
X379948Y534086D01*
X380948Y534252D01*
X381948Y534086D01*
X382822Y533419D01*
X383573Y532419D01*
X384073Y531252D01*
X384323Y529919D01*
Y528586D01*
X384073Y527252D01*
X383573Y526086D01*
X382822Y525086D01*
X381948Y524419D01*
X380948Y524252D01*
G01X400948D02*
X399948Y524419D01*
X399073Y525086D01*
X398323Y526086D01*
X397822Y527252D01*
X397572Y528586D01*
Y529919D01*
X397822Y531252D01*
X398323Y532419D01*
X399073Y533419D01*
X399948Y534086D01*
X400948Y534252D01*
X401948Y534086D01*
X402822Y533419D01*
X403573Y532419D01*
X404073Y531252D01*
X404323Y529919D01*
Y528586D01*
X404073Y527252D01*
X403573Y526086D01*
X402822Y525086D01*
X401948Y524419D01*
X400948Y524252D01*
G01X408572D02*
Y534252D01*
X413323D01*
G01X411573Y529419D02*
X408572D01*
G01X428448Y534252D02*
Y524252D01*
X433448D01*
G01X437823D02*
X440948Y534252D01*
X444073Y524252D01*
G01X442948Y527752D02*
X438948D01*
G01X450948Y524252D02*
Y528752D01*
X448448Y534252D01*
G01X453448D02*
X450948Y528752D01*
G01X463448Y524252D02*
X458448D01*
Y534252D01*
X463448D01*
G01X461448Y529419D02*
X458448D01*
G01X468448Y524252D02*
Y534252D01*
X471573D01*
X472573Y533752D01*
X473198Y533086D01*
X473448Y531752D01*
X473198Y530419D01*
X472448Y529586D01*
X471573Y529086D01*
X468448D01*
G01X471573D02*
X473448Y524252D01*
G01X478323Y525585D02*
X479323Y524752D01*
X480448Y524252D01*
X481448D01*
X482448Y524752D01*
X483198Y525585D01*
X483573Y526752D01*
X483323Y527919D01*
X482698Y528919D01*
X481573Y529586D01*
X480073Y529919D01*
X479198Y530586D01*
X478823Y531752D01*
X479073Y532919D01*
X479698Y533752D01*
X480573Y534252D01*
X481448D01*
X482323Y533919D01*
X483073Y533086D01*
G01X490948Y523919D02*
X490698Y524086D01*
Y524419D01*
X490948Y524586D01*
X491198Y524419D01*
Y524086D01*
X490948Y523919D01*
G01Y528419D02*
X490698Y528586D01*
Y528919D01*
X490948Y529086D01*
X491198Y528919D01*
Y528586D01*
X490948Y528419D01*
G01X508572Y532586D02*
X509323Y533586D01*
X510198Y534086D01*
X511198Y534252D01*
X512448Y533919D01*
X513323Y533086D01*
X513573Y532086D01*
X513448Y531086D01*
X512948Y530252D01*
X510448Y528586D01*
X509323Y527419D01*
X508572Y525752D01*
X508323Y524252D01*
X513573D01*
G01X350048Y551402D02*
Y561402D01*
X345422Y554236D01*
X351673D01*
G01X358548Y551069D02*
X358298Y551236D01*
Y551569D01*
X358548Y551736D01*
X358798Y551569D01*
Y551236D01*
X358548Y551069D01*
G01X366172Y551402D02*
Y561402D01*
X370923D01*
G01X369173Y556569D02*
X366172D01*
G01X377048Y561402D02*
X380047D01*
G01X378548D02*
Y551402D01*
G01X377048D02*
X380047D01*
G01X385673D02*
Y561402D01*
X391423Y551402D01*
Y561402D01*
G01X397048D02*
X400047D01*
G01X398548D02*
Y551402D01*
G01X397048D02*
X400047D01*
G01X405923Y552735D02*
X406923Y551902D01*
X408048Y551402D01*
X409048D01*
X410048Y551902D01*
X410798Y552735D01*
X411173Y553902D01*
X410923Y555069D01*
X410298Y556069D01*
X409173Y556736D01*
X407673Y557069D01*
X406798Y557736D01*
X406423Y558902D01*
X406673Y560069D01*
X407297Y560902D01*
X408173Y561402D01*
X409048D01*
X409923Y561069D01*
X410673Y560236D01*
G01X415923Y551402D02*
Y561402D01*
G01X421173D02*
Y551402D01*
G01Y556402D02*
X415923D01*
G01X431048Y551402D02*
X426048D01*
Y561402D01*
X431048D01*
G01X429048Y556569D02*
X426048D01*
G01X435798Y551402D02*
Y561402D01*
X438298D01*
X439298Y560902D01*
X440048Y560236D01*
X440673Y559236D01*
X441173Y558069D01*
X441298Y556402D01*
X441173Y554736D01*
X440673Y553569D01*
X440048Y552569D01*
X439298Y551902D01*
X438298Y551402D01*
X435798D01*
G01X461298Y560569D02*
X460548Y561069D01*
X459673Y561402D01*
X458673D01*
X457548Y560902D01*
X456673Y560069D01*
X456048Y559069D01*
X455547Y557402D01*
X455423Y555902D01*
X455673Y554402D01*
X456048Y553402D01*
X456798Y552402D01*
X457673Y551736D01*
X458548Y551402D01*
X459423D01*
X460298Y551736D01*
X461048Y552236D01*
X461673Y552902D01*
G01X465798Y561402D02*
Y554236D01*
X466298Y552735D01*
X467298Y551736D01*
X468548Y551402D01*
X469798Y551736D01*
X470798Y552735D01*
X471298Y554236D01*
Y561402D01*
G01X488548D02*
Y551402D01*
G01X485673Y561402D02*
X491423D01*
G01X495923Y551402D02*
Y561402D01*
G01X501173D02*
Y551402D01*
G01Y556402D02*
X495923D01*
G01X507048Y561402D02*
X510047D01*
G01X508548D02*
Y551402D01*
G01X507048D02*
X510047D01*
G01X521298Y560569D02*
X520548Y561069D01*
X519673Y561402D01*
X518673D01*
X517548Y560902D01*
X516673Y560069D01*
X516048Y559069D01*
X515547Y557402D01*
X515422Y555902D01*
X515673Y554402D01*
X516048Y553402D01*
X516798Y552402D01*
X517673Y551736D01*
X518548Y551402D01*
X519423D01*
X520298Y551736D01*
X521048Y552236D01*
X521673Y552902D01*
G01X525798Y551402D02*
Y561402D01*
G01X530548D02*
X525798Y555236D01*
G01X531298Y551402D02*
X527923Y558069D01*
G01X535673Y551402D02*
Y561402D01*
X541423Y551402D01*
Y561402D01*
G01X551048Y551402D02*
X546048D01*
Y561402D01*
X551048D01*
G01X549048Y556569D02*
X546048D01*
G01X555923Y552735D02*
X556923Y551902D01*
X558048Y551402D01*
X559048D01*
X560048Y551902D01*
X560798Y552735D01*
X561173Y553902D01*
X560923Y555069D01*
X560298Y556069D01*
X559173Y556736D01*
X557673Y557069D01*
X556798Y557736D01*
X556422Y558902D01*
X556673Y560069D01*
X557298Y560902D01*
X558173Y561402D01*
X559048D01*
X559923Y561069D01*
X560673Y560236D01*
G01X565923Y552735D02*
X566923Y551902D01*
X568048Y551402D01*
X569048D01*
X570048Y551902D01*
X570798Y552735D01*
X571173Y553902D01*
X570923Y555069D01*
X570298Y556069D01*
X569173Y556736D01*
X567673Y557069D01*
X566798Y557736D01*
X566422Y558902D01*
X566673Y560069D01*
X567298Y560902D01*
X568173Y561402D01*
X569048D01*
X569923Y561069D01*
X570673Y560236D01*
G01X586173Y551402D02*
Y561402D01*
X590923D01*
G01X589173Y556569D02*
X586173D01*
G01X598548Y551402D02*
X597548Y551569D01*
X596673Y552236D01*
X595923Y553236D01*
X595422Y554402D01*
X595173Y555736D01*
Y557069D01*
X595422Y558402D01*
X595923Y559569D01*
X596673Y560569D01*
X597548Y561236D01*
X598548Y561402D01*
X599548Y561236D01*
X600423Y560569D01*
X601173Y559569D01*
X601673Y558402D01*
X601923Y557069D01*
Y555736D01*
X601673Y554402D01*
X601173Y553236D01*
X600423Y552236D01*
X599548Y551569D01*
X598548Y551402D01*
G01X606048D02*
Y561402D01*
X609173D01*
X610173Y560902D01*
X610798Y560236D01*
X611048Y558902D01*
X610798Y557569D01*
X610048Y556736D01*
X609173Y556236D01*
X606048D01*
G01X609173D02*
X611048Y551402D01*
G01X625423D02*
X628548Y561402D01*
X631673Y551402D01*
G01X630548Y554902D02*
X626548D01*
G01X636048Y561402D02*
Y551402D01*
X641048D01*
G01X646048Y561402D02*
Y551402D01*
X651048D01*
G01X666048Y561402D02*
Y551402D01*
X671048D01*
G01X675423D02*
X678548Y561402D01*
X681673Y551402D01*
G01X680548Y554902D02*
X676548D01*
G01X688548Y551402D02*
Y555902D01*
X686048Y561402D01*
G01X691048D02*
X688548Y555902D01*
G01X701048Y551402D02*
X696048D01*
Y561402D01*
X701048D01*
G01X699048Y556569D02*
X696048D01*
G01X706048Y551402D02*
Y561402D01*
X709173D01*
X710173Y560902D01*
X710798Y560236D01*
X711048Y558902D01*
X710798Y557569D01*
X710048Y556736D01*
X709173Y556236D01*
X706048D01*
G01X709173D02*
X711048Y551402D01*
G01X715923Y552735D02*
X716923Y551902D01*
X718048Y551402D01*
X719048D01*
X720048Y551902D01*
X720798Y552735D01*
X721173Y553902D01*
X720923Y555069D01*
X720298Y556069D01*
X719173Y556736D01*
X717673Y557069D01*
X716798Y557736D01*
X716423Y558902D01*
X716673Y560069D01*
X717298Y560902D01*
X718173Y561402D01*
X719048D01*
X719923Y561069D01*
X720673Y560236D01*
G01X738548Y551069D02*
X738298Y551236D01*
Y551569D01*
X738548Y551736D01*
X738798Y551569D01*
Y551236D01*
X738548Y551069D01*
G01Y555569D02*
X738298Y555736D01*
Y556069D01*
X738548Y556236D01*
X738798Y556069D01*
Y555736D01*
X738548Y555569D01*
G01X756173Y559736D02*
X756923Y560736D01*
X757798Y561236D01*
X758798Y561402D01*
X760048Y561069D01*
X760923Y560236D01*
X761173Y559236D01*
X761048Y558236D01*
X760548Y557402D01*
X758048Y555736D01*
X756923Y554569D01*
X756173Y552902D01*
X755923Y551402D01*
X761173D01*
G01X778548D02*
X777548Y551569D01*
X776673Y552236D01*
X775923Y553236D01*
X775423Y554402D01*
X775172Y555736D01*
Y557069D01*
X775423Y558402D01*
X775923Y559569D01*
X776673Y560569D01*
X777548Y561236D01*
X778548Y561402D01*
X779548Y561236D01*
X780423Y560569D01*
X781173Y559569D01*
X781673Y558402D01*
X781923Y557069D01*
Y555736D01*
X781673Y554402D01*
X781173Y553236D01*
X780423Y552236D01*
X779548Y551569D01*
X778548Y551402D01*
G01X786173Y561402D02*
X790923D01*
X786173Y551402D01*
X790923D01*
G01X798548Y551069D02*
X798298Y551236D01*
Y551569D01*
X798548Y551736D01*
X798798Y551569D01*
Y551236D01*
X798548Y551069D01*
G01X345698Y585252D02*
X346448Y584086D01*
X347448Y583419D01*
X348573Y583252D01*
X349573Y583419D01*
X350573Y584252D01*
X351198Y585252D01*
X351323Y586252D01*
X351073Y587419D01*
X350198Y588252D01*
X349322Y588586D01*
X348198D01*
G01X349322D02*
X350073Y589086D01*
X350698Y589919D01*
X350948Y590919D01*
X350698Y591919D01*
X350073Y592752D01*
X348948Y593252D01*
X347823Y593086D01*
X346698Y592419D01*
G01X358448Y582919D02*
X358198Y583086D01*
Y583419D01*
X358448Y583586D01*
X358698Y583419D01*
Y583086D01*
X358448Y582919D01*
G01X369448Y588586D02*
X369948Y589086D01*
X370322Y589919D01*
X370573Y591086D01*
X370322Y592086D01*
X369823Y592752D01*
X368948Y593252D01*
X365573D01*
Y583252D01*
X369698D01*
X370573Y583919D01*
X371073Y584919D01*
X371323Y586086D01*
X371073Y587252D01*
X370322Y588252D01*
X369448Y588586D01*
X365573D01*
G01X378448Y583252D02*
X377448Y583419D01*
X376573Y584086D01*
X375823Y585086D01*
X375322Y586252D01*
X375072Y587586D01*
Y588919D01*
X375322Y590252D01*
X375823Y591419D01*
X376573Y592419D01*
X377448Y593086D01*
X378448Y593252D01*
X379448Y593086D01*
X380322Y592419D01*
X381073Y591419D01*
X381573Y590252D01*
X381823Y588919D01*
Y587586D01*
X381573Y586252D01*
X381073Y585086D01*
X380322Y584086D01*
X379448Y583419D01*
X378448Y583252D01*
G01X385322D02*
X388448Y593252D01*
X391573Y583252D01*
G01X390448Y586752D02*
X386448D01*
G01X395948Y583252D02*
Y593252D01*
X399073D01*
X400073Y592752D01*
X400698Y592086D01*
X400948Y590752D01*
X400698Y589419D01*
X399948Y588586D01*
X399073Y588086D01*
X395948D01*
G01X399073D02*
X400948Y583252D01*
G01X405698D02*
Y593252D01*
X408198D01*
X409198Y592752D01*
X409948Y592086D01*
X410573Y591086D01*
X411073Y589919D01*
X411198Y588252D01*
X411073Y586586D01*
X410573Y585419D01*
X409948Y584419D01*
X409198Y583752D01*
X408198Y583252D01*
X405698D01*
G01X428448Y593252D02*
Y583252D01*
G01X425573Y593252D02*
X431323D01*
G01X435823Y583252D02*
Y593252D01*
G01X441073D02*
Y583252D01*
G01Y588252D02*
X435823D01*
G01X446948Y593252D02*
X449947D01*
G01X448448D02*
Y583252D01*
G01X446948D02*
X449947D01*
G01X461198Y592419D02*
X460448Y592919D01*
X459573Y593252D01*
X458573D01*
X457448Y592752D01*
X456573Y591919D01*
X455948Y590919D01*
X455447Y589252D01*
X455323Y587752D01*
X455573Y586252D01*
X455948Y585252D01*
X456698Y584252D01*
X457573Y583586D01*
X458448Y583252D01*
X459323D01*
X460198Y583586D01*
X460948Y584086D01*
X461573Y584752D01*
G01X465698Y583252D02*
Y593252D01*
G01X470448D02*
X465698Y587086D01*
G01X471198Y583252D02*
X467823Y589919D01*
G01X475573Y583252D02*
Y593252D01*
X481323Y583252D01*
Y593252D01*
G01X490948Y583252D02*
X485948D01*
Y593252D01*
X490948D01*
G01X488948Y588419D02*
X485948D01*
G01X495823Y584585D02*
X496823Y583752D01*
X497948Y583252D01*
X498948D01*
X499948Y583752D01*
X500698Y584585D01*
X501073Y585752D01*
X500823Y586919D01*
X500198Y587919D01*
X499073Y588586D01*
X497573Y588919D01*
X496698Y589586D01*
X496323Y590752D01*
X496573Y591919D01*
X497198Y592752D01*
X498073Y593252D01*
X498948D01*
X499823Y592919D01*
X500573Y592086D01*
G01X505823Y584585D02*
X506823Y583752D01*
X507948Y583252D01*
X508948D01*
X509948Y583752D01*
X510698Y584585D01*
X511073Y585752D01*
X510823Y586919D01*
X510198Y587919D01*
X509073Y588586D01*
X507573Y588919D01*
X506698Y589586D01*
X506322Y590752D01*
X506573Y591919D01*
X507198Y592752D01*
X508073Y593252D01*
X508948D01*
X509823Y592919D01*
X510573Y592086D01*
G01X518448Y582919D02*
X518198Y583086D01*
Y583419D01*
X518448Y583586D01*
X518698Y583419D01*
Y583086D01*
X518448Y582919D01*
G01Y587419D02*
X518198Y587586D01*
Y587919D01*
X518448Y588086D01*
X518698Y587919D01*
Y587586D01*
X518448Y587419D01*
G01X538448Y583252D02*
Y593252D01*
X536948Y591252D01*
G01Y583252D02*
X539947D01*
G01X548448Y582919D02*
X548198Y583086D01*
Y583419D01*
X548448Y583586D01*
X548698Y583419D01*
Y583086D01*
X548448Y582919D01*
G01X556073Y587419D02*
X556948Y588586D01*
X557698Y589252D01*
X558698Y589586D01*
X559573Y589252D01*
X560198Y588586D01*
X560698Y587586D01*
X560823Y586419D01*
X560698Y585419D01*
X560198Y584419D01*
X559448Y583586D01*
X558573Y583252D01*
X557573Y583586D01*
X556698Y584585D01*
X556198Y586086D01*
X556073Y587752D01*
X556322Y589919D01*
X556698Y591086D01*
X557323Y592252D01*
X558198Y593086D01*
X559073Y593252D01*
X559948Y592919D01*
X560573Y592086D01*
G01X575198Y583252D02*
Y593252D01*
X578448Y584919D01*
X581698Y593252D01*
Y583252D01*
G01X585198D02*
Y593252D01*
X588448Y584919D01*
X591698Y593252D01*
Y583252D01*
G01X607073Y586586D02*
X610073D01*
G01X608448Y588752D02*
Y584419D01*
G01X616198Y582919D02*
X620698Y593252D01*
G01X626823Y586586D02*
X630073D01*
G01X635698Y584752D02*
X636448Y583919D01*
X637323Y583419D01*
X638448Y583252D01*
X639573Y583586D01*
X640448Y584252D01*
X641073Y585419D01*
X641198Y586752D01*
X640948Y588086D01*
X640323Y588919D01*
X639448Y589586D01*
X638573Y589752D01*
X637698Y589586D01*
X636573Y588919D01*
X636948Y593252D01*
X640323D01*
G01X646198Y582919D02*
X650698Y593252D01*
G01X646198D02*
X645447Y592919D01*
X645072Y592419D01*
X644823Y591419D01*
X645072Y590419D01*
X645447Y589919D01*
X646198Y589586D01*
X646948Y589919D01*
X647322Y590419D01*
X647573Y591419D01*
X647322Y592419D01*
X646948Y592919D01*
X646198Y593252D01*
G01X650698Y586586D02*
X649948Y586252D01*
X649573Y585752D01*
X649323Y584752D01*
X649573Y583752D01*
X649948Y583252D01*
X650698Y582919D01*
X651448Y583252D01*
X651823Y583752D01*
X652073Y584752D01*
X651823Y585752D01*
X651448Y586252D01*
X650698Y586586D01*
G01X668448Y593252D02*
Y583252D01*
G01X665573Y593252D02*
X671323D01*
G01X678448Y583252D02*
X677448Y583419D01*
X676573Y584086D01*
X675823Y585086D01*
X675322Y586252D01*
X675072Y587586D01*
Y588919D01*
X675322Y590252D01*
X675823Y591419D01*
X676573Y592419D01*
X677448Y593086D01*
X678448Y593252D01*
X679448Y593086D01*
X680322Y592419D01*
X681073Y591419D01*
X681573Y590252D01*
X681823Y588919D01*
Y587586D01*
X681573Y586252D01*
X681073Y585086D01*
X680322Y584086D01*
X679448Y583419D01*
X678448Y583252D01*
G01X685948Y593252D02*
Y583252D01*
X690948D01*
G01X698448Y582919D02*
X698198Y583086D01*
Y583419D01*
X698448Y583586D01*
X698698Y583419D01*
Y583086D01*
X698448Y582919D01*
G01X344583Y638216D02*
X345333Y639216D01*
X346208Y639716D01*
X347208Y639882D01*
X348458Y639549D01*
X349333Y638716D01*
X349583Y637716D01*
X349458Y636715D01*
X348958Y635882D01*
X346458Y634216D01*
X345333Y633049D01*
X344583Y631382D01*
X344333Y629882D01*
X349583D01*
G01X356958Y629549D02*
X356708Y629716D01*
Y630049D01*
X356958Y630216D01*
X357208Y630049D01*
Y629716D01*
X356958Y629549D01*
G01X363708Y629882D02*
Y639882D01*
X366958Y631549D01*
X370208Y639882D01*
Y629882D01*
G01X373833D02*
X376958Y639882D01*
X380083Y629882D01*
G01X378958Y633382D02*
X374958D01*
G01X386958Y639882D02*
Y629882D01*
G01X384083Y639882D02*
X389833D01*
G01X399458Y629882D02*
X394458D01*
Y639882D01*
X399458D01*
G01X397458Y635049D02*
X394458D01*
G01X404458Y629882D02*
Y639882D01*
X407583D01*
X408583Y639382D01*
X409208Y638716D01*
X409458Y637382D01*
X409208Y636049D01*
X408458Y635216D01*
X407583Y634716D01*
X404458D01*
G01X407583D02*
X409458Y629882D01*
G01X415458Y639882D02*
X418458D01*
G01X416958D02*
Y629882D01*
G01X415458D02*
X418458D01*
G01X423833D02*
X426958Y639882D01*
X430083Y629882D01*
G01X428958Y633382D02*
X424958D01*
G01X434458Y639882D02*
Y629882D01*
X439458D01*
G01X446958Y629549D02*
X446708Y629716D01*
Y630049D01*
X446958Y630216D01*
X447208Y630049D01*
Y629716D01*
X446958Y629549D01*
G01Y634049D02*
X446708Y634216D01*
Y634549D01*
X446958Y634716D01*
X447208Y634549D01*
Y634216D01*
X446958Y634049D01*
G01X343958Y664882D02*
Y674882D01*
X342458Y672882D01*
G01Y664882D02*
X345458D01*
G01X353958Y664549D02*
X353708Y664716D01*
Y665049D01*
X353958Y665216D01*
X354208Y665049D01*
Y664716D01*
X353958Y664549D01*
G01X361583Y664882D02*
Y674882D01*
X366333D01*
G01X364583Y670049D02*
X361583D01*
G01X370833Y664882D02*
X373958Y674882D01*
X377083Y664882D01*
G01X375958Y668382D02*
X371958D01*
G01X384958Y670216D02*
X385458Y670716D01*
X385833Y671549D01*
X386083Y672716D01*
X385833Y673716D01*
X385333Y674382D01*
X384458Y674882D01*
X381083D01*
Y664882D01*
X385208D01*
X386083Y665549D01*
X386583Y666549D01*
X386833Y667716D01*
X386583Y668882D01*
X385833Y669882D01*
X384958Y670216D01*
X381083D01*
G01X391458Y664882D02*
Y674882D01*
X394583D01*
X395583Y674382D01*
X396208Y673716D01*
X396458Y672382D01*
X396208Y671049D01*
X395458Y670216D01*
X394583Y669716D01*
X391458D01*
G01X394583D02*
X396458Y664882D01*
G01X402458Y674882D02*
X405458D01*
G01X403958D02*
Y664882D01*
G01X402458D02*
X405458D01*
G01X416708Y674049D02*
X415958Y674549D01*
X415083Y674882D01*
X414083D01*
X412958Y674382D01*
X412083Y673549D01*
X411458Y672549D01*
X410958Y670882D01*
X410833Y669382D01*
X411083Y667882D01*
X411458Y666882D01*
X412208Y665882D01*
X413083Y665216D01*
X413958Y664882D01*
X414833D01*
X415708Y665216D01*
X416458Y665716D01*
X417083Y666382D01*
G01X420833Y664882D02*
X423958Y674882D01*
X427083Y664882D01*
G01X425958Y668382D02*
X421958D01*
G01X433958Y674882D02*
Y664882D01*
G01X431083Y674882D02*
X436833D01*
G01X446458Y664882D02*
X441458D01*
Y674882D01*
X446458D01*
G01X444458Y670049D02*
X441458D01*
G01X461458Y664882D02*
Y674882D01*
X464458D01*
X465458Y674382D01*
X466208Y673216D01*
X466458Y671882D01*
X466208Y670549D01*
X465583Y669549D01*
X464458Y669049D01*
X461458D01*
G01X476458Y664882D02*
X471458D01*
Y674882D01*
X476458D01*
G01X474458Y670049D02*
X471458D01*
G01X481458Y664882D02*
Y674882D01*
X484583D01*
X485583Y674382D01*
X486208Y673716D01*
X486458Y672382D01*
X486208Y671049D01*
X485458Y670216D01*
X484583Y669716D01*
X481458D01*
G01X484583D02*
X486458Y664882D01*
G01X502458Y674882D02*
X505458D01*
G01X503958D02*
Y664882D01*
G01X502458D02*
X505458D01*
G01X511458D02*
Y674882D01*
X514458D01*
X515458Y674382D01*
X516208Y673216D01*
X516458Y671882D01*
X516208Y670549D01*
X515583Y669549D01*
X514458Y669049D01*
X511458D01*
G01X526708Y674049D02*
X525958Y674549D01*
X525083Y674882D01*
X524083D01*
X522958Y674382D01*
X522083Y673549D01*
X521458Y672549D01*
X520958Y670882D01*
X520833Y669382D01*
X521083Y667882D01*
X521458Y666882D01*
X522208Y665882D01*
X523083Y665216D01*
X523958Y664882D01*
X524833D01*
X525708Y665216D01*
X526458Y665716D01*
X527083Y666382D01*
G01X532333Y668216D02*
X535583D01*
G01X541583Y669049D02*
X542458Y670216D01*
X543208Y670882D01*
X544208Y671216D01*
X545083Y670882D01*
X545708Y670216D01*
X546208Y669216D01*
X546333Y668049D01*
X546208Y667049D01*
X545708Y666049D01*
X544958Y665216D01*
X544083Y664882D01*
X543083Y665216D01*
X542208Y666215D01*
X541708Y667716D01*
X541583Y669382D01*
X541833Y671549D01*
X542208Y672716D01*
X542833Y673882D01*
X543708Y674716D01*
X544583Y674882D01*
X545458Y674549D01*
X546083Y673716D01*
G01X553958Y674882D02*
X552958Y674549D01*
X552208Y673716D01*
X551708Y672716D01*
X551333Y671382D01*
X551208Y669882D01*
X551333Y668382D01*
X551708Y667049D01*
X552208Y666049D01*
X552958Y665216D01*
X553958Y664882D01*
X554958Y665216D01*
X555708Y666049D01*
X556208Y667049D01*
X556583Y668382D01*
X556708Y669882D01*
X556583Y671382D01*
X556208Y672716D01*
X555708Y673716D01*
X554958Y674549D01*
X553958Y674882D01*
G01X563958Y664882D02*
Y674882D01*
X562458Y672882D01*
G01Y664882D02*
X565458D01*
G01X571583Y673216D02*
X572333Y674216D01*
X573208Y674716D01*
X574208Y674882D01*
X575458Y674549D01*
X576333Y673716D01*
X576583Y672716D01*
X576458Y671715D01*
X575958Y670882D01*
X573458Y669216D01*
X572333Y668049D01*
X571583Y666382D01*
X571333Y664882D01*
X576583D01*
G01X584958Y670216D02*
X585458Y670716D01*
X585833Y671549D01*
X586083Y672716D01*
X585833Y673716D01*
X585333Y674382D01*
X584458Y674882D01*
X581083D01*
Y664882D01*
X585208D01*
X586083Y665549D01*
X586583Y666549D01*
X586833Y667716D01*
X586583Y668882D01*
X585833Y669882D01*
X584958Y670216D01*
X581083D01*
G01X603958Y674882D02*
Y664882D01*
G01X601083Y674882D02*
X606833D01*
G01X613958Y664882D02*
Y669382D01*
X611458Y674882D01*
G01X616458D02*
X613958Y669382D01*
G01X621458Y664882D02*
Y674882D01*
X624458D01*
X625458Y674382D01*
X626208Y673216D01*
X626458Y671882D01*
X626208Y670549D01*
X625583Y669549D01*
X624458Y669049D01*
X621458D01*
G01X636458Y664882D02*
X631458D01*
Y674882D01*
X636458D01*
G01X634458Y670049D02*
X631458D01*
G01X651583Y673216D02*
X652333Y674216D01*
X653208Y674716D01*
X654208Y674882D01*
X655458Y674549D01*
X656333Y673716D01*
X656583Y672716D01*
X656458Y671715D01*
X655958Y670882D01*
X653458Y669216D01*
X652333Y668049D01*
X651583Y666382D01*
X651333Y664882D01*
X656583D01*
G01X676708Y674049D02*
X675958Y674549D01*
X675083Y674882D01*
X674083D01*
X672958Y674382D01*
X672083Y673549D01*
X671458Y672549D01*
X670958Y670882D01*
X670833Y669382D01*
X671083Y667882D01*
X671458Y666882D01*
X672208Y665882D01*
X673083Y665216D01*
X673958Y664882D01*
X674833D01*
X675708Y665216D01*
X676458Y665716D01*
X677083Y666382D01*
G01X681458Y674882D02*
Y664882D01*
X686458D01*
G01X690833D02*
X693958Y674882D01*
X697083Y664882D01*
G01X695958Y668382D02*
X691958D01*
G01X701333Y666215D02*
X702333Y665382D01*
X703458Y664882D01*
X704458D01*
X705458Y665382D01*
X706208Y666215D01*
X706583Y667382D01*
X706333Y668549D01*
X705708Y669549D01*
X704583Y670216D01*
X703083Y670549D01*
X702208Y671216D01*
X701833Y672382D01*
X702083Y673549D01*
X702708Y674382D01*
X703583Y674882D01*
X704458D01*
X705333Y674549D01*
X706083Y673716D01*
G01X711333Y666215D02*
X712333Y665382D01*
X713458Y664882D01*
X714458D01*
X715458Y665382D01*
X716208Y666215D01*
X716583Y667382D01*
X716333Y668549D01*
X715708Y669549D01*
X714583Y670216D01*
X713083Y670549D01*
X712208Y671216D01*
X711833Y672382D01*
X712083Y673549D01*
X712708Y674382D01*
X713583Y674882D01*
X714458D01*
X715333Y674549D01*
X716083Y673716D01*
G01X731208Y666882D02*
X731958Y665716D01*
X732958Y665049D01*
X734083Y664882D01*
X735083Y665049D01*
X736083Y665882D01*
X736708Y666882D01*
X736833Y667882D01*
X736583Y669049D01*
X735708Y669882D01*
X734833Y670216D01*
X733708D01*
G01X734833D02*
X735583Y670716D01*
X736208Y671549D01*
X736458Y672549D01*
X736208Y673549D01*
X735583Y674382D01*
X734458Y674882D01*
X733333Y674716D01*
X732208Y674049D01*
G01X380198Y430919D02*
X379448Y431419D01*
X378573Y431752D01*
X377573D01*
X376448Y431252D01*
X375573Y430419D01*
X374948Y429419D01*
X374447Y427752D01*
X374322Y426252D01*
X374573Y424752D01*
X374948Y423752D01*
X375698Y422752D01*
X376573Y422086D01*
X377448Y421752D01*
X378322D01*
X379198Y422086D01*
X379948Y422586D01*
X380573Y423252D01*
G01X387448Y421752D02*
X386448Y421919D01*
X385573Y422586D01*
X384823Y423586D01*
X384322Y424752D01*
X384072Y426086D01*
Y427419D01*
X384322Y428752D01*
X384823Y429919D01*
X385573Y430919D01*
X386448Y431586D01*
X387448Y431752D01*
X388448Y431586D01*
X389322Y430919D01*
X390073Y429919D01*
X390573Y428752D01*
X390823Y427419D01*
Y426086D01*
X390573Y424752D01*
X390073Y423586D01*
X389322Y422586D01*
X388448Y421919D01*
X387448Y421752D01*
G01X394948Y431752D02*
Y421752D01*
X399948D01*
G01X407447D02*
X406448Y421919D01*
X405573Y422586D01*
X404823Y423586D01*
X404322Y424752D01*
X404072Y426086D01*
Y427419D01*
X404322Y428752D01*
X404823Y429919D01*
X405573Y430919D01*
X406448Y431586D01*
X407447Y431752D01*
X408448Y431586D01*
X409323Y430919D01*
X410073Y429919D01*
X410573Y428752D01*
X410823Y427419D01*
Y426086D01*
X410573Y424752D01*
X410073Y423586D01*
X409323Y422586D01*
X408448Y421919D01*
X407447Y421752D01*
G01X414948D02*
Y431752D01*
X418073D01*
X419073Y431252D01*
X419698Y430586D01*
X419948Y429252D01*
X419698Y427919D01*
X418948Y427086D01*
X418073Y426586D01*
X414948D01*
G01X418073D02*
X419948Y421752D01*
G01X427448Y421419D02*
X427198Y421586D01*
Y421919D01*
X427448Y422086D01*
X427698Y421919D01*
Y421586D01*
X427448Y421419D01*
G01Y425919D02*
X427198Y426086D01*
Y426419D01*
X427448Y426586D01*
X427698Y426419D01*
Y426086D01*
X427448Y425919D01*
G01X438198Y426752D02*
X440698D01*
Y423752D01*
X439948Y422752D01*
X439073Y422086D01*
X437823Y421752D01*
X436573Y422086D01*
X435698Y422752D01*
X434948Y423752D01*
X434447Y424919D01*
X434198Y426252D01*
Y427419D01*
X434447Y428419D01*
X434948Y429586D01*
X435698Y430586D01*
X436448Y431252D01*
X437448Y431752D01*
X438323D01*
X439322Y431419D01*
X440073Y430752D01*
G01X444948Y421752D02*
Y431752D01*
X448073D01*
X449073Y431252D01*
X449698Y430586D01*
X449948Y429252D01*
X449698Y427919D01*
X448948Y427086D01*
X448073Y426586D01*
X444948D01*
G01X448073D02*
X449948Y421752D01*
G01X459948D02*
X454948D01*
Y431752D01*
X459948D01*
G01X457948Y426919D02*
X454948D01*
G01X469948Y421752D02*
X464948D01*
Y431752D01*
X469948D01*
G01X467948Y426919D02*
X464948D01*
G01X474573Y421752D02*
Y431752D01*
X480323Y421752D01*
Y431752D01*
G01X372322Y455252D02*
X375448Y445252D01*
X378573Y455252D01*
G01X387948Y445252D02*
X382948D01*
Y455252D01*
X387948D01*
G01X385948Y450419D02*
X382948D01*
G01X392573Y445252D02*
Y455252D01*
X398323Y445252D01*
Y455252D01*
G01X402698Y445252D02*
Y455252D01*
X405197D01*
X406198Y454752D01*
X406948Y454086D01*
X407573Y453086D01*
X408073Y451919D01*
X408198Y450252D01*
X408073Y448586D01*
X407573Y447419D01*
X406948Y446419D01*
X406198Y445752D01*
X405197Y445252D01*
X402698D01*
G01X415448D02*
X414448Y445419D01*
X413573Y446086D01*
X412823Y447086D01*
X412323Y448252D01*
X412072Y449586D01*
Y450919D01*
X412323Y452252D01*
X412823Y453419D01*
X413573Y454419D01*
X414448Y455086D01*
X415448Y455252D01*
X416448Y455086D01*
X417323Y454419D01*
X418073Y453419D01*
X418573Y452252D01*
X418823Y450919D01*
Y449586D01*
X418573Y448252D01*
X418073Y447086D01*
X417323Y446086D01*
X416448Y445419D01*
X415448Y445252D01*
G01X422948D02*
Y455252D01*
X426073D01*
X427073Y454752D01*
X427698Y454086D01*
X427948Y452752D01*
X427698Y451419D01*
X426948Y450586D01*
X426073Y450086D01*
X422948D01*
G01X426073D02*
X427948Y445252D01*
G01X442823Y446585D02*
X443823Y445752D01*
X444948Y445252D01*
X445948D01*
X446948Y445752D01*
X447698Y446585D01*
X448073Y447752D01*
X447823Y448919D01*
X447198Y449919D01*
X446073Y450586D01*
X444573Y450919D01*
X443698Y451586D01*
X443322Y452752D01*
X443573Y453919D01*
X444198Y454752D01*
X445073Y455252D01*
X445948D01*
X446823Y454919D01*
X447573Y454086D01*
G01X452823Y445252D02*
Y455252D01*
G01X458073D02*
Y445252D01*
G01Y450252D02*
X452823D01*
G01X462323Y445252D02*
X465448Y455252D01*
X468573Y445252D01*
G01X467448Y448752D02*
X463448D01*
G01X472948Y455252D02*
Y445252D01*
X477948D01*
G01X482948Y455252D02*
Y445252D01*
X487948D01*
G01X502198D02*
Y455252D01*
X505448Y446919D01*
X508698Y455252D01*
Y445252D01*
G01X515448D02*
X514448Y445419D01*
X513573Y446086D01*
X512823Y447086D01*
X512323Y448252D01*
X512072Y449586D01*
Y450919D01*
X512323Y452252D01*
X512823Y453419D01*
X513573Y454419D01*
X514448Y455086D01*
X515448Y455252D01*
X516448Y455086D01*
X517323Y454419D01*
X518073Y453419D01*
X518573Y452252D01*
X518823Y450919D01*
Y449586D01*
X518573Y448252D01*
X518073Y447086D01*
X517323Y446086D01*
X516448Y445419D01*
X515448Y445252D01*
G01X522698D02*
Y455252D01*
X525198D01*
X526198Y454752D01*
X526948Y454086D01*
X527573Y453086D01*
X528073Y451919D01*
X528198Y450252D01*
X528073Y448586D01*
X527573Y447419D01*
X526948Y446419D01*
X526198Y445752D01*
X525198Y445252D01*
X522698D01*
G01X533948Y455252D02*
X536947D01*
G01X535448D02*
Y445252D01*
G01X533948D02*
X536947D01*
G01X543073D02*
Y455252D01*
X547823D01*
G01X546073Y450419D02*
X543073D01*
G01X555448Y445252D02*
Y449752D01*
X552948Y455252D01*
G01X557948D02*
X555448Y449752D01*
G01X575448Y455252D02*
Y445252D01*
G01X572573Y455252D02*
X578323D01*
G01X582823Y445252D02*
Y455252D01*
G01X588073D02*
Y445252D01*
G01Y450252D02*
X582823D01*
G01X597948Y445252D02*
X592948D01*
Y455252D01*
X597948D01*
G01X595948Y450419D02*
X592948D01*
G01X612198Y445252D02*
Y455252D01*
X615448Y446919D01*
X618698Y455252D01*
Y445252D01*
G01X622322D02*
X625448Y455252D01*
X628573Y445252D01*
G01X627448Y448752D02*
X623448D01*
G01X632823Y446585D02*
X633823Y445752D01*
X634948Y445252D01*
X635948D01*
X636948Y445752D01*
X637698Y446585D01*
X638073Y447752D01*
X637823Y448919D01*
X637198Y449919D01*
X636073Y450586D01*
X634573Y450919D01*
X633698Y451586D01*
X633322Y452752D01*
X633573Y453919D01*
X634198Y454752D01*
X635073Y455252D01*
X635948D01*
X636823Y454919D01*
X637573Y454086D01*
G01X642698Y445252D02*
Y455252D01*
G01X647448D02*
X642698Y449086D01*
G01X648198Y445252D02*
X644823Y451919D01*
G01X668198Y454419D02*
X667448Y454919D01*
X666573Y455252D01*
X665573D01*
X664448Y454752D01*
X663573Y453919D01*
X662948Y452919D01*
X662447Y451252D01*
X662323Y449752D01*
X662573Y448252D01*
X662948Y447252D01*
X663698Y446252D01*
X664573Y445586D01*
X665448Y445252D01*
X666323D01*
X667198Y445586D01*
X667948Y446086D01*
X668573Y446752D01*
G01X672948Y455252D02*
Y445252D01*
X677948D01*
G01X687948D02*
X682948D01*
Y455252D01*
X687948D01*
G01X685948Y450419D02*
X682948D01*
G01X692322Y445252D02*
X695448Y455252D01*
X698573Y445252D01*
G01X697448Y448752D02*
X693448D01*
G01X702948Y445252D02*
Y455252D01*
X706073D01*
X707073Y454752D01*
X707698Y454086D01*
X707948Y452752D01*
X707698Y451419D01*
X706948Y450586D01*
X706073Y450086D01*
X702948D01*
G01X706073D02*
X707948Y445252D01*
G01X712323D02*
X715448Y455252D01*
X718573Y445252D01*
G01X717448Y448752D02*
X713448D01*
G01X722573Y445252D02*
Y455252D01*
X728323Y445252D01*
Y455252D01*
G01X738198Y454419D02*
X737448Y454919D01*
X736573Y455252D01*
X735573D01*
X734448Y454752D01*
X733573Y453919D01*
X732948Y452919D01*
X732447Y451252D01*
X732323Y449752D01*
X732573Y448252D01*
X732948Y447252D01*
X733698Y446252D01*
X734573Y445586D01*
X735448Y445252D01*
X736323D01*
X737198Y445586D01*
X737948Y446086D01*
X738573Y446752D01*
G01X747948Y445252D02*
X742948D01*
Y455252D01*
X747948D01*
G01X745948Y450419D02*
X742948D01*
G01X762323Y445252D02*
X765448Y455252D01*
X768573Y445252D01*
G01X767448Y448752D02*
X763448D01*
G01X772823Y446585D02*
X773823Y445752D01*
X774948Y445252D01*
X775948D01*
X776948Y445752D01*
X777698Y446585D01*
X778073Y447752D01*
X777823Y448919D01*
X777198Y449919D01*
X776073Y450586D01*
X774573Y450919D01*
X773698Y451586D01*
X773323Y452752D01*
X773573Y453919D01*
X774198Y454752D01*
X775073Y455252D01*
X775948D01*
X776823Y454919D01*
X777573Y454086D01*
G01X792948Y445252D02*
Y455252D01*
X795948D01*
X796948Y454752D01*
X797698Y453586D01*
X797948Y452252D01*
X797698Y450919D01*
X797073Y449919D01*
X795948Y449419D01*
X792948D01*
G01X807948Y445252D02*
X802948D01*
Y455252D01*
X807948D01*
G01X805948Y450419D02*
X802948D01*
G01X812948Y445252D02*
Y455252D01*
X816073D01*
X817073Y454752D01*
X817698Y454086D01*
X817948Y452752D01*
X817698Y451419D01*
X816948Y450586D01*
X816073Y450086D01*
X812948D01*
G01X816073D02*
X817948Y445252D01*
G01X835448Y455252D02*
Y445252D01*
G01X832573Y455252D02*
X838323D01*
G01X842823Y445252D02*
Y455252D01*
G01X848073D02*
Y445252D01*
G01Y450252D02*
X842823D01*
G01X857948Y445252D02*
X852948D01*
Y455252D01*
X857948D01*
G01X855948Y450419D02*
X852948D01*
G01X872948Y445252D02*
Y455252D01*
X876073D01*
X877073Y454752D01*
X877698Y454086D01*
X877948Y452752D01*
X877698Y451419D01*
X876948Y450586D01*
X876073Y450086D01*
X872948D01*
G01X876073D02*
X877948Y445252D01*
G01X887948D02*
X882948D01*
Y455252D01*
X887948D01*
G01X885948Y450419D02*
X882948D01*
G01X895448Y445252D02*
X894448Y445419D01*
X893573Y446086D01*
X892823Y447086D01*
X892322Y448252D01*
X892073Y449586D01*
Y450919D01*
X892322Y452252D01*
X892823Y453419D01*
X893573Y454419D01*
X894448Y455086D01*
X895448Y455252D01*
X896448Y455086D01*
X897323Y454419D01*
X898073Y453419D01*
X898573Y452252D01*
X898823Y450919D01*
Y449586D01*
X898573Y448252D01*
X898073Y447086D01*
X897323Y446086D01*
X896448Y445419D01*
X895448Y445252D01*
G01X896448Y447919D02*
X897948Y445252D01*
G01X902698Y455252D02*
Y448086D01*
X903198Y446585D01*
X904198Y445586D01*
X905448Y445252D01*
X906698Y445586D01*
X907698Y446585D01*
X908198Y448086D01*
Y455252D01*
G01X913948D02*
X916947D01*
G01X915448D02*
Y445252D01*
G01X913948D02*
X916947D01*
G01X922948D02*
Y455252D01*
X926073D01*
X927073Y454752D01*
X927698Y454086D01*
X927948Y452752D01*
X927698Y451419D01*
X926948Y450586D01*
X926073Y450086D01*
X922948D01*
G01X926073D02*
X927948Y445252D01*
G01X937948D02*
X932948D01*
Y455252D01*
X937948D01*
G01X935948Y450419D02*
X932948D01*
G01X942698Y445252D02*
Y455252D01*
X945198D01*
X946198Y454752D01*
X946948Y454086D01*
X947573Y453086D01*
X948073Y451919D01*
X948198Y450252D01*
X948073Y448586D01*
X947573Y447419D01*
X946948Y446419D01*
X946198Y445752D01*
X945198Y445252D01*
X942698D01*
G01X962198D02*
Y455252D01*
X965448Y446919D01*
X968698Y455252D01*
Y445252D01*
G01X972323D02*
X975448Y455252D01*
X978573Y445252D01*
G01X977448Y448752D02*
X973448D01*
G01X982573Y445252D02*
Y455252D01*
X988323Y445252D01*
Y455252D01*
G01X992698D02*
Y448086D01*
X993198Y446585D01*
X994198Y445586D01*
X995448Y445252D01*
X996698Y445586D01*
X997698Y446585D01*
X998198Y448086D01*
Y455252D01*
G01X1003072Y445252D02*
Y455252D01*
X1007823D01*
G01X1006073Y450419D02*
X1003072D01*
G01X1012322Y445252D02*
X1015448Y455252D01*
X1018573Y445252D01*
G01X1017448Y448752D02*
X1013448D01*
G01X1028198Y454419D02*
X1027448Y454919D01*
X1026573Y455252D01*
X1025573D01*
X1024448Y454752D01*
X1023573Y453919D01*
X1022948Y452919D01*
X1022447Y451252D01*
X1022323Y449752D01*
X1022573Y448252D01*
X1022948Y447252D01*
X1023698Y446252D01*
X1024573Y445586D01*
X1025448Y445252D01*
X1026322D01*
X1027198Y445586D01*
X1027948Y446086D01*
X1028573Y446752D01*
G01X1035448Y455252D02*
Y445252D01*
G01X1032573Y455252D02*
X1038323D01*
G01X1042698D02*
Y448086D01*
X1043198Y446585D01*
X1044198Y445586D01*
X1045448Y445252D01*
X1046698Y445586D01*
X1047698Y446585D01*
X1048198Y448086D01*
Y455252D01*
G01X1052948Y445252D02*
Y455252D01*
X1056073D01*
X1057073Y454752D01*
X1057698Y454086D01*
X1057948Y452752D01*
X1057698Y451419D01*
X1056948Y450586D01*
X1056073Y450086D01*
X1052948D01*
G01X1056073D02*
X1057948Y445252D01*
G01X1063948Y455252D02*
X1066947D01*
G01X1065448D02*
Y445252D01*
G01X1063948D02*
X1066947D01*
G01X1072573D02*
Y455252D01*
X1078323Y445252D01*
Y455252D01*
G01X1086198Y450252D02*
X1088698D01*
Y447252D01*
X1087948Y446252D01*
X1087073Y445586D01*
X1085823Y445252D01*
X1084573Y445586D01*
X1083698Y446252D01*
X1082948Y447252D01*
X1082447Y448419D01*
X1082198Y449752D01*
Y450919D01*
X1082447Y451919D01*
X1082948Y453086D01*
X1083698Y454086D01*
X1084448Y454752D01*
X1085448Y455252D01*
X1086322D01*
X1087323Y454919D01*
X1088073Y454252D01*
G01X1105448Y455252D02*
Y445252D01*
G01X1102573Y455252D02*
X1108323D01*
G01X1115448Y445252D02*
X1114448Y445419D01*
X1113573Y446086D01*
X1112823Y447086D01*
X1112323Y448252D01*
X1112072Y449586D01*
Y450919D01*
X1112323Y452252D01*
X1112823Y453419D01*
X1113573Y454419D01*
X1114448Y455086D01*
X1115448Y455252D01*
X1116448Y455086D01*
X1117322Y454419D01*
X1118073Y453419D01*
X1118573Y452252D01*
X1118823Y450919D01*
Y449586D01*
X1118573Y448252D01*
X1118073Y447086D01*
X1117322Y446086D01*
X1116448Y445419D01*
X1115448Y445252D01*
G01X1122948Y455252D02*
Y445252D01*
X1127948D01*
G01X1137948D02*
X1132948D01*
Y455252D01*
X1137948D01*
G01X1135948Y450419D02*
X1132948D01*
G01X1142948Y445252D02*
Y455252D01*
X1146073D01*
X1147073Y454752D01*
X1147698Y454086D01*
X1147948Y452752D01*
X1147698Y451419D01*
X1146948Y450586D01*
X1146073Y450086D01*
X1142948D01*
G01X1146073D02*
X1147948Y445252D01*
G01X1152322D02*
X1155448Y455252D01*
X1158573Y445252D01*
G01X1157448Y448752D02*
X1153448D01*
G01X1162573Y445252D02*
Y455252D01*
X1168323Y445252D01*
Y455252D01*
G01X1178198Y454419D02*
X1177448Y454919D01*
X1176573Y455252D01*
X1175573D01*
X1174448Y454752D01*
X1173573Y453919D01*
X1172948Y452919D01*
X1172447Y451252D01*
X1172322Y449752D01*
X1172573Y448252D01*
X1172948Y447252D01*
X1173698Y446252D01*
X1174573Y445586D01*
X1175448Y445252D01*
X1176322D01*
X1177198Y445586D01*
X1177948Y446086D01*
X1178573Y446752D01*
G01X1187948Y445252D02*
X1182948D01*
Y455252D01*
X1187948D01*
G01X1185948Y450419D02*
X1182948D01*
G01X373448Y613586D02*
X373948Y614086D01*
X374322Y614919D01*
X374573Y616086D01*
X374322Y617086D01*
X373823Y617752D01*
X372948Y618252D01*
X369573D01*
Y608252D01*
X373698D01*
X374573Y608919D01*
X375073Y609919D01*
X375323Y611086D01*
X375073Y612252D01*
X374322Y613252D01*
X373448Y613586D01*
X369573D01*
G01X379322Y608252D02*
X382448Y618252D01*
X385573Y608252D01*
G01X384448Y611752D02*
X380448D01*
G01X389823Y609585D02*
X390823Y608752D01*
X391948Y608252D01*
X392948D01*
X393948Y608752D01*
X394698Y609585D01*
X395073Y610752D01*
X394823Y611919D01*
X394198Y612919D01*
X393073Y613586D01*
X391573Y613919D01*
X390698Y614586D01*
X390322Y615752D01*
X390573Y616919D01*
X391198Y617752D01*
X392073Y618252D01*
X392948D01*
X393823Y617919D01*
X394573Y617086D01*
G01X404948Y608252D02*
X399948D01*
Y618252D01*
X404948D01*
G01X402948Y613419D02*
X399948D01*
G01X419198Y608252D02*
Y618252D01*
X422448Y609919D01*
X425698Y618252D01*
Y608252D01*
G01X429323D02*
X432448Y618252D01*
X435573Y608252D01*
G01X434448Y611752D02*
X430448D01*
G01X442448Y618252D02*
Y608252D01*
G01X439573Y618252D02*
X445323D01*
G01X454948Y608252D02*
X449948D01*
Y618252D01*
X454948D01*
G01X452948Y613419D02*
X449948D01*
G01X459948Y608252D02*
Y618252D01*
X463073D01*
X464073Y617752D01*
X464698Y617086D01*
X464948Y615752D01*
X464698Y614419D01*
X463948Y613586D01*
X463073Y613086D01*
X459948D01*
G01X463073D02*
X464948Y608252D01*
G01X470948Y618252D02*
X473947D01*
G01X472448D02*
Y608252D01*
G01X470948D02*
X473947D01*
G01X479323D02*
X482448Y618252D01*
X485573Y608252D01*
G01X484448Y611752D02*
X480448D01*
G01X489948Y618252D02*
Y608252D01*
X494948D01*
G01X522448Y607919D02*
X522198Y608086D01*
Y608419D01*
X522448Y608586D01*
X522698Y608419D01*
Y608086D01*
X522448Y607919D01*
G01Y612419D02*
X522198Y612586D01*
Y612919D01*
X522448Y613086D01*
X522698Y612919D01*
Y612586D01*
X522448Y612419D01*
G01X540072Y608252D02*
Y618252D01*
X544823D01*
G01X543073Y613419D02*
X540072D01*
G01X549948Y608252D02*
Y618252D01*
X553073D01*
X554073Y617752D01*
X554698Y617086D01*
X554948Y615752D01*
X554698Y614419D01*
X553948Y613586D01*
X553073Y613086D01*
X549948D01*
G01X553073D02*
X554948Y608252D01*
G01X563948D02*
Y618252D01*
X559322Y611086D01*
X565573D01*
G01X582448Y618252D02*
Y608252D01*
G01X579573Y618252D02*
X585323D01*
G01X590698Y605752D02*
X591573Y605086D01*
X592573Y604919D01*
X593448Y605086D01*
X594198Y605919D01*
X594698Y607086D01*
Y614919D01*
G01Y613586D02*
X594198Y614252D01*
X593448Y614752D01*
X592573Y614919D01*
X591573Y614586D01*
X590948Y613919D01*
X590448Y612752D01*
X590198Y611586D01*
X590323Y610586D01*
X590823Y609419D01*
X591573Y608586D01*
X592573Y608252D01*
X593322Y608419D01*
X594198Y609086D01*
X594698Y609752D01*
G01X612448Y608252D02*
Y618252D01*
X610948Y616252D01*
G01Y608252D02*
X613947D01*
G01X622448D02*
X623323Y608419D01*
X624323Y608919D01*
X624948Y609752D01*
X625198Y610919D01*
X624948Y612086D01*
X624198Y613086D01*
X623073Y613586D01*
X621823D01*
X621073Y613919D01*
X620448Y614752D01*
X620198Y615919D01*
X620573Y617086D01*
X621448Y617919D01*
X622448Y618252D01*
X623448Y617919D01*
X624323Y617086D01*
X624698Y615919D01*
X624448Y614752D01*
X623823Y613919D01*
X623073Y613586D01*
X621823D01*
X620698Y613086D01*
X619948Y612086D01*
X619698Y610919D01*
X619948Y609752D01*
X620573Y608919D01*
X621573Y608419D01*
X622448Y608252D01*
G01X632448Y618252D02*
X631448Y617919D01*
X630698Y617086D01*
X630198Y616086D01*
X629823Y614752D01*
X629698Y613252D01*
X629823Y611752D01*
X630198Y610419D01*
X630698Y609419D01*
X631448Y608586D01*
X632448Y608252D01*
X633448Y608586D01*
X634198Y609419D01*
X634698Y610419D01*
X635073Y611752D01*
X635198Y613252D01*
X635073Y614752D01*
X634698Y616086D01*
X634198Y617086D01*
X633448Y617919D01*
X632448Y618252D01*
G01X358583Y695382D02*
Y705382D01*
X364333Y695382D01*
Y705382D01*
G01X371458Y695382D02*
X370458Y695549D01*
X369583Y696216D01*
X368833Y697216D01*
X368333Y698382D01*
X368083Y699716D01*
Y701049D01*
X368333Y702382D01*
X368833Y703549D01*
X369583Y704549D01*
X370458Y705216D01*
X371458Y705382D01*
X372458Y705216D01*
X373333Y704549D01*
X374083Y703549D01*
X374583Y702382D01*
X374833Y701049D01*
Y699716D01*
X374583Y698382D01*
X374083Y697216D01*
X373333Y696216D01*
X372458Y695549D01*
X371458Y695382D01*
G01X381458Y705382D02*
Y695382D01*
G01X378583Y705382D02*
X384333D01*
G01X393958Y695382D02*
X388958D01*
Y705382D01*
X393958D01*
G01X391958Y700549D02*
X388958D01*
G01X398833Y696715D02*
X399833Y695882D01*
X400958Y695382D01*
X401958D01*
X402958Y695882D01*
X403708Y696715D01*
X404083Y697882D01*
X403833Y699049D01*
X403208Y700049D01*
X402083Y700716D01*
X400583Y701049D01*
X399708Y701716D01*
X399333Y702882D01*
X399583Y704049D01*
X400208Y704882D01*
X401083Y705382D01*
X401958D01*
X402833Y705049D01*
X403583Y704216D01*
G01X411458Y695049D02*
X411208Y695216D01*
Y695549D01*
X411458Y695716D01*
X411708Y695549D01*
Y695216D01*
X411458Y695049D01*
G01Y699549D02*
X411208Y699716D01*
Y700049D01*
X411458Y700216D01*
X411708Y700049D01*
Y699716D01*
X411458Y699549D01*
G01X430833Y692049D02*
X429583Y693716D01*
X428958Y695382D01*
Y702049D01*
X429583Y703716D01*
X430833Y705382D01*
G01X438708D02*
Y698216D01*
X439208Y696715D01*
X440208Y695716D01*
X441458Y695382D01*
X442708Y695716D01*
X443708Y696715D01*
X444208Y698216D01*
Y705382D01*
G01X448583Y695382D02*
Y705382D01*
X454333Y695382D01*
Y705382D01*
G01X458958D02*
Y695382D01*
X463958D01*
G01X473958D02*
X468958D01*
Y705382D01*
X473958D01*
G01X471958Y700549D02*
X468958D01*
G01X478833Y696715D02*
X479833Y695882D01*
X480958Y695382D01*
X481958D01*
X482958Y695882D01*
X483708Y696715D01*
X484083Y697882D01*
X483833Y699049D01*
X483208Y700049D01*
X482083Y700716D01*
X480583Y701049D01*
X479708Y701716D01*
X479333Y702882D01*
X479583Y704049D01*
X480208Y704882D01*
X481083Y705382D01*
X481958D01*
X482833Y705049D01*
X483583Y704216D01*
G01X488833Y696715D02*
X489833Y695882D01*
X490958Y695382D01*
X491958D01*
X492958Y695882D01*
X493708Y696715D01*
X494083Y697882D01*
X493833Y699049D01*
X493208Y700049D01*
X492083Y700716D01*
X490583Y701049D01*
X489708Y701716D01*
X489333Y702882D01*
X489583Y704049D01*
X490208Y704882D01*
X491083Y705382D01*
X491958D01*
X492833Y705049D01*
X493583Y704216D01*
G01X511458Y695382D02*
X510458Y695549D01*
X509583Y696216D01*
X508833Y697216D01*
X508333Y698382D01*
X508083Y699716D01*
Y701049D01*
X508333Y702382D01*
X508833Y703549D01*
X509583Y704549D01*
X510458Y705216D01*
X511458Y705382D01*
X512458Y705216D01*
X513333Y704549D01*
X514083Y703549D01*
X514583Y702382D01*
X514833Y701049D01*
Y699716D01*
X514583Y698382D01*
X514083Y697216D01*
X513333Y696216D01*
X512458Y695549D01*
X511458Y695382D01*
G01X521458Y705382D02*
Y695382D01*
G01X518583Y705382D02*
X524333D01*
G01X528833Y695382D02*
Y705382D01*
G01X534083D02*
Y695382D01*
G01Y700382D02*
X528833D01*
G01X543958Y695382D02*
X538958D01*
Y705382D01*
X543958D01*
G01X541958Y700549D02*
X538958D01*
G01X548958Y695382D02*
Y705382D01*
X552083D01*
X553083Y704882D01*
X553708Y704216D01*
X553958Y702882D01*
X553708Y701549D01*
X552958Y700716D01*
X552083Y700216D01*
X548958D01*
G01X552083D02*
X553958Y695382D01*
G01X557708Y705382D02*
X559458Y695382D01*
X561458Y705382D01*
X563458Y695382D01*
X565208Y705382D01*
G01X569958D02*
X572958D01*
G01X571458D02*
Y695382D01*
G01X569958D02*
X572958D01*
G01X578833Y696715D02*
X579833Y695882D01*
X580958Y695382D01*
X581958D01*
X582958Y695882D01*
X583708Y696715D01*
X584083Y697882D01*
X583833Y699049D01*
X583208Y700049D01*
X582083Y700716D01*
X580583Y701049D01*
X579708Y701716D01*
X579333Y702882D01*
X579583Y704049D01*
X580208Y704882D01*
X581083Y705382D01*
X581958D01*
X582833Y705049D01*
X583583Y704216D01*
G01X593958Y695382D02*
X588958D01*
Y705382D01*
X593958D01*
G01X591958Y700549D02*
X588958D01*
G01X608833Y696715D02*
X609833Y695882D01*
X610958Y695382D01*
X611958D01*
X612958Y695882D01*
X613708Y696715D01*
X614083Y697882D01*
X613833Y699049D01*
X613208Y700049D01*
X612083Y700716D01*
X610583Y701049D01*
X609708Y701716D01*
X609333Y702882D01*
X609583Y704049D01*
X610208Y704882D01*
X611083Y705382D01*
X611958D01*
X612833Y705049D01*
X613583Y704216D01*
G01X618958Y695382D02*
Y705382D01*
X621958D01*
X622958Y704882D01*
X623708Y703716D01*
X623958Y702382D01*
X623708Y701049D01*
X623083Y700049D01*
X621958Y699549D01*
X618958D01*
G01X633958Y695382D02*
X628958D01*
Y705382D01*
X633958D01*
G01X631958Y700549D02*
X628958D01*
G01X644208Y704549D02*
X643458Y705049D01*
X642583Y705382D01*
X641583D01*
X640458Y704882D01*
X639583Y704049D01*
X638958Y703049D01*
X638458Y701382D01*
X638333Y699882D01*
X638583Y698382D01*
X638958Y697382D01*
X639708Y696382D01*
X640583Y695716D01*
X641458Y695382D01*
X642333D01*
X643208Y695716D01*
X643958Y696216D01*
X644583Y696882D01*
G01X649958Y705382D02*
X652958D01*
G01X651458D02*
Y695382D01*
G01X649958D02*
X652958D01*
G01X659083D02*
Y705382D01*
X663833D01*
G01X662083Y700549D02*
X659083D01*
G01X669958Y705382D02*
X672958D01*
G01X671458D02*
Y695382D01*
G01X669958D02*
X672958D01*
G01X683958D02*
X678958D01*
Y705382D01*
X683958D01*
G01X681958Y700549D02*
X678958D01*
G01X688708Y695382D02*
Y705382D01*
X691208D01*
X692208Y704882D01*
X692958Y704216D01*
X693583Y703216D01*
X694083Y702049D01*
X694208Y700382D01*
X694083Y698716D01*
X693583Y697549D01*
X692958Y696549D01*
X692208Y695882D01*
X691208Y695382D01*
X688708D01*
G01X702083Y692049D02*
X703333Y693716D01*
X703958Y695382D01*
Y702049D01*
X703333Y703716D01*
X702083Y705382D01*
M02*
