G04 ================== begin FILE IDENTIFICATION RECORD ==================*
G04 Layout Name:  BRD30-00034-01.brd*
G04 Film Name:    GBR30-00034-01-SMT*
G04 File Format:  Gerber RS274X*
G04 File Origin:  Cadence Allegro 17.2-P019*
G04 Origin Date:  Mon Aug 15 13:53:33 2022*
G04 *
G04 Layer:  VIA CLASS/SOLDERMASK_TOP*
G04 Layer:  PIN/SOLDERMASK_TOP*
G04 Layer:  PACKAGE GEOMETRY/SOLDERMASK_TOP*
G04 Layer:  BOARD GEOMETRY/OUTLINE*
G04 *
G04 Offset:    (0.000 0.000)*
G04 Mirror:    No*
G04 Mode:      Positive*
G04 Rotation:  0*
G04 FullContactRelief:  No*
G04 UndefLineWidth:     6.000*
G04 ================== end FILE IDENTIFICATION RECORD ====================*
%FSLAX25Y25*MOIN*%
%IR0*IPPOS*OFA0.00000B0.00000*MIA0B0*SFA1.00000B1.00000*%
%ADD10C,.13*%
%ADD11C,.085*%
%ADD12C,.008*%
%ADD13C,.006*%
G75*
%LPD*%
G75*
G54D10*
X-52500Y15000D03*
X52500D03*
G54D11*
X-40000Y28000D03*
X-52500Y78000D03*
X-38686Y113431D03*
X-22500Y17500D03*
X-10000D03*
X0Y0D03*
X10000Y17500D03*
X22500D03*
X0Y95000D03*
X40300Y27957D03*
X52500Y78000D03*
G54D12*
G01X-30970Y-22040D02*
X-30410Y-22390D01*
X-29780Y-22600D01*
X-29220D01*
X-28660Y-22390D01*
X-28240Y-22040D01*
X-28030Y-21550D01*
X-28170Y-21060D01*
X-28520Y-20640D01*
X-29150Y-20360D01*
X-29990Y-20220D01*
X-30480Y-19940D01*
X-30690Y-19450D01*
X-30550Y-18960D01*
X-30200Y-18610D01*
X-29710Y-18400D01*
X-29220D01*
X-28730Y-18540D01*
X-28310Y-18890D01*
G01X-24500Y-22600D02*
X-25060Y-22530D01*
X-25550Y-22250D01*
X-25970Y-21830D01*
X-26250Y-21340D01*
X-26390Y-20780D01*
Y-20220D01*
X-26250Y-19660D01*
X-25970Y-19170D01*
X-25550Y-18750D01*
X-25060Y-18470D01*
X-24500Y-18400D01*
X-23940Y-18470D01*
X-23450Y-18750D01*
X-23030Y-19170D01*
X-22750Y-19660D01*
X-22610Y-20220D01*
Y-20780D01*
X-22750Y-21340D01*
X-23030Y-21830D01*
X-23450Y-22250D01*
X-23940Y-22530D01*
X-24500Y-22600D01*
G01X-20900Y-18400D02*
Y-22600D01*
X-18100D01*
G01X-16040D02*
Y-18400D01*
X-14640D01*
X-14080Y-18610D01*
X-13660Y-18890D01*
X-13310Y-19310D01*
X-13030Y-19800D01*
X-12960Y-20500D01*
X-13030Y-21200D01*
X-13310Y-21690D01*
X-13660Y-22110D01*
X-14080Y-22390D01*
X-14640Y-22600D01*
X-16040D01*
G01X-8100D02*
X-10900D01*
Y-18400D01*
X-8100D01*
G01X-9220Y-20430D02*
X-10900D01*
G01X-5900Y-22600D02*
Y-18400D01*
X-4150D01*
X-3590Y-18610D01*
X-3240Y-18890D01*
X-3100Y-19450D01*
X-3240Y-20010D01*
X-3660Y-20360D01*
X-4150Y-20570D01*
X-5900D01*
G01X-4150D02*
X-3100Y-22600D01*
G01X-1320D02*
Y-18400D01*
X500Y-21900D01*
X2320Y-18400D01*
Y-22600D01*
G01X3750D02*
X5500Y-18400D01*
X7250Y-22600D01*
G01X6620Y-21130D02*
X4380D01*
G01X9030Y-22040D02*
X9590Y-22390D01*
X10220Y-22600D01*
X10780D01*
X11340Y-22390D01*
X11760Y-22040D01*
X11970Y-21550D01*
X11830Y-21060D01*
X11480Y-20640D01*
X10850Y-20360D01*
X10010Y-20220D01*
X9520Y-19940D01*
X9310Y-19450D01*
X9450Y-18960D01*
X9800Y-18610D01*
X10290Y-18400D01*
X10780D01*
X11270Y-18540D01*
X11690Y-18890D01*
G01X13960Y-22600D02*
Y-18400D01*
G01X16620D02*
X13960Y-20990D01*
G01X17040Y-22600D02*
X15150Y-19800D01*
G01X25500Y-18400D02*
Y-22600D01*
G01X23890Y-18400D02*
X27110D01*
G01X30500Y-22600D02*
X29940Y-22530D01*
X29450Y-22250D01*
X29030Y-21830D01*
X28750Y-21340D01*
X28610Y-20780D01*
Y-20220D01*
X28750Y-19660D01*
X29030Y-19170D01*
X29450Y-18750D01*
X29940Y-18470D01*
X30500Y-18400D01*
X31060Y-18470D01*
X31550Y-18750D01*
X31970Y-19170D01*
X32250Y-19660D01*
X32390Y-20220D01*
Y-20780D01*
X32250Y-21340D01*
X31970Y-21830D01*
X31550Y-22250D01*
X31060Y-22530D01*
X30500Y-22600D01*
G01X34100D02*
Y-18400D01*
X35780D01*
X36340Y-18610D01*
X36760Y-19100D01*
X36900Y-19660D01*
X36760Y-20220D01*
X36410Y-20640D01*
X35780Y-20850D01*
X34100D01*
G54D13*
G01X-34226Y119461D02*
G03X-28279Y117500I5947J8039D01*
G01X30000D01*
G02Y2500I0J-57500D01*
G01X15811D01*
G03X6776Y-3214I0J-10000D01*
G02X-6776I-6776J3214D01*
G03X-15811Y2500I-9035J-4286D01*
G01X-30000D01*
G02X-49624Y114048I0J57500D01*
G03X-44836Y117724I-3413J9400D01*
G02X-34226Y119461I6150J-4293D01*
M02*
